
<svg  
    xmlns="http://www.w3.org/2000/svg" 
    xmlns:xlink="http://www.w3.org/1999/xlink"
    x="0px"
    y="0px"
    width="1024px" 
    height="576px" 
    viewBox="0.0 0.0 1024.0 576.0"
    class="diagram"
>

<defs>
    <image 
        class="image"
transform="
    translate(0 0) 
    scale(1 1)
    rotate(0)
"
id="e0728236-166e-4996-bafa-8ec7c372aa17_3"
clipPathUnits="userSpaceOnUse"
shape-rendering="geometricPrecision"    
    href="hardware_18pin.png" 
    xlink:href="hardware_18pin.png" 
    height="300" 
    width="220"
/><clipPath 
        class="group"
transform="
    translate(0 0) 
    scale(1 1)
    rotate(0)
"
id="e0728236-166e-4996-bafa-8ec7c372aa17_23"
clipPathUnits="userSpaceOnUse"
shape-rendering="geometricPrecision">
    <rect

        class="rect"
transform="
    translate(0 0) 
    scale(1 1)
    rotate(0)
"
id="e0728236-166e-4996-bafa-8ec7c372aa17_22"
clipPathUnits="userSpaceOnUse"
shape-rendering="geometricPrecision"    
    height="220" 
    width="80"
/>
</clipPath>
</defs>


    <link xmlns="http://www.w3.org/1999/xhtml" rel="stylesheet" href="styles.css" xlink:href="styles.css"  type="text/css"/>
<g 
        class="panel"
transform="
    translate(2 2) 
    scale(1 1)
    rotate(0)
"
id="e0728236-166e-4996-bafa-8ec7c372aa17_4"
clipPathUnits="userSpaceOnUse"
shape-rendering="geometricPrecision">
        <rect

        class="panel__outer rect"
transform="
    translate(-2 -2) 
    scale(1 1)
    rotate(0)
"
id="e0728236-166e-4996-bafa-8ec7c372aa17_120"
clipPathUnits="userSpaceOnUse"
shape-rendering="geometricPrecision"    
    height="576" 
    width="1024"
/><rect

        class="panel__inner rect"
transform="
    translate(0 0) 
    scale(1 1)
    rotate(0)
"
id="e0728236-166e-4996-bafa-8ec7c372aa17_119"
clipPathUnits="userSpaceOnUse"
shape-rendering="geometricPrecision"    
    height="572" 
    width="1020"
/><g 
        class="panel panel--main"
transform="
    translate(2 2) 
    scale(1 1)
    rotate(0)
"
id="e0728236-166e-4996-bafa-8ec7c372aa17_6"
clipPathUnits="userSpaceOnUse"
shape-rendering="geometricPrecision">
        <rect

        class="panel__outer rect"
transform="
    translate(-2 -2) 
    scale(1 1)
    rotate(0)
"
id="e0728236-166e-4996-bafa-8ec7c372aa17_122"
clipPathUnits="userSpaceOnUse"
shape-rendering="geometricPrecision"    
    height="440" 
    width="340"
/><rect

        class="panel__inner rect"
transform="
    translate(0 0) 
    scale(1 1)
    rotate(0)
"
id="e0728236-166e-4996-bafa-8ec7c372aa17_121"
clipPathUnits="userSpaceOnUse"
shape-rendering="geometricPrecision"    
    height="436" 
    width="336"
/><g 
        class="group"
transform="
    translate(60 20) 
    scale(1 1)
    rotate(0)
"
id="e0728236-166e-4996-bafa-8ec7c372aa17_12"
clipPathUnits="userSpaceOnUse"
shape-rendering="geometricPrecision">
        <use
transform="
    translate(0 0) 
    scale(1 1)
    rotate(0)
"
id="e0728236-166e-4996-bafa-8ec7c372aa17_13"
clipPathUnits="userSpaceOnUse"
shape-rendering="geometricPrecision"
    xlink:href="#e0728236-166e-4996-bafa-8ec7c372aa17_3"
    href="#e0728236-166e-4996-bafa-8ec7c372aa17_3"
    
/>
<g 
        class="annotation"
transform="
    translate(110.0 268.0) 
    scale(-1 1)
    rotate(0)
"
id="e0728236-166e-4996-bafa-8ec7c372aa17_14"
clipPathUnits="userSpaceOnUse"
shape-rendering="geometricPrecision">
        <path 

        class="annotation__leaderline pinlabel__leader"
transform="
    translate(0 0) 
    scale(1 1)
    rotate(0)
"
id="e0728236-166e-4996-bafa-8ec7c372aa17_15"
clipPathUnits="userSpaceOnUse"
shape-rendering="geometricPrecision"    
    d="M 0.0 40.0 L 0.0 51.666666666666664 A 33.333333333333336 33.333333333333336 0 0 0 33.333333333333336 85.0 L 20.0 85.0" 
/><rect

        class="annotation__target rect"
transform="
    translate(-120 -40) 
    scale(1 1)
    rotate(0)
"
id="e0728236-166e-4996-bafa-8ec7c372aa17_17"
clipPathUnits="userSpaceOnUse"
shape-rendering="geometricPrecision"    
    height="80" 
    width="240"
    rx="10" 
    ry="10" 
/><rect

        class="annotation__body rect"
transform="
    translate(20 60) 
    scale(1 1)
    rotate(0)
"
id="e0728236-166e-4996-bafa-8ec7c372aa17_16"
clipPathUnits="userSpaceOnUse"
shape-rendering="geometricPrecision"    
    height="50" 
    width="120"
    rx="25" 
    ry="25" 
/><g 
        class="annotation__text textblock"
transform="
    translate(80.0 85.0) 
    scale(-1 1)
    rotate(0)
"
id="e0728236-166e-4996-bafa-8ec7c372aa17_18"
clipPathUnits="userSpaceOnUse"
shape-rendering="geometricPrecision">
        <text

        class="text textblock"
transform="
    translate(0 0) 
    scale(1 1)
    rotate(0)
"
id="e0728236-166e-4996-bafa-8ec7c372aa17_123"
clipPathUnits="userSpaceOnUse"
shape-rendering="geometricPrecision">
    Section A
</text>
</g>
</g>
</g>
</g><g 
        class="panel panel--detail"
transform="
    translate(342 2) 
    scale(1 1)
    rotate(0)
"
id="e0728236-166e-4996-bafa-8ec7c372aa17_8"
clipPathUnits="userSpaceOnUse"
shape-rendering="geometricPrecision">
        <rect

        class="panel__outer rect"
transform="
    translate(-2 -2) 
    scale(1 1)
    rotate(0)
"
id="e0728236-166e-4996-bafa-8ec7c372aa17_125"
clipPathUnits="userSpaceOnUse"
shape-rendering="geometricPrecision"    
    height="440" 
    width="680"
/><rect

        class="panel__inner rect"
transform="
    translate(0 0) 
    scale(1 1)
    rotate(0)
"
id="e0728236-166e-4996-bafa-8ec7c372aa17_124"
clipPathUnits="userSpaceOnUse"
shape-rendering="geometricPrecision"    
    height="436" 
    width="676"
/><g 
        class="textblock"
transform="
    translate(20 40) 
    scale(1 1)
    rotate(0)
"
id="e0728236-166e-4996-bafa-8ec7c372aa17_19"
clipPathUnits="userSpaceOnUse"
shape-rendering="geometricPrecision">
        <text

        class="text textblock"
transform="
    translate(0 0) 
    scale(1 1)
    rotate(0)
"
id="e0728236-166e-4996-bafa-8ec7c372aa17_126"
clipPathUnits="userSpaceOnUse"
shape-rendering="geometricPrecision">
    <tspan class='section_title'>Section A</tspan>
</text><text

        class="text textblock"
transform="
    translate(0 22) 
    scale(1 1)
    rotate(0)
"
id="e0728236-166e-4996-bafa-8ec7c372aa17_127"
clipPathUnits="userSpaceOnUse"
shape-rendering="geometricPrecision">
    Detail of double row header.
</text>
</g><g 
        class="graphic-detail group"
transform="
    translate(263.5 108.0) 
    scale(1 1)
    rotate(0)
"
id="e0728236-166e-4996-bafa-8ec7c372aa17_20"
clipPathUnits="userSpaceOnUse"
shape-rendering="geometricPrecision">
        <g 
        class="group"
    clip-path="url(#e0728236-166e-4996-bafa-8ec7c372aa17_23)"
transform="
    translate(0 0) 
    scale(1 1)
    rotate(0)
"
id="e0728236-166e-4996-bafa-8ec7c372aa17_128"
clipPathUnits="userSpaceOnUse"
shape-rendering="geometricPrecision">
        <use
        class="image"
transform="
    translate(300.0 0.0) 
    scale(1.0 1.0)
    rotate(90)
"
id="e0728236-166e-4996-bafa-8ec7c372aa17_129"
clipPathUnits="userSpaceOnUse"
shape-rendering="geometricPrecision"
    xlink:href="#e0728236-166e-4996-bafa-8ec7c372aa17_3"
    href="#e0728236-166e-4996-bafa-8ec7c372aa17_3"
    
/>

</g><g 
        class="group"
transform="
    translate(47.0 65.00000000000001) 
    scale(1 1)
    rotate(0)
"
id="e0728236-166e-4996-bafa-8ec7c372aa17_24"
clipPathUnits="userSpaceOnUse"
shape-rendering="geometricPrecision">
        <g 
        class="group"
transform="
    translate(0 0) 
    scale(1 1)
    rotate(0)
"
id="e0728236-166e-4996-bafa-8ec7c372aa17_25"
clipPathUnits="userSpaceOnUse"
shape-rendering="geometricPrecision">
        <g 
        class="analog pinlabel"
transform="
    translate(0 0) 
    scale(1 1)
    rotate(0)
"
id="e0728236-166e-4996-bafa-8ec7c372aa17_26"
clipPathUnits="userSpaceOnUse"
shape-rendering="geometricPrecision">
        <rect

        class="pinlabel__body rect"
transform="
    translate(66 -13.0) 
    scale(1 1)
    rotate(0)
"
id="e0728236-166e-4996-bafa-8ec7c372aa17_132"
clipPathUnits="userSpaceOnUse"
shape-rendering="geometricPrecision"    
    height="26" 
    width="80"
    rx="3" 
    ry="3" 
/><text

        class="pinlabel__text text"
transform="
    translate(106.0 0) 
    scale(1 1)
    rotate(0)
"
id="e0728236-166e-4996-bafa-8ec7c372aa17_130"
clipPathUnits="userSpaceOnUse"
shape-rendering="geometricPrecision">
    A2
</text><path 

        class="pinlabel pinlabel__leader"
transform="
    translate(0 0) 
    scale(1 1)
    rotate(0)
"
id="e0728236-166e-4996-bafa-8ec7c372aa17_28"
clipPathUnits="userSpaceOnUse"
shape-rendering="geometricPrecision"    
    d="M 0.0 0.0 L 8.25 0.0 C 33.0 0.0 33.0 0.0 57.75 0.0 L 66 0.0" 
/>
</g><g 
        class="pinlabel touch"
transform="
    translate(146.0 0) 
    scale(1 1)
    rotate(0)
"
id="e0728236-166e-4996-bafa-8ec7c372aa17_30"
clipPathUnits="userSpaceOnUse"
shape-rendering="geometricPrecision">
        <rect

        class="pinlabel__body rect"
transform="
    translate(6 -13.0) 
    scale(1 1)
    rotate(0)
"
id="e0728236-166e-4996-bafa-8ec7c372aa17_135"
clipPathUnits="userSpaceOnUse"
shape-rendering="geometricPrecision"    
    height="26" 
    width="80"
    rx="3" 
    ry="3" 
/><text

        class="pinlabel__text text"
transform="
    translate(46.0 0) 
    scale(1 1)
    rotate(0)
"
id="e0728236-166e-4996-bafa-8ec7c372aa17_133"
clipPathUnits="userSpaceOnUse"
shape-rendering="geometricPrecision">
    TOUCH
</text><path 

        class="pinlabel pinlabel__leader"
transform="
    translate(0 0) 
    scale(1 1)
    rotate(0)
"
id="e0728236-166e-4996-bafa-8ec7c372aa17_34"
clipPathUnits="userSpaceOnUse"
shape-rendering="geometricPrecision"    
    d="M 0.0 0.0 L 6 0.0" 
/>
</g>
</g><g 
        class="group"
transform="
    translate(0 0) 
    scale(1 1)
    rotate(0)
"
id="e0728236-166e-4996-bafa-8ec7c372aa17_35"
clipPathUnits="userSpaceOnUse"
shape-rendering="geometricPrecision">
        <g 
        class="pinlabel pwm"
transform="
    translate(0.0 30.0) 
    scale(1 1)
    rotate(0)
"
id="e0728236-166e-4996-bafa-8ec7c372aa17_36"
clipPathUnits="userSpaceOnUse"
shape-rendering="geometricPrecision">
        <rect

        class="pinlabel__body rect"
transform="
    translate(66.0 -13.0) 
    scale(1 1)
    rotate(0)
"
id="e0728236-166e-4996-bafa-8ec7c372aa17_138"
clipPathUnits="userSpaceOnUse"
shape-rendering="geometricPrecision"    
    height="26" 
    width="80"
    rx="3" 
    ry="3" 
/><text

        class="pinlabel__text text"
transform="
    translate(106.0 0.0) 
    scale(1 1)
    rotate(0)
"
id="e0728236-166e-4996-bafa-8ec7c372aa17_136"
clipPathUnits="userSpaceOnUse"
shape-rendering="geometricPrecision">
    PWM
</text><path 

        class="pinlabel pinlabel__leader"
transform="
    translate(0 0) 
    scale(1 1)
    rotate(0)
"
id="e0728236-166e-4996-bafa-8ec7c372aa17_38"
clipPathUnits="userSpaceOnUse"
shape-rendering="geometricPrecision"    
    d="M 0.0 0.0 L 8.25 0.0 C 33.0 0.0 33.0 0.0 57.75 0.0 L 66.0 0.0" 
/>
</g>
</g><g 
        class="group"
transform="
    translate(0 0) 
    scale(1 1)
    rotate(0)
"
id="e0728236-166e-4996-bafa-8ec7c372aa17_40"
clipPathUnits="userSpaceOnUse"
shape-rendering="geometricPrecision">
        <g 
        class="gpio pinlabel"
transform="
    translate(0.0 60.0) 
    scale(1 1)
    rotate(0)
"
id="e0728236-166e-4996-bafa-8ec7c372aa17_41"
clipPathUnits="userSpaceOnUse"
shape-rendering="geometricPrecision">
        <rect

        class="pinlabel__body rect"
transform="
    translate(66.0 -13.0) 
    scale(1 1)
    rotate(0)
"
id="e0728236-166e-4996-bafa-8ec7c372aa17_141"
clipPathUnits="userSpaceOnUse"
shape-rendering="geometricPrecision"    
    height="26" 
    width="80"
    rx="3" 
    ry="3" 
/><text

        class="pinlabel__text text"
transform="
    translate(106.0 0.0) 
    scale(1 1)
    rotate(0)
"
id="e0728236-166e-4996-bafa-8ec7c372aa17_139"
clipPathUnits="userSpaceOnUse"
shape-rendering="geometricPrecision">
    6
</text><path 

        class="pinlabel pinlabel__leader"
transform="
    translate(0 0) 
    scale(1 1)
    rotate(0)
"
id="e0728236-166e-4996-bafa-8ec7c372aa17_43"
clipPathUnits="userSpaceOnUse"
shape-rendering="geometricPrecision"    
    d="M 0.0 0.0 L 8.25 0.0 C 33.0 0.0 33.0 0.0 57.75 0.0 L 66.0 0.0" 
/>
</g><g 
        class="i2c pinlabel"
transform="
    translate(146.0 60.0) 
    scale(1 1)
    rotate(0)
"
id="e0728236-166e-4996-bafa-8ec7c372aa17_45"
clipPathUnits="userSpaceOnUse"
shape-rendering="geometricPrecision">
        <rect

        class="pinlabel__body rect"
transform="
    translate(6 -13.0) 
    scale(1 1)
    rotate(0)
"
id="e0728236-166e-4996-bafa-8ec7c372aa17_144"
clipPathUnits="userSpaceOnUse"
shape-rendering="geometricPrecision"    
    height="26" 
    width="80"
    rx="3" 
    ry="3" 
/><text

        class="pinlabel__text text"
transform="
    translate(46.0 0) 
    scale(1 1)
    rotate(0)
"
id="e0728236-166e-4996-bafa-8ec7c372aa17_142"
clipPathUnits="userSpaceOnUse"
shape-rendering="geometricPrecision">
    SDA1
</text><path 

        class="pinlabel pinlabel__leader"
transform="
    translate(0 0) 
    scale(1 1)
    rotate(0)
"
id="e0728236-166e-4996-bafa-8ec7c372aa17_49"
clipPathUnits="userSpaceOnUse"
shape-rendering="geometricPrecision"    
    d="M 0.0 0.0 L 6 0.0" 
/>
</g>
</g><g 
        class="group"
transform="
    translate(0 0) 
    scale(1 1)
    rotate(0)
"
id="e0728236-166e-4996-bafa-8ec7c372aa17_50"
clipPathUnits="userSpaceOnUse"
shape-rendering="geometricPrecision">
        <g 
        class="analog pinlabel"
transform="
    translate(0.0 90.0) 
    scale(1 1)
    rotate(0)
"
id="e0728236-166e-4996-bafa-8ec7c372aa17_51"
clipPathUnits="userSpaceOnUse"
shape-rendering="geometricPrecision">
        <rect

        class="pinlabel__body rect"
transform="
    translate(66.0 -13.0) 
    scale(1 1)
    rotate(0)
"
id="e0728236-166e-4996-bafa-8ec7c372aa17_147"
clipPathUnits="userSpaceOnUse"
shape-rendering="geometricPrecision"    
    height="26" 
    width="80"
    rx="3" 
    ry="3" 
/><text

        class="pinlabel__text text"
transform="
    translate(106.0 0.0) 
    scale(1 1)
    rotate(0)
"
id="e0728236-166e-4996-bafa-8ec7c372aa17_145"
clipPathUnits="userSpaceOnUse"
shape-rendering="geometricPrecision">
    A5
</text><path 

        class="pinlabel pinlabel__leader"
transform="
    translate(0 0) 
    scale(1 1)
    rotate(0)
"
id="e0728236-166e-4996-bafa-8ec7c372aa17_53"
clipPathUnits="userSpaceOnUse"
shape-rendering="geometricPrecision"    
    d="M 0.0 0.0 L 8.25 0.0 C 33.0 0.0 33.0 0.0 57.75 0.0 L 66.0 0.0" 
/>
</g><g 
        class="i2c pinlabel"
transform="
    translate(146.0 90.0) 
    scale(1 1)
    rotate(0)
"
id="e0728236-166e-4996-bafa-8ec7c372aa17_55"
clipPathUnits="userSpaceOnUse"
shape-rendering="geometricPrecision">
        <rect

        class="pinlabel__body rect"
transform="
    translate(6 -13.0) 
    scale(1 1)
    rotate(0)
"
id="e0728236-166e-4996-bafa-8ec7c372aa17_150"
clipPathUnits="userSpaceOnUse"
shape-rendering="geometricPrecision"    
    height="26" 
    width="80"
    rx="3" 
    ry="3" 
/><text

        class="pinlabel__text text"
transform="
    translate(46.0 0) 
    scale(1 1)
    rotate(0)
"
id="e0728236-166e-4996-bafa-8ec7c372aa17_148"
clipPathUnits="userSpaceOnUse"
shape-rendering="geometricPrecision">
    SCL1
</text><path 

        class="pinlabel pinlabel__leader"
transform="
    translate(0 0) 
    scale(1 1)
    rotate(0)
"
id="e0728236-166e-4996-bafa-8ec7c372aa17_59"
clipPathUnits="userSpaceOnUse"
shape-rendering="geometricPrecision"    
    d="M 0.0 0.0 L 6 0.0" 
/>
</g>
</g>
</g><g 
        class="group"
transform="
    translate(16.0 65.00000000000001) 
    scale(1 1)
    rotate(0)
"
id="e0728236-166e-4996-bafa-8ec7c372aa17_60"
clipPathUnits="userSpaceOnUse"
shape-rendering="geometricPrecision">
        <g 
        class="group"
transform="
    translate(0 0) 
    scale(1 1)
    rotate(0)
"
id="e0728236-166e-4996-bafa-8ec7c372aa17_61"
clipPathUnits="userSpaceOnUse"
shape-rendering="geometricPrecision">
        <g 
        class="pinlabel pwr"
transform="
    translate(0 0) 
    scale(-1 1)
    rotate(0)
"
id="e0728236-166e-4996-bafa-8ec7c372aa17_62"
clipPathUnits="userSpaceOnUse"
shape-rendering="geometricPrecision">
        <rect

        class="pinlabel__body rect"
transform="
    translate(66 -13.0) 
    scale(1 1)
    rotate(0)
"
id="e0728236-166e-4996-bafa-8ec7c372aa17_153"
clipPathUnits="userSpaceOnUse"
shape-rendering="geometricPrecision"    
    height="26" 
    width="80"
    rx="3" 
    ry="3" 
/><text

        class="pinlabel__text text"
transform="
    translate(106.0 0) 
    scale(-1 1)
    rotate(0)
"
id="e0728236-166e-4996-bafa-8ec7c372aa17_151"
clipPathUnits="userSpaceOnUse"
shape-rendering="geometricPrecision">
    VBAT
</text><path 

        class="pinlabel pinlabel__leader"
transform="
    translate(0 0) 
    scale(1 1)
    rotate(0)
"
id="e0728236-166e-4996-bafa-8ec7c372aa17_64"
clipPathUnits="userSpaceOnUse"
shape-rendering="geometricPrecision"    
    d="M 0.0 0.0 L 8.25 0.0 C 33.0 0.0 33.0 0.0 57.75 0.0 L 66 0.0" 
/>
</g>
</g><g 
        class="group"
transform="
    translate(0 0) 
    scale(1 1)
    rotate(0)
"
id="e0728236-166e-4996-bafa-8ec7c372aa17_66"
clipPathUnits="userSpaceOnUse"
shape-rendering="geometricPrecision">
        <g 
        class="pinlabel pwr"
transform="
    translate(0.0 30.0) 
    scale(-1 1)
    rotate(0)
"
id="e0728236-166e-4996-bafa-8ec7c372aa17_67"
clipPathUnits="userSpaceOnUse"
shape-rendering="geometricPrecision">
        <rect

        class="pinlabel__body rect"
transform="
    translate(66.0 -13.0) 
    scale(1 1)
    rotate(0)
"
id="e0728236-166e-4996-bafa-8ec7c372aa17_156"
clipPathUnits="userSpaceOnUse"
shape-rendering="geometricPrecision"    
    height="26" 
    width="80"
    rx="3" 
    ry="3" 
/><text

        class="pinlabel__text text"
transform="
    translate(106.0 0.0) 
    scale(-1 1)
    rotate(0)
"
id="e0728236-166e-4996-bafa-8ec7c372aa17_154"
clipPathUnits="userSpaceOnUse"
shape-rendering="geometricPrecision">
    3.3V
</text><path 

        class="pinlabel pinlabel__leader"
transform="
    translate(0 0) 
    scale(1 1)
    rotate(0)
"
id="e0728236-166e-4996-bafa-8ec7c372aa17_69"
clipPathUnits="userSpaceOnUse"
shape-rendering="geometricPrecision"    
    d="M 0.0 0.0 L 8.25 0.0 C 33.0 0.0 33.0 0.0 57.75 0.0 L 66.0 0.0" 
/>
</g>
</g><g 
        class="group"
transform="
    translate(0 0) 
    scale(1 1)
    rotate(0)
"
id="e0728236-166e-4996-bafa-8ec7c372aa17_71"
clipPathUnits="userSpaceOnUse"
shape-rendering="geometricPrecision">
        <g 
        class="gnd pinlabel"
transform="
    translate(0.0 60.0) 
    scale(-1 1)
    rotate(0)
"
id="e0728236-166e-4996-bafa-8ec7c372aa17_72"
clipPathUnits="userSpaceOnUse"
shape-rendering="geometricPrecision">
        <rect

        class="pinlabel__body rect"
transform="
    translate(66.0 -13.0) 
    scale(1 1)
    rotate(0)
"
id="e0728236-166e-4996-bafa-8ec7c372aa17_159"
clipPathUnits="userSpaceOnUse"
shape-rendering="geometricPrecision"    
    height="26" 
    width="80"
    rx="3" 
    ry="3" 
/><text

        class="pinlabel__text text"
transform="
    translate(106.0 0.0) 
    scale(-1 1)
    rotate(0)
"
id="e0728236-166e-4996-bafa-8ec7c372aa17_157"
clipPathUnits="userSpaceOnUse"
shape-rendering="geometricPrecision">
    GND
</text><path 

        class="pinlabel pinlabel__leader"
transform="
    translate(0 0) 
    scale(1 1)
    rotate(0)
"
id="e0728236-166e-4996-bafa-8ec7c372aa17_74"
clipPathUnits="userSpaceOnUse"
shape-rendering="geometricPrecision"    
    d="M 0.0 0.0 L 8.25 0.0 C 33.0 0.0 33.0 0.0 57.75 0.0 L 66.0 0.0" 
/>
</g>
</g><g 
        class="group"
transform="
    translate(0 0) 
    scale(1 1)
    rotate(0)
"
id="e0728236-166e-4996-bafa-8ec7c372aa17_76"
clipPathUnits="userSpaceOnUse"
shape-rendering="geometricPrecision">
        <g 
        class="pinlabel pwr"
transform="
    translate(0.0 90.0) 
    scale(-1 1)
    rotate(0)
"
id="e0728236-166e-4996-bafa-8ec7c372aa17_77"
clipPathUnits="userSpaceOnUse"
shape-rendering="geometricPrecision">
        <rect

        class="pinlabel__body rect"
transform="
    translate(66.0 -13.0) 
    scale(1 1)
    rotate(0)
"
id="e0728236-166e-4996-bafa-8ec7c372aa17_162"
clipPathUnits="userSpaceOnUse"
shape-rendering="geometricPrecision"    
    height="26" 
    width="80"
    rx="3" 
    ry="3" 
/><text

        class="pinlabel__text text"
transform="
    translate(106.0 0.0) 
    scale(-1 1)
    rotate(0)
"
id="e0728236-166e-4996-bafa-8ec7c372aa17_160"
clipPathUnits="userSpaceOnUse"
shape-rendering="geometricPrecision">
    AREF
</text><path 

        class="pinlabel pinlabel__leader"
transform="
    translate(0 0) 
    scale(1 1)
    rotate(0)
"
id="e0728236-166e-4996-bafa-8ec7c372aa17_79"
clipPathUnits="userSpaceOnUse"
shape-rendering="geometricPrecision"    
    d="M 0.0 0.0 L 8.25 0.0 C 33.0 0.0 33.0 0.0 57.75 0.0 L 66.0 0.0" 
/>
</g>
</g>
</g>
</g>
</g><g 
        class="panel panel--info"
transform="
    translate(2 442) 
    scale(1 1)
    rotate(0)
"
id="e0728236-166e-4996-bafa-8ec7c372aa17_10"
clipPathUnits="userSpaceOnUse"
shape-rendering="geometricPrecision">
        <rect

        class="panel__outer rect"
transform="
    translate(-2 -2) 
    scale(1 1)
    rotate(0)
"
id="e0728236-166e-4996-bafa-8ec7c372aa17_164"
clipPathUnits="userSpaceOnUse"
shape-rendering="geometricPrecision"    
    height="132" 
    width="1020"
/><rect

        class="panel__inner rect"
transform="
    translate(0 0) 
    scale(1 1)
    rotate(0)
"
id="e0728236-166e-4996-bafa-8ec7c372aa17_163"
clipPathUnits="userSpaceOnUse"
shape-rendering="geometricPrecision"    
    height="128" 
    width="1016"
/><g 
        class="panel textblock title_block"
transform="
    translate(20 30) 
    scale(1 1)
    rotate(0)
"
id="e0728236-166e-4996-bafa-8ec7c372aa17_81"
clipPathUnits="userSpaceOnUse"
shape-rendering="geometricPrecision">
        <text

        class="text textblock"
transform="
    translate(0 0) 
    scale(1 1)
    rotate(0)
"
id="e0728236-166e-4996-bafa-8ec7c372aa17_165"
clipPathUnits="userSpaceOnUse"
shape-rendering="geometricPrecision">
    <tspan class='h1'>Pinout sample: Section pull-out</tspan>
</text>
</g><g 
        class="panel text_block textblock"
transform="
    translate(20 60) 
    scale(1 1)
    rotate(0)
"
id="e0728236-166e-4996-bafa-8ec7c372aa17_82"
clipPathUnits="userSpaceOnUse"
shape-rendering="geometricPrecision">
        <text

        class="text textblock"
transform="
    translate(0 0) 
    scale(1 1)
    rotate(0)
"
id="e0728236-166e-4996-bafa-8ec7c372aa17_166"
clipPathUnits="userSpaceOnUse"
shape-rendering="geometricPrecision">
    Pinout is a Python tool kit to assist with documentation of electronic hardware.
</text><text

        class="text textblock"
transform="
    translate(0 18) 
    scale(1 1)
    rotate(0)
"
id="e0728236-166e-4996-bafa-8ec7c372aa17_167"
clipPathUnits="userSpaceOnUse"
shape-rendering="geometricPrecision">
    This sample demonstrates documenting a section of hardware.
</text><text

        class="text textblock"
transform="
    translate(0 36) 
    scale(1 1)
    rotate(0)
"
id="e0728236-166e-4996-bafa-8ec7c372aa17_168"
clipPathUnits="userSpaceOnUse"
shape-rendering="geometricPrecision">
    More info at <tspan class='italic strong'>pinout.readthedocs.io</tspan>
</text>
</g><g 
        class="legend"
transform="
    translate(640 8) 
    scale(1 1)
    rotate(0)
"
id="e0728236-166e-4996-bafa-8ec7c372aa17_83"
clipPathUnits="userSpaceOnUse"
shape-rendering="geometricPrecision">
        <g 
        class="analog legend legend__entry"
transform="
    translate(0 0) 
    scale(1 1)
    rotate(0)
"
id="e0728236-166e-4996-bafa-8ec7c372aa17_84"
clipPathUnits="userSpaceOnUse"
shape-rendering="geometricPrecision">
        <g 
        class="legend swatch"
transform="
    translate(4.0 14.0) 
    scale(1 1)
    rotate(0)
"
id="e0728236-166e-4996-bafa-8ec7c372aa17_85"
clipPathUnits="userSpaceOnUse"
shape-rendering="geometricPrecision">
        <rect

        class="rect swatch__body"
transform="
    translate(0 -10.0) 
    scale(1 1)
    rotate(0)
"
id="e0728236-166e-4996-bafa-8ec7c372aa17_86"
clipPathUnits="userSpaceOnUse"
shape-rendering="geometricPrecision"    
    height="20" 
    width="20"
/>
</g><text

        class="text"
transform="
    translate(28.0 14.0) 
    scale(1 1)
    rotate(0)
"
id="e0728236-166e-4996-bafa-8ec7c372aa17_88"
clipPathUnits="userSpaceOnUse"
shape-rendering="geometricPrecision">
    Analog
</text>
</g><g 
        class="i2c legend legend__entry"
transform="
    translate(0 28.0) 
    scale(1 1)
    rotate(0)
"
id="e0728236-166e-4996-bafa-8ec7c372aa17_89"
clipPathUnits="userSpaceOnUse"
shape-rendering="geometricPrecision">
        <g 
        class="legend swatch"
transform="
    translate(4.0 14.0) 
    scale(1 1)
    rotate(0)
"
id="e0728236-166e-4996-bafa-8ec7c372aa17_90"
clipPathUnits="userSpaceOnUse"
shape-rendering="geometricPrecision">
        <rect

        class="rect swatch__body"
transform="
    translate(0 -10.0) 
    scale(1 1)
    rotate(0)
"
id="e0728236-166e-4996-bafa-8ec7c372aa17_91"
clipPathUnits="userSpaceOnUse"
shape-rendering="geometricPrecision"    
    height="20" 
    width="20"
/>
</g><text

        class="text"
transform="
    translate(28.0 14.0) 
    scale(1 1)
    rotate(0)
"
id="e0728236-166e-4996-bafa-8ec7c372aa17_93"
clipPathUnits="userSpaceOnUse"
shape-rendering="geometricPrecision">
    I2C
</text>
</g><g 
        class="gpio legend legend__entry"
transform="
    translate(0 56.0) 
    scale(1 1)
    rotate(0)
"
id="e0728236-166e-4996-bafa-8ec7c372aa17_94"
clipPathUnits="userSpaceOnUse"
shape-rendering="geometricPrecision">
        <g 
        class="legend swatch"
transform="
    translate(4.0 14.0) 
    scale(1 1)
    rotate(0)
"
id="e0728236-166e-4996-bafa-8ec7c372aa17_95"
clipPathUnits="userSpaceOnUse"
shape-rendering="geometricPrecision">
        <rect

        class="rect swatch__body"
transform="
    translate(0 -10.0) 
    scale(1 1)
    rotate(0)
"
id="e0728236-166e-4996-bafa-8ec7c372aa17_96"
clipPathUnits="userSpaceOnUse"
shape-rendering="geometricPrecision"    
    height="20" 
    width="20"
/>
</g><text

        class="text"
transform="
    translate(28.0 14.0) 
    scale(1 1)
    rotate(0)
"
id="e0728236-166e-4996-bafa-8ec7c372aa17_98"
clipPathUnits="userSpaceOnUse"
shape-rendering="geometricPrecision">
    GPIO
</text>
</g><g 
        class="legend legend__entry touch"
transform="
    translate(0 84.0) 
    scale(1 1)
    rotate(0)
"
id="e0728236-166e-4996-bafa-8ec7c372aa17_99"
clipPathUnits="userSpaceOnUse"
shape-rendering="geometricPrecision">
        <g 
        class="legend swatch"
transform="
    translate(4.0 14.0) 
    scale(1 1)
    rotate(0)
"
id="e0728236-166e-4996-bafa-8ec7c372aa17_100"
clipPathUnits="userSpaceOnUse"
shape-rendering="geometricPrecision">
        <rect

        class="rect swatch__body"
transform="
    translate(0 -10.0) 
    scale(1 1)
    rotate(0)
"
id="e0728236-166e-4996-bafa-8ec7c372aa17_101"
clipPathUnits="userSpaceOnUse"
shape-rendering="geometricPrecision"    
    height="20" 
    width="20"
/>
</g><text

        class="text"
transform="
    translate(28.0 14.0) 
    scale(1 1)
    rotate(0)
"
id="e0728236-166e-4996-bafa-8ec7c372aa17_103"
clipPathUnits="userSpaceOnUse"
shape-rendering="geometricPrecision">
    Touch
</text>
</g><g 
        class="legend legend__entry pwm"
transform="
    translate(159.0 0) 
    scale(1 1)
    rotate(0)
"
id="e0728236-166e-4996-bafa-8ec7c372aa17_104"
clipPathUnits="userSpaceOnUse"
shape-rendering="geometricPrecision">
        <g 
        class="legend swatch"
transform="
    translate(4.0 14.0) 
    scale(1 1)
    rotate(0)
"
id="e0728236-166e-4996-bafa-8ec7c372aa17_105"
clipPathUnits="userSpaceOnUse"
shape-rendering="geometricPrecision">
        <rect

        class="rect swatch__body"
transform="
    translate(0 -10.0) 
    scale(1 1)
    rotate(0)
"
id="e0728236-166e-4996-bafa-8ec7c372aa17_106"
clipPathUnits="userSpaceOnUse"
shape-rendering="geometricPrecision"    
    height="20" 
    width="20"
/>
</g><text

        class="text"
transform="
    translate(28.0 14.0) 
    scale(1 1)
    rotate(0)
"
id="e0728236-166e-4996-bafa-8ec7c372aa17_108"
clipPathUnits="userSpaceOnUse"
shape-rendering="geometricPrecision">
    PWM
</text>
</g><g 
        class="legend legend__entry pwr"
transform="
    translate(159.0 28.0) 
    scale(1 1)
    rotate(0)
"
id="e0728236-166e-4996-bafa-8ec7c372aa17_109"
clipPathUnits="userSpaceOnUse"
shape-rendering="geometricPrecision">
        <g 
        class="legend swatch"
transform="
    translate(4.0 14.0) 
    scale(1 1)
    rotate(0)
"
id="e0728236-166e-4996-bafa-8ec7c372aa17_110"
clipPathUnits="userSpaceOnUse"
shape-rendering="geometricPrecision">
        <rect

        class="rect swatch__body"
transform="
    translate(0 -10.0) 
    scale(1 1)
    rotate(0)
"
id="e0728236-166e-4996-bafa-8ec7c372aa17_111"
clipPathUnits="userSpaceOnUse"
shape-rendering="geometricPrecision"    
    height="20" 
    width="20"
/>
</g><text

        class="text"
transform="
    translate(28.0 14.0) 
    scale(1 1)
    rotate(0)
"
id="e0728236-166e-4996-bafa-8ec7c372aa17_113"
clipPathUnits="userSpaceOnUse"
shape-rendering="geometricPrecision">
    Power
</text>
</g><g 
        class="gnd legend legend__entry"
transform="
    translate(159.0 56.0) 
    scale(1 1)
    rotate(0)
"
id="e0728236-166e-4996-bafa-8ec7c372aa17_114"
clipPathUnits="userSpaceOnUse"
shape-rendering="geometricPrecision">
        <g 
        class="legend swatch"
transform="
    translate(4.0 14.0) 
    scale(1 1)
    rotate(0)
"
id="e0728236-166e-4996-bafa-8ec7c372aa17_115"
clipPathUnits="userSpaceOnUse"
shape-rendering="geometricPrecision">
        <rect

        class="rect swatch__body"
transform="
    translate(0 -10.0) 
    scale(1 1)
    rotate(0)
"
id="e0728236-166e-4996-bafa-8ec7c372aa17_116"
clipPathUnits="userSpaceOnUse"
shape-rendering="geometricPrecision"    
    height="20" 
    width="20"
/>
</g><text

        class="text"
transform="
    translate(28.0 14.0) 
    scale(1 1)
    rotate(0)
"
id="e0728236-166e-4996-bafa-8ec7c372aa17_118"
clipPathUnits="userSpaceOnUse"
shape-rendering="geometricPrecision">
    Ground
</text>
</g>
</g>
</g>
</g>
    
</svg>