
<svg  
    xmlns="http://www.w3.org/2000/svg" 
    xmlns:xlink="http://www.w3.org/1999/xlink"
    x="0"
    y="0"
    width="1024" 
    height="576" 
    viewBox="0 0 1024 576"
    class="diagram"
>

<defs>
    <image 
transform="
    translate(0 0) 
    scale(1 1)
    rotate(0)
"
id="dcc4b39d-5c65-4e6d-a648-33e14ed2e113_3"
clipPathUnits="userSpaceOnUse"
shape-rendering="geometricPrecision"    
    href="hardware_18pin.png" 
    xlink:href="hardware_18pin.png" 
    height="300" 
    width="220"
/>
<clipPath 
    transform="
        translate(0 0) 
        scale(1 1)
        rotate(0)
    "
    id="dcc4b39d-5c65-4e6d-a648-33e14ed2e113_23"
    clipPathUnits="userSpaceOnUse"
>
    <rect

transform="
    translate(0 0) 
    scale(1 1)
    rotate(0)
"
id="dcc4b39d-5c65-4e6d-a648-33e14ed2e113_22"
clipPathUnits="userSpaceOnUse"
shape-rendering="geometricPrecision"    
    width="80" 
    height="220" 
/>
</clipPath>
</defs>


    <link xmlns="http://www.w3.org/1999/xhtml" rel="stylesheet" href="styles.css" xlink:href="styles.css"  type="text/css"/>
<g 
        class=" panel"
transform="
    translate(2 2) 
    scale(1 1)
    rotate(0)
"
id="dcc4b39d-5c65-4e6d-a648-33e14ed2e113_4"
clipPathUnits="userSpaceOnUse"
shape-rendering="geometricPrecision">
        <rect

        class="panel__outer"
transform="
    translate(-2 -2) 
    scale(1 1)
    rotate(0)
"
id="dcc4b39d-5c65-4e6d-a648-33e14ed2e113_120"
clipPathUnits="userSpaceOnUse"
shape-rendering="geometricPrecision"    
    width="1024" 
    height="576" 
/><rect

        class="panel__inner"
transform="
    translate(0 0) 
    scale(1 1)
    rotate(0)
"
id="dcc4b39d-5c65-4e6d-a648-33e14ed2e113_119"
clipPathUnits="userSpaceOnUse"
shape-rendering="geometricPrecision"    
    width="1020" 
    height="572" 
/><g 
        class="panel--main panel"
transform="
    translate(2 2) 
    scale(1 1)
    rotate(0)
"
id="dcc4b39d-5c65-4e6d-a648-33e14ed2e113_6"
clipPathUnits="userSpaceOnUse"
shape-rendering="geometricPrecision">
        <rect

        class="panel__outer"
transform="
    translate(-2 -2) 
    scale(1 1)
    rotate(0)
"
id="dcc4b39d-5c65-4e6d-a648-33e14ed2e113_122"
clipPathUnits="userSpaceOnUse"
shape-rendering="geometricPrecision"    
    width="340" 
    height="440" 
/><rect

        class="panel__inner"
transform="
    translate(0 0) 
    scale(1 1)
    rotate(0)
"
id="dcc4b39d-5c65-4e6d-a648-33e14ed2e113_121"
clipPathUnits="userSpaceOnUse"
shape-rendering="geometricPrecision"    
    width="336" 
    height="436" 
/><g 
transform="
    translate(170 20) 
    scale(1 1)
    rotate(0)
"
id="dcc4b39d-5c65-4e6d-a648-33e14ed2e113_12"
clipPathUnits="userSpaceOnUse"
shape-rendering="geometricPrecision">
        <g 
transform="
    translate(0 0) 
    scale(1 1)
    rotate(0)
"
id="dcc4b39d-5c65-4e6d-a648-33e14ed2e113_123"
clipPathUnits="userSpaceOnUse"
shape-rendering="geometricPrecision">
        <use
transform="
    translate(-110.0 0.0) 
    scale(1.0 1.0)
    rotate(0)
"
id="dcc4b39d-5c65-4e6d-a648-33e14ed2e113_124"
clipPathUnits="userSpaceOnUse"
shape-rendering="geometricPrecision"
    xlink:href="#dcc4b39d-5c65-4e6d-a648-33e14ed2e113_3"
    href="#dcc4b39d-5c65-4e6d-a648-33e14ed2e113_3"
    
/>

</g><g 
        class=" annotation"
transform="
    translate(0.0 268.0) 
    scale(-1 1)
    rotate(0)
"
id="dcc4b39d-5c65-4e6d-a648-33e14ed2e113_14"
clipPathUnits="userSpaceOnUse"
shape-rendering="geometricPrecision">
        <path 

        class="annotation__leaderline"
transform="
    translate(0 0) 
    scale(1 1)
    rotate(0)
"
id="dcc4b39d-5c65-4e6d-a648-33e14ed2e113_15"
clipPathUnits="userSpaceOnUse"
shape-rendering="geometricPrecision"    
    d="M 0.0 40.0 L 0.0 51.666666666666664 A 33.333333333333336 33.333333333333336 0 0 0 33.333333333333336 85.0 L 20.0 85.0" 
/><rect

        class="annotation__target"
transform="
    translate(-120 -40) 
    scale(1 1)
    rotate(0)
"
id="dcc4b39d-5c65-4e6d-a648-33e14ed2e113_17"
clipPathUnits="userSpaceOnUse"
shape-rendering="geometricPrecision"    
    width="240" 
    height="80" 
    rx="10" 
    ry="10" 
/><rect

        class="annotation__body"
transform="
    translate(20 60) 
    scale(1 1)
    rotate(0)
"
id="dcc4b39d-5c65-4e6d-a648-33e14ed2e113_16"
clipPathUnits="userSpaceOnUse"
shape-rendering="geometricPrecision"    
    width="120" 
    height="50" 
    rx="25" 
    ry="25" 
/><g 
        class="annotation__text textblock"
transform="
    translate(80.0 85.0) 
    scale(-1 1)
    rotate(0)
"
id="dcc4b39d-5c65-4e6d-a648-33e14ed2e113_18"
clipPathUnits="userSpaceOnUse"
shape-rendering="geometricPrecision">
        <text

        class="textblock"
transform="
    translate(0 0) 
    scale(1 1)
    rotate(0)
"
id="dcc4b39d-5c65-4e6d-a648-33e14ed2e113_125"
clipPathUnits="userSpaceOnUse"
shape-rendering="geometricPrecision">
    Section A
</text>
</g>
</g>
</g>
</g><g 
        class="panel--detail panel"
transform="
    translate(342 2) 
    scale(1 1)
    rotate(0)
"
id="dcc4b39d-5c65-4e6d-a648-33e14ed2e113_8"
clipPathUnits="userSpaceOnUse"
shape-rendering="geometricPrecision">
        <rect

        class="panel__outer"
transform="
    translate(-2 -2) 
    scale(1 1)
    rotate(0)
"
id="dcc4b39d-5c65-4e6d-a648-33e14ed2e113_127"
clipPathUnits="userSpaceOnUse"
shape-rendering="geometricPrecision"    
    width="680" 
    height="440" 
/><rect

        class="panel__inner"
transform="
    translate(0 0) 
    scale(1 1)
    rotate(0)
"
id="dcc4b39d-5c65-4e6d-a648-33e14ed2e113_126"
clipPathUnits="userSpaceOnUse"
shape-rendering="geometricPrecision"    
    width="676" 
    height="436" 
/><g 
        class=" textblock"
transform="
    translate(20 40) 
    scale(1 1)
    rotate(0)
"
id="dcc4b39d-5c65-4e6d-a648-33e14ed2e113_19"
clipPathUnits="userSpaceOnUse"
shape-rendering="geometricPrecision">
        <text

        class="textblock"
transform="
    translate(0 0) 
    scale(1 1)
    rotate(0)
"
id="dcc4b39d-5c65-4e6d-a648-33e14ed2e113_128"
clipPathUnits="userSpaceOnUse"
shape-rendering="geometricPrecision">
    <tspan class='section_title'>Section A</tspan>
</text><text

        class="textblock"
transform="
    translate(0 22) 
    scale(1 1)
    rotate(0)
"
id="dcc4b39d-5c65-4e6d-a648-33e14ed2e113_129"
clipPathUnits="userSpaceOnUse"
shape-rendering="geometricPrecision">
    Detail of double row header.
</text>
</g><g 
        class="graphic-detail"
transform="
    translate(263.5 108.0) 
    scale(1 1)
    rotate(0)
"
id="dcc4b39d-5c65-4e6d-a648-33e14ed2e113_20"
clipPathUnits="userSpaceOnUse"
shape-rendering="geometricPrecision">
        <g 
    clip-path="url(#dcc4b39d-5c65-4e6d-a648-33e14ed2e113_23)"
transform="
    translate(0 0) 
    scale(1 1)
    rotate(0)
"
id="dcc4b39d-5c65-4e6d-a648-33e14ed2e113_130"
clipPathUnits="userSpaceOnUse"
shape-rendering="geometricPrecision">
        <use
transform="
    translate(300.0 0.0) 
    scale(1.0 1.0)
    rotate(90)
"
id="dcc4b39d-5c65-4e6d-a648-33e14ed2e113_131"
clipPathUnits="userSpaceOnUse"
shape-rendering="geometricPrecision"
    xlink:href="#dcc4b39d-5c65-4e6d-a648-33e14ed2e113_3"
    href="#dcc4b39d-5c65-4e6d-a648-33e14ed2e113_3"
    
/>

</g><g 
transform="
    translate(47.0 65.00000000000001) 
    scale(1 1)
    rotate(0)
"
id="dcc4b39d-5c65-4e6d-a648-33e14ed2e113_24"
clipPathUnits="userSpaceOnUse"
shape-rendering="geometricPrecision">
        <g 
transform="
    translate(0 0) 
    scale(1 1)
    rotate(0)
"
id="dcc4b39d-5c65-4e6d-a648-33e14ed2e113_25"
clipPathUnits="userSpaceOnUse"
shape-rendering="geometricPrecision">
        <g 
        class=" pinlabel analog"
transform="
    translate(0 0) 
    scale(1 1)
    rotate(0)
"
id="dcc4b39d-5c65-4e6d-a648-33e14ed2e113_26"
clipPathUnits="userSpaceOnUse"
shape-rendering="geometricPrecision">
        <rect

        class=" pinlabel__body"
transform="
    translate(66 -13.0) 
    scale(1 1)
    rotate(0)
"
id="dcc4b39d-5c65-4e6d-a648-33e14ed2e113_134"
clipPathUnits="userSpaceOnUse"
shape-rendering="geometricPrecision"    
    width="80" 
    height="26" 
    rx="3" 
    ry="3" 
/><text

        class="pinlabel__text"
transform="
    translate(106.0 0) 
    scale(1 1)
    rotate(0)
"
id="dcc4b39d-5c65-4e6d-a648-33e14ed2e113_132"
clipPathUnits="userSpaceOnUse"
shape-rendering="geometricPrecision">
    A2
</text><path 

        class="pinlabel__leader"
transform="
    translate(0 0) 
    scale(1 1)
    rotate(0)
"
id="dcc4b39d-5c65-4e6d-a648-33e14ed2e113_28"
clipPathUnits="userSpaceOnUse"
shape-rendering="geometricPrecision"    
    d="M 0.0 0.0 L 8.25 0.0 C 33.0 0.0 33.0 0.0 57.75 0.0 L 66 0.0" 
/>
</g><g 
        class=" pinlabel touch"
transform="
    translate(146.0 0) 
    scale(1 1)
    rotate(0)
"
id="dcc4b39d-5c65-4e6d-a648-33e14ed2e113_30"
clipPathUnits="userSpaceOnUse"
shape-rendering="geometricPrecision">
        <rect

        class=" pinlabel__body"
transform="
    translate(6 -13.0) 
    scale(1 1)
    rotate(0)
"
id="dcc4b39d-5c65-4e6d-a648-33e14ed2e113_137"
clipPathUnits="userSpaceOnUse"
shape-rendering="geometricPrecision"    
    width="80" 
    height="26" 
    rx="3" 
    ry="3" 
/><text

        class="pinlabel__text"
transform="
    translate(46.0 0) 
    scale(1 1)
    rotate(0)
"
id="dcc4b39d-5c65-4e6d-a648-33e14ed2e113_135"
clipPathUnits="userSpaceOnUse"
shape-rendering="geometricPrecision">
    TOUCH
</text><path 

        class=" pinlabel__leader"
transform="
    translate(0 0) 
    scale(1 1)
    rotate(0)
"
id="dcc4b39d-5c65-4e6d-a648-33e14ed2e113_34"
clipPathUnits="userSpaceOnUse"
shape-rendering="geometricPrecision"    
    d="M 0.0 0.0 L 6 0.0" 
/>
</g>
</g><g 
transform="
    translate(0 0) 
    scale(1 1)
    rotate(0)
"
id="dcc4b39d-5c65-4e6d-a648-33e14ed2e113_35"
clipPathUnits="userSpaceOnUse"
shape-rendering="geometricPrecision">
        <g 
        class=" pinlabel pwm"
transform="
    translate(0.0 30.0) 
    scale(1 1)
    rotate(0)
"
id="dcc4b39d-5c65-4e6d-a648-33e14ed2e113_36"
clipPathUnits="userSpaceOnUse"
shape-rendering="geometricPrecision">
        <rect

        class=" pinlabel__body"
transform="
    translate(66.0 -13.0) 
    scale(1 1)
    rotate(0)
"
id="dcc4b39d-5c65-4e6d-a648-33e14ed2e113_140"
clipPathUnits="userSpaceOnUse"
shape-rendering="geometricPrecision"    
    width="80" 
    height="26" 
    rx="3" 
    ry="3" 
/><text

        class="pinlabel__text"
transform="
    translate(106.0 0.0) 
    scale(1 1)
    rotate(0)
"
id="dcc4b39d-5c65-4e6d-a648-33e14ed2e113_138"
clipPathUnits="userSpaceOnUse"
shape-rendering="geometricPrecision">
    PWM
</text><path 

        class="pinlabel__leader"
transform="
    translate(0 0) 
    scale(1 1)
    rotate(0)
"
id="dcc4b39d-5c65-4e6d-a648-33e14ed2e113_38"
clipPathUnits="userSpaceOnUse"
shape-rendering="geometricPrecision"    
    d="M 0.0 0.0 L 8.25 0.0 C 33.0 0.0 33.0 0.0 57.75 0.0 L 66.0 0.0" 
/>
</g>
</g><g 
transform="
    translate(0 0) 
    scale(1 1)
    rotate(0)
"
id="dcc4b39d-5c65-4e6d-a648-33e14ed2e113_40"
clipPathUnits="userSpaceOnUse"
shape-rendering="geometricPrecision">
        <g 
        class=" pinlabel gpio"
transform="
    translate(0.0 60.0) 
    scale(1 1)
    rotate(0)
"
id="dcc4b39d-5c65-4e6d-a648-33e14ed2e113_41"
clipPathUnits="userSpaceOnUse"
shape-rendering="geometricPrecision">
        <rect

        class=" pinlabel__body"
transform="
    translate(66.0 -13.0) 
    scale(1 1)
    rotate(0)
"
id="dcc4b39d-5c65-4e6d-a648-33e14ed2e113_143"
clipPathUnits="userSpaceOnUse"
shape-rendering="geometricPrecision"    
    width="80" 
    height="26" 
    rx="3" 
    ry="3" 
/><text

        class="pinlabel__text"
transform="
    translate(106.0 0.0) 
    scale(1 1)
    rotate(0)
"
id="dcc4b39d-5c65-4e6d-a648-33e14ed2e113_141"
clipPathUnits="userSpaceOnUse"
shape-rendering="geometricPrecision">
    6
</text><path 

        class="pinlabel__leader"
transform="
    translate(0 0) 
    scale(1 1)
    rotate(0)
"
id="dcc4b39d-5c65-4e6d-a648-33e14ed2e113_43"
clipPathUnits="userSpaceOnUse"
shape-rendering="geometricPrecision"    
    d="M 0.0 0.0 L 8.25 0.0 C 33.0 0.0 33.0 0.0 57.75 0.0 L 66.0 0.0" 
/>
</g><g 
        class=" pinlabel i2c"
transform="
    translate(146.0 60.0) 
    scale(1 1)
    rotate(0)
"
id="dcc4b39d-5c65-4e6d-a648-33e14ed2e113_45"
clipPathUnits="userSpaceOnUse"
shape-rendering="geometricPrecision">
        <rect

        class=" pinlabel__body"
transform="
    translate(6 -13.0) 
    scale(1 1)
    rotate(0)
"
id="dcc4b39d-5c65-4e6d-a648-33e14ed2e113_146"
clipPathUnits="userSpaceOnUse"
shape-rendering="geometricPrecision"    
    width="80" 
    height="26" 
    rx="3" 
    ry="3" 
/><text

        class="pinlabel__text"
transform="
    translate(46.0 0) 
    scale(1 1)
    rotate(0)
"
id="dcc4b39d-5c65-4e6d-a648-33e14ed2e113_144"
clipPathUnits="userSpaceOnUse"
shape-rendering="geometricPrecision">
    SDA1
</text><path 

        class=" pinlabel__leader"
transform="
    translate(0 0) 
    scale(1 1)
    rotate(0)
"
id="dcc4b39d-5c65-4e6d-a648-33e14ed2e113_49"
clipPathUnits="userSpaceOnUse"
shape-rendering="geometricPrecision"    
    d="M 0.0 0.0 L 6 0.0" 
/>
</g>
</g><g 
transform="
    translate(0 0) 
    scale(1 1)
    rotate(0)
"
id="dcc4b39d-5c65-4e6d-a648-33e14ed2e113_50"
clipPathUnits="userSpaceOnUse"
shape-rendering="geometricPrecision">
        <g 
        class=" pinlabel analog"
transform="
    translate(0.0 90.0) 
    scale(1 1)
    rotate(0)
"
id="dcc4b39d-5c65-4e6d-a648-33e14ed2e113_51"
clipPathUnits="userSpaceOnUse"
shape-rendering="geometricPrecision">
        <rect

        class=" pinlabel__body"
transform="
    translate(66.0 -13.0) 
    scale(1 1)
    rotate(0)
"
id="dcc4b39d-5c65-4e6d-a648-33e14ed2e113_149"
clipPathUnits="userSpaceOnUse"
shape-rendering="geometricPrecision"    
    width="80" 
    height="26" 
    rx="3" 
    ry="3" 
/><text

        class="pinlabel__text"
transform="
    translate(106.0 0.0) 
    scale(1 1)
    rotate(0)
"
id="dcc4b39d-5c65-4e6d-a648-33e14ed2e113_147"
clipPathUnits="userSpaceOnUse"
shape-rendering="geometricPrecision">
    A5
</text><path 

        class="pinlabel__leader"
transform="
    translate(0 0) 
    scale(1 1)
    rotate(0)
"
id="dcc4b39d-5c65-4e6d-a648-33e14ed2e113_53"
clipPathUnits="userSpaceOnUse"
shape-rendering="geometricPrecision"    
    d="M 0.0 0.0 L 8.25 0.0 C 33.0 0.0 33.0 0.0 57.75 0.0 L 66.0 0.0" 
/>
</g><g 
        class=" pinlabel i2c"
transform="
    translate(146.0 90.0) 
    scale(1 1)
    rotate(0)
"
id="dcc4b39d-5c65-4e6d-a648-33e14ed2e113_55"
clipPathUnits="userSpaceOnUse"
shape-rendering="geometricPrecision">
        <rect

        class=" pinlabel__body"
transform="
    translate(6 -13.0) 
    scale(1 1)
    rotate(0)
"
id="dcc4b39d-5c65-4e6d-a648-33e14ed2e113_152"
clipPathUnits="userSpaceOnUse"
shape-rendering="geometricPrecision"    
    width="80" 
    height="26" 
    rx="3" 
    ry="3" 
/><text

        class="pinlabel__text"
transform="
    translate(46.0 0) 
    scale(1 1)
    rotate(0)
"
id="dcc4b39d-5c65-4e6d-a648-33e14ed2e113_150"
clipPathUnits="userSpaceOnUse"
shape-rendering="geometricPrecision">
    SCL1
</text><path 

        class=" pinlabel__leader"
transform="
    translate(0 0) 
    scale(1 1)
    rotate(0)
"
id="dcc4b39d-5c65-4e6d-a648-33e14ed2e113_59"
clipPathUnits="userSpaceOnUse"
shape-rendering="geometricPrecision"    
    d="M 0.0 0.0 L 6 0.0" 
/>
</g>
</g>
</g><g 
transform="
    translate(16.0 65.00000000000001) 
    scale(1 1)
    rotate(0)
"
id="dcc4b39d-5c65-4e6d-a648-33e14ed2e113_60"
clipPathUnits="userSpaceOnUse"
shape-rendering="geometricPrecision">
        <g 
transform="
    translate(0 0) 
    scale(1 1)
    rotate(0)
"
id="dcc4b39d-5c65-4e6d-a648-33e14ed2e113_61"
clipPathUnits="userSpaceOnUse"
shape-rendering="geometricPrecision">
        <g 
        class=" pinlabel pwr"
transform="
    translate(0 0) 
    scale(-1 1)
    rotate(0)
"
id="dcc4b39d-5c65-4e6d-a648-33e14ed2e113_62"
clipPathUnits="userSpaceOnUse"
shape-rendering="geometricPrecision">
        <rect

        class=" pinlabel__body"
transform="
    translate(66 -13.0) 
    scale(1 1)
    rotate(0)
"
id="dcc4b39d-5c65-4e6d-a648-33e14ed2e113_155"
clipPathUnits="userSpaceOnUse"
shape-rendering="geometricPrecision"    
    width="80" 
    height="26" 
    rx="3" 
    ry="3" 
/><text

        class="pinlabel__text"
transform="
    translate(106.0 0) 
    scale(-1 1)
    rotate(0)
"
id="dcc4b39d-5c65-4e6d-a648-33e14ed2e113_153"
clipPathUnits="userSpaceOnUse"
shape-rendering="geometricPrecision">
    VBAT
</text><path 

        class="pinlabel__leader"
transform="
    translate(0 0) 
    scale(1 1)
    rotate(0)
"
id="dcc4b39d-5c65-4e6d-a648-33e14ed2e113_64"
clipPathUnits="userSpaceOnUse"
shape-rendering="geometricPrecision"    
    d="M 0.0 0.0 L 8.25 0.0 C 33.0 0.0 33.0 0.0 57.75 0.0 L 66 0.0" 
/>
</g>
</g><g 
transform="
    translate(0 0) 
    scale(1 1)
    rotate(0)
"
id="dcc4b39d-5c65-4e6d-a648-33e14ed2e113_66"
clipPathUnits="userSpaceOnUse"
shape-rendering="geometricPrecision">
        <g 
        class=" pinlabel pwr"
transform="
    translate(0.0 30.0) 
    scale(-1 1)
    rotate(0)
"
id="dcc4b39d-5c65-4e6d-a648-33e14ed2e113_67"
clipPathUnits="userSpaceOnUse"
shape-rendering="geometricPrecision">
        <rect

        class=" pinlabel__body"
transform="
    translate(66.0 -13.0) 
    scale(1 1)
    rotate(0)
"
id="dcc4b39d-5c65-4e6d-a648-33e14ed2e113_158"
clipPathUnits="userSpaceOnUse"
shape-rendering="geometricPrecision"    
    width="80" 
    height="26" 
    rx="3" 
    ry="3" 
/><text

        class="pinlabel__text"
transform="
    translate(106.0 0.0) 
    scale(-1 1)
    rotate(0)
"
id="dcc4b39d-5c65-4e6d-a648-33e14ed2e113_156"
clipPathUnits="userSpaceOnUse"
shape-rendering="geometricPrecision">
    3.3V
</text><path 

        class="pinlabel__leader"
transform="
    translate(0 0) 
    scale(1 1)
    rotate(0)
"
id="dcc4b39d-5c65-4e6d-a648-33e14ed2e113_69"
clipPathUnits="userSpaceOnUse"
shape-rendering="geometricPrecision"    
    d="M 0.0 0.0 L 8.25 0.0 C 33.0 0.0 33.0 0.0 57.75 0.0 L 66.0 0.0" 
/>
</g>
</g><g 
transform="
    translate(0 0) 
    scale(1 1)
    rotate(0)
"
id="dcc4b39d-5c65-4e6d-a648-33e14ed2e113_71"
clipPathUnits="userSpaceOnUse"
shape-rendering="geometricPrecision">
        <g 
        class=" pinlabel gnd"
transform="
    translate(0.0 60.0) 
    scale(-1 1)
    rotate(0)
"
id="dcc4b39d-5c65-4e6d-a648-33e14ed2e113_72"
clipPathUnits="userSpaceOnUse"
shape-rendering="geometricPrecision">
        <rect

        class=" pinlabel__body"
transform="
    translate(66.0 -13.0) 
    scale(1 1)
    rotate(0)
"
id="dcc4b39d-5c65-4e6d-a648-33e14ed2e113_161"
clipPathUnits="userSpaceOnUse"
shape-rendering="geometricPrecision"    
    width="80" 
    height="26" 
    rx="3" 
    ry="3" 
/><text

        class="pinlabel__text"
transform="
    translate(106.0 0.0) 
    scale(-1 1)
    rotate(0)
"
id="dcc4b39d-5c65-4e6d-a648-33e14ed2e113_159"
clipPathUnits="userSpaceOnUse"
shape-rendering="geometricPrecision">
    GND
</text><path 

        class="pinlabel__leader"
transform="
    translate(0 0) 
    scale(1 1)
    rotate(0)
"
id="dcc4b39d-5c65-4e6d-a648-33e14ed2e113_74"
clipPathUnits="userSpaceOnUse"
shape-rendering="geometricPrecision"    
    d="M 0.0 0.0 L 8.25 0.0 C 33.0 0.0 33.0 0.0 57.75 0.0 L 66.0 0.0" 
/>
</g>
</g><g 
transform="
    translate(0 0) 
    scale(1 1)
    rotate(0)
"
id="dcc4b39d-5c65-4e6d-a648-33e14ed2e113_76"
clipPathUnits="userSpaceOnUse"
shape-rendering="geometricPrecision">
        <g 
        class=" pinlabel pwr"
transform="
    translate(0.0 90.0) 
    scale(-1 1)
    rotate(0)
"
id="dcc4b39d-5c65-4e6d-a648-33e14ed2e113_77"
clipPathUnits="userSpaceOnUse"
shape-rendering="geometricPrecision">
        <rect

        class=" pinlabel__body"
transform="
    translate(66.0 -13.0) 
    scale(1 1)
    rotate(0)
"
id="dcc4b39d-5c65-4e6d-a648-33e14ed2e113_164"
clipPathUnits="userSpaceOnUse"
shape-rendering="geometricPrecision"    
    width="80" 
    height="26" 
    rx="3" 
    ry="3" 
/><text

        class="pinlabel__text"
transform="
    translate(106.0 0.0) 
    scale(-1 1)
    rotate(0)
"
id="dcc4b39d-5c65-4e6d-a648-33e14ed2e113_162"
clipPathUnits="userSpaceOnUse"
shape-rendering="geometricPrecision">
    AREF
</text><path 

        class="pinlabel__leader"
transform="
    translate(0 0) 
    scale(1 1)
    rotate(0)
"
id="dcc4b39d-5c65-4e6d-a648-33e14ed2e113_79"
clipPathUnits="userSpaceOnUse"
shape-rendering="geometricPrecision"    
    d="M 0.0 0.0 L 8.25 0.0 C 33.0 0.0 33.0 0.0 57.75 0.0 L 66.0 0.0" 
/>
</g>
</g>
</g>
</g>
</g><g 
        class="panel--info panel"
transform="
    translate(2 442) 
    scale(1 1)
    rotate(0)
"
id="dcc4b39d-5c65-4e6d-a648-33e14ed2e113_10"
clipPathUnits="userSpaceOnUse"
shape-rendering="geometricPrecision">
        <rect

        class="panel__outer"
transform="
    translate(-2 -2) 
    scale(1 1)
    rotate(0)
"
id="dcc4b39d-5c65-4e6d-a648-33e14ed2e113_166"
clipPathUnits="userSpaceOnUse"
shape-rendering="geometricPrecision"    
    width="1020" 
    height="132" 
/><rect

        class="panel__inner"
transform="
    translate(0 0) 
    scale(1 1)
    rotate(0)
"
id="dcc4b39d-5c65-4e6d-a648-33e14ed2e113_165"
clipPathUnits="userSpaceOnUse"
shape-rendering="geometricPrecision"    
    width="1016" 
    height="128" 
/><g 
        class="panel title_block textblock"
transform="
    translate(20 30) 
    scale(1 1)
    rotate(0)
"
id="dcc4b39d-5c65-4e6d-a648-33e14ed2e113_81"
clipPathUnits="userSpaceOnUse"
shape-rendering="geometricPrecision">
        <text

        class="textblock"
transform="
    translate(0 0) 
    scale(1 1)
    rotate(0)
"
id="dcc4b39d-5c65-4e6d-a648-33e14ed2e113_167"
clipPathUnits="userSpaceOnUse"
shape-rendering="geometricPrecision">
    <tspan class='h1'>Pinout sample: Section pull-out</tspan>
</text>
</g><g 
        class="panel text_block textblock"
transform="
    translate(20 60) 
    scale(1 1)
    rotate(0)
"
id="dcc4b39d-5c65-4e6d-a648-33e14ed2e113_82"
clipPathUnits="userSpaceOnUse"
shape-rendering="geometricPrecision">
        <text

        class="textblock"
transform="
    translate(0 0) 
    scale(1 1)
    rotate(0)
"
id="dcc4b39d-5c65-4e6d-a648-33e14ed2e113_168"
clipPathUnits="userSpaceOnUse"
shape-rendering="geometricPrecision">
    Pinout is a Python tool kit to assist with documentation of electronic hardware.
</text><text

        class="textblock"
transform="
    translate(0 18) 
    scale(1 1)
    rotate(0)
"
id="dcc4b39d-5c65-4e6d-a648-33e14ed2e113_169"
clipPathUnits="userSpaceOnUse"
shape-rendering="geometricPrecision">
    This sample demonstrates documenting a section of hardware.
</text><text

        class="textblock"
transform="
    translate(0 36) 
    scale(1 1)
    rotate(0)
"
id="dcc4b39d-5c65-4e6d-a648-33e14ed2e113_170"
clipPathUnits="userSpaceOnUse"
shape-rendering="geometricPrecision">
    More info at <tspan class='italic strong'>pinout.readthedocs.io</tspan>
</text>
</g><g 
        class=" legend"
transform="
    translate(640 8) 
    scale(1 1)
    rotate(0)
"
id="dcc4b39d-5c65-4e6d-a648-33e14ed2e113_83"
clipPathUnits="userSpaceOnUse"
shape-rendering="geometricPrecision">
        <g 
        class="analog legendentry"
transform="
    translate(0 0) 
    scale(1 1)
    rotate(0)
"
id="dcc4b39d-5c65-4e6d-a648-33e14ed2e113_84"
clipPathUnits="userSpaceOnUse"
shape-rendering="geometricPrecision">
        <g 
        class=" swatch"
transform="
    translate(4.0 14.0) 
    scale(1 1)
    rotate(0)
"
id="dcc4b39d-5c65-4e6d-a648-33e14ed2e113_85"
clipPathUnits="userSpaceOnUse"
shape-rendering="geometricPrecision">
        <rect

        class=" swatch__body"
transform="
    translate(0 -10.0) 
    scale(1 1)
    rotate(0)
"
id="dcc4b39d-5c65-4e6d-a648-33e14ed2e113_86"
clipPathUnits="userSpaceOnUse"
shape-rendering="geometricPrecision"    
    width="20" 
    height="20" 
/>
</g><text

transform="
    translate(28.0 14.0) 
    scale(1 1)
    rotate(0)
"
id="dcc4b39d-5c65-4e6d-a648-33e14ed2e113_88"
clipPathUnits="userSpaceOnUse"
shape-rendering="geometricPrecision">
    Analog
</text>
</g><g 
        class="i2c legendentry"
transform="
    translate(0 28.0) 
    scale(1 1)
    rotate(0)
"
id="dcc4b39d-5c65-4e6d-a648-33e14ed2e113_89"
clipPathUnits="userSpaceOnUse"
shape-rendering="geometricPrecision">
        <g 
        class=" swatch"
transform="
    translate(4.0 14.0) 
    scale(1 1)
    rotate(0)
"
id="dcc4b39d-5c65-4e6d-a648-33e14ed2e113_90"
clipPathUnits="userSpaceOnUse"
shape-rendering="geometricPrecision">
        <rect

        class=" swatch__body"
transform="
    translate(0 -10.0) 
    scale(1 1)
    rotate(0)
"
id="dcc4b39d-5c65-4e6d-a648-33e14ed2e113_91"
clipPathUnits="userSpaceOnUse"
shape-rendering="geometricPrecision"    
    width="20" 
    height="20" 
/>
</g><text

transform="
    translate(28.0 14.0) 
    scale(1 1)
    rotate(0)
"
id="dcc4b39d-5c65-4e6d-a648-33e14ed2e113_93"
clipPathUnits="userSpaceOnUse"
shape-rendering="geometricPrecision">
    I2C
</text>
</g><g 
        class="gpio legendentry"
transform="
    translate(0 56.0) 
    scale(1 1)
    rotate(0)
"
id="dcc4b39d-5c65-4e6d-a648-33e14ed2e113_94"
clipPathUnits="userSpaceOnUse"
shape-rendering="geometricPrecision">
        <g 
        class=" swatch"
transform="
    translate(4.0 14.0) 
    scale(1 1)
    rotate(0)
"
id="dcc4b39d-5c65-4e6d-a648-33e14ed2e113_95"
clipPathUnits="userSpaceOnUse"
shape-rendering="geometricPrecision">
        <rect

        class=" swatch__body"
transform="
    translate(0 -10.0) 
    scale(1 1)
    rotate(0)
"
id="dcc4b39d-5c65-4e6d-a648-33e14ed2e113_96"
clipPathUnits="userSpaceOnUse"
shape-rendering="geometricPrecision"    
    width="20" 
    height="20" 
/>
</g><text

transform="
    translate(28.0 14.0) 
    scale(1 1)
    rotate(0)
"
id="dcc4b39d-5c65-4e6d-a648-33e14ed2e113_98"
clipPathUnits="userSpaceOnUse"
shape-rendering="geometricPrecision">
    GPIO
</text>
</g><g 
        class="touch legendentry"
transform="
    translate(0 84.0) 
    scale(1 1)
    rotate(0)
"
id="dcc4b39d-5c65-4e6d-a648-33e14ed2e113_99"
clipPathUnits="userSpaceOnUse"
shape-rendering="geometricPrecision">
        <g 
        class=" swatch"
transform="
    translate(4.0 14.0) 
    scale(1 1)
    rotate(0)
"
id="dcc4b39d-5c65-4e6d-a648-33e14ed2e113_100"
clipPathUnits="userSpaceOnUse"
shape-rendering="geometricPrecision">
        <rect

        class=" swatch__body"
transform="
    translate(0 -10.0) 
    scale(1 1)
    rotate(0)
"
id="dcc4b39d-5c65-4e6d-a648-33e14ed2e113_101"
clipPathUnits="userSpaceOnUse"
shape-rendering="geometricPrecision"    
    width="20" 
    height="20" 
/>
</g><text

transform="
    translate(28.0 14.0) 
    scale(1 1)
    rotate(0)
"
id="dcc4b39d-5c65-4e6d-a648-33e14ed2e113_103"
clipPathUnits="userSpaceOnUse"
shape-rendering="geometricPrecision">
    Touch
</text>
</g><g 
        class="pwm legendentry"
transform="
    translate(159.0 0) 
    scale(1 1)
    rotate(0)
"
id="dcc4b39d-5c65-4e6d-a648-33e14ed2e113_104"
clipPathUnits="userSpaceOnUse"
shape-rendering="geometricPrecision">
        <g 
        class=" swatch"
transform="
    translate(4.0 14.0) 
    scale(1 1)
    rotate(0)
"
id="dcc4b39d-5c65-4e6d-a648-33e14ed2e113_105"
clipPathUnits="userSpaceOnUse"
shape-rendering="geometricPrecision">
        <rect

        class=" swatch__body"
transform="
    translate(0 -10.0) 
    scale(1 1)
    rotate(0)
"
id="dcc4b39d-5c65-4e6d-a648-33e14ed2e113_106"
clipPathUnits="userSpaceOnUse"
shape-rendering="geometricPrecision"    
    width="20" 
    height="20" 
/>
</g><text

transform="
    translate(28.0 14.0) 
    scale(1 1)
    rotate(0)
"
id="dcc4b39d-5c65-4e6d-a648-33e14ed2e113_108"
clipPathUnits="userSpaceOnUse"
shape-rendering="geometricPrecision">
    PWM
</text>
</g><g 
        class="pwr legendentry"
transform="
    translate(159.0 28.0) 
    scale(1 1)
    rotate(0)
"
id="dcc4b39d-5c65-4e6d-a648-33e14ed2e113_109"
clipPathUnits="userSpaceOnUse"
shape-rendering="geometricPrecision">
        <g 
        class=" swatch"
transform="
    translate(4.0 14.0) 
    scale(1 1)
    rotate(0)
"
id="dcc4b39d-5c65-4e6d-a648-33e14ed2e113_110"
clipPathUnits="userSpaceOnUse"
shape-rendering="geometricPrecision">
        <rect

        class=" swatch__body"
transform="
    translate(0 -10.0) 
    scale(1 1)
    rotate(0)
"
id="dcc4b39d-5c65-4e6d-a648-33e14ed2e113_111"
clipPathUnits="userSpaceOnUse"
shape-rendering="geometricPrecision"    
    width="20" 
    height="20" 
/>
</g><text

transform="
    translate(28.0 14.0) 
    scale(1 1)
    rotate(0)
"
id="dcc4b39d-5c65-4e6d-a648-33e14ed2e113_113"
clipPathUnits="userSpaceOnUse"
shape-rendering="geometricPrecision">
    Power
</text>
</g><g 
        class="gnd legendentry"
transform="
    translate(159.0 56.0) 
    scale(1 1)
    rotate(0)
"
id="dcc4b39d-5c65-4e6d-a648-33e14ed2e113_114"
clipPathUnits="userSpaceOnUse"
shape-rendering="geometricPrecision">
        <g 
        class=" swatch"
transform="
    translate(4.0 14.0) 
    scale(1 1)
    rotate(0)
"
id="dcc4b39d-5c65-4e6d-a648-33e14ed2e113_115"
clipPathUnits="userSpaceOnUse"
shape-rendering="geometricPrecision">
        <rect

        class=" swatch__body"
transform="
    translate(0 -10.0) 
    scale(1 1)
    rotate(0)
"
id="dcc4b39d-5c65-4e6d-a648-33e14ed2e113_116"
clipPathUnits="userSpaceOnUse"
shape-rendering="geometricPrecision"    
    width="20" 
    height="20" 
/>
</g><text

transform="
    translate(28.0 14.0) 
    scale(1 1)
    rotate(0)
"
id="dcc4b39d-5c65-4e6d-a648-33e14ed2e113_118"
clipPathUnits="userSpaceOnUse"
shape-rendering="geometricPrecision">
    Ground
</text>
</g>
</g>
</g>
</g>
    
</svg>