
<svg  
    xmlns="http://www.w3.org/2000/svg" 
    xmlns:xlink="http://www.w3.org/1999/xlink"
    x="0"
    y="0"
    width="1024" 
    height="576" 
    viewBox="0 0 1024 576"
    class="diagram"
>

<defs>
    <image 
    id="f9eaed97-2205-46d2-9438-840fa6daa8fa"
 
    transform="
        translate(0 0) 
        scale(1 1)
        rotate(0)
    "
    href="hardware_18pin.png" 
    xlink:href="hardware_18pin.png" 
    height="300" 
    width="220"
/>
<clipPath 
    transform="
        translate(0 0) 
        scale(1 1)
        rotate(0)
    "
    id="c441d756-d5ff-450a-b144-517021657da2"
    clipPathUnits="userSpaceOnUse"
>
    <rect
    id="b9f94bc2-fc99-487d-9f4e-2edf2e8f4bbf"
 
     transform="
        translate(0 0) 
        scale(1 1)
        rotate(0)
    " 
    width="80" 
    height="220" 
    shape-rendering="geometricPrecision"
/>
</clipPath>
</defs>


    <style type="text/css" media="screen">  
    <![CDATA[  
    text {
    font-family: Verdana, Georgia, sans-serif;
    font-size: 14px;
    font-weight: normal;
}

.pinlabel__leader{
    stroke-width: 2;
    fill: none;
}

.pinlabel__text{
    dominant-baseline: central;
    fill: #fff;
    font-weight: bold;
    stroke-width: 0;
    text-anchor: middle;
}

.pwr .pinlabel__body{
    fill: rgb(173, 0, 0);
}
.pwr .pinlabel__leader{
    stroke: rgb(173, 0, 0);
}
.pwr .swatch__body {
    fill: rgb(173, 0, 0);
}
.i2c .pinlabel__body{
    fill: rgb(182, 69, 176);
}
.i2c .pinlabel__leader{
    stroke: rgb(182, 69, 176);
}
.i2c .swatch__body {
    fill: rgb(182, 69, 176);
}
.gpio .pinlabel__body{
    fill: rgb(160, 133, 26);
}
.gpio .pinlabel__leader{
    stroke: rgb(160, 133, 26);
}
.gpio .swatch__body {
    fill: rgb(160, 133, 26);
}
.analog .pinlabel__body{
    fill: rgb(32, 150, 165);
}
.analog .pinlabel__leader{
    stroke: rgb(32, 150, 165);
}
.analog .swatch__body {
    fill: rgb(32, 150, 165);
}
.gnd .pinlabel__body{
    fill: rgb(0, 0, 0);
}
.gnd .pinlabel__leader{
    stroke: rgb(0, 0, 0);
}
.gnd .swatch__body {
    fill: rgb(0, 0, 0);
}
.pwm .pinlabel__body{
    fill: rgb(151, 76, 23);
}
.pwm .pinlabel__leader{
    stroke: rgb(151, 76, 23);
}
.pwm .swatch__body {
    fill: rgb(151, 76, 23);
}
.touch .pinlabel__body{
    fill: rgb(230, 87, 10);
}
.touch .pinlabel__leader{
    stroke: rgb(230, 87, 10);
}
.touch .swatch__body {
    fill: rgb(230, 87, 10);
}

.panel__inner {
    fill: #fff;
}
.panel__outer {
    fill: #333;
}

.legendentry text {
    dominant-baseline: central;
}

.h1 {
    font-size: 26px;
    font-weight: bold;
    font-style: italic;
}
.italic{
    font-style: italic;
}
.strong{
    font-weight: bold;
}

.panel--info .panel__inner{
    
    fill: #f4f4f4;
}


.annotation__body {
    fill: rgb(253, 203, 36);
}
.annotation__text text {
    dominant-baseline: central;
    font-size: 18px;
    font-weight: bold;
    text-anchor: middle;
}
.annotation__target {
    fill: none;
    stroke: rgb(253, 203, 36);
    stroke-width: 4px;
}
.annotation__leaderline {
    stroke: rgb(253, 203, 36);
    stroke-width: 4px;
    fill: none;
}
.section_title{
    font-size: 20px;
    font-weight: bold;
}
    ]]>  
</style>
<g 
        class=" panel"
    transform="
        translate(2 2) 
        scale(1 1)
        rotate(0)
    "
>
        <rect
    id="72de0115-b30c-467f-9903-1b9d7b6e562b"
 
        class="panel__outer"
 
     transform="
        translate(-2 -2) 
        scale(1 1)
        rotate(0)
    " 
    width="1024" 
    height="576" 
    shape-rendering="geometricPrecision"
/><rect
    id="8327aaf4-7ba4-42e6-8aeb-083652135530"
 
        class="panel__inner"
 
     transform="
        translate(0 0) 
        scale(1 1)
        rotate(0)
    " 
    width="1020" 
    height="572" 
    shape-rendering="geometricPrecision"
/><g 
        class="panel--main panel"
    transform="
        translate(2 2) 
        scale(1 1)
        rotate(0)
    "
>
        <rect
    id="082dff49-66bc-411c-b4ef-e5f6855fc5b5"
 
        class="panel__outer"
 
     transform="
        translate(-2 -2) 
        scale(1 1)
        rotate(0)
    " 
    width="340" 
    height="440" 
    shape-rendering="geometricPrecision"
/><rect
    id="3d2e1e7c-d62c-4da8-b0b2-c15d80289ba3"
 
        class="panel__inner"
 
     transform="
        translate(0 0) 
        scale(1 1)
        rotate(0)
    " 
    width="336" 
    height="436" 
    shape-rendering="geometricPrecision"
/><g 
    transform="
        translate(170 20) 
        scale(1 1)
        rotate(0)
    "
>
        <g 
    transform="
        translate(0 0) 
        scale(1 1)
        rotate(0)
    "
>
        <use
    id="e7d2f3b6-4fda-4ca8-b00f-d8ff39f7c625"
 
    
     transform="
        translate(-110.0 0.0) 
        scale(1.0 1.0)
        rotate(0)
    " 

    href="#f9eaed97-2205-46d2-9438-840fa6daa8fa"
    
/>

</g><g 
        class=" annotation"
    transform="
        translate(0.0 268.0) 
        scale(-1 1)
        rotate(0)
    "
>
        <path 
    class="annotation__leaderline" 
    transform="
        scale(1 1) 
        translate(0 0) 
        rotate(0)
    " 
    d="M 0.0 40.0 L 0.0 51.666666666666664 A 33.333333333333336 33.333333333333336 0 0 0 33.333333333333336 85.0 L 20.0 85.0" 
    shape-rendering="geometricPrecision"
/><rect
    id="1ac5ee8c-5aee-4632-a19a-609cbfec5f9d"
 
        class="annotation__target"
 
     transform="
        translate(-120 -40) 
        scale(1 1)
        rotate(0)
    " 
    width="240" 
    height="80" 
    shape-rendering="geometricPrecision"
    rx="10" 
    ry="10" 
/><rect
    id="b3026652-51e9-447b-9c73-2fb04e6eee87"
 
        class="annotation__body"
 
     transform="
        translate(20 60) 
        scale(1 1)
        rotate(0)
    " 
    width="120" 
    height="50" 
    shape-rendering="geometricPrecision"
    rx="25" 
    ry="25" 
/><g 
        class="annotation__text textblock"
    transform="
        translate(80.0 85.0) 
        scale(-1 1)
        rotate(0)
    "
>
        <text
    class="textblock"
    transform="
        translate(0 0) 
        scale(1 1)
        rotate(0)
    "  
>
    Section A
</text>
</g>
</g>
</g>
</g><g 
        class="panel--detail panel"
    transform="
        translate(342 2) 
        scale(1 1)
        rotate(0)
    "
>
        <rect
    id="0d5925f5-f0d4-41a9-878c-3e0a40a8bdcb"
 
        class="panel__outer"
 
     transform="
        translate(-2 -2) 
        scale(1 1)
        rotate(0)
    " 
    width="680" 
    height="440" 
    shape-rendering="geometricPrecision"
/><rect
    id="527ab282-240a-49bc-ab21-e8c30c078295"
 
        class="panel__inner"
 
     transform="
        translate(0 0) 
        scale(1 1)
        rotate(0)
    " 
    width="676" 
    height="436" 
    shape-rendering="geometricPrecision"
/><g 
        class=" textblock"
    transform="
        translate(20 40) 
        scale(1 1)
        rotate(0)
    "
>
        <text
    class="textblock"
    transform="
        translate(0 0) 
        scale(1 1)
        rotate(0)
    "  
>
    <tspan class='section_title'>Section A</tspan>
</text><text
    class="textblock"
    transform="
        translate(0 22) 
        scale(1 1)
        rotate(0)
    "  
>
    Detail of double row header.
</text>
</g><g 
        class="graphic-detail"
    transform="
        translate(263.5 108.0) 
        scale(1 1)
        rotate(0)
    "
>
        <g 
        clip-path="url(#c441d756-d5ff-450a-b144-517021657da2)"
    transform="
        translate(0 0) 
        scale(1 1)
        rotate(0)
    "
>
        <use
    id="ac92b914-2ef9-4543-b876-e4a830666c01"
 
    
     transform="
        translate(300.0 0.0) 
        scale(1.0 1.0)
        rotate(90)
    " 

    href="#f9eaed97-2205-46d2-9438-840fa6daa8fa"
    
/>

</g><g 
    transform="
        translate(47.0 65.00000000000001) 
        scale(1 1)
        rotate(0)
    "
>
        <g 
    transform="
        translate(0 0) 
        scale(1 1)
        rotate(0)
    "
>
        <g 
        class=" pinlabel analog"
    transform="
        translate(0 0) 
        scale(1 1)
        rotate(0)
    "
>
        <path 
    class="pinlabel__leader" 
    transform="
        scale(1 1) 
        translate(0 0) 
        rotate(0)
    " 
    d="M 0.0 0.0 L 8.25 0.0 C 33.0 0.0 33.0 0.0 57.75 0.0 L 66 0.0" 
    shape-rendering="geometricPrecision"
/><rect
    id="0dd6517d-881d-43d9-ad0c-cebbb5e5e0d5"
 
        class=" pinlabel__body"
 
     transform="
        translate(66 -13.0) 
        scale(1 1)
        rotate(0)
    " 
    width="80" 
    height="26" 
    shape-rendering="geometricPrecision"
    rx="3" 
    ry="3" 
/><text
    class="pinlabel__text"
    transform="
        translate(106.0 0) 
        scale(1 1)
        rotate(0)
    "  
>
    A2
</text>
</g><g 
        class=" pinlabel touch"
    transform="
        translate(146.0 0) 
        scale(1 1)
        rotate(0)
    "
>
        <path 
    class="pinlabel__leader" 
    transform="
        scale(1 1) 
        translate(0 0) 
        rotate(0)
    " 
    d="" 
    shape-rendering="geometricPrecision"
/><rect
    id="4c5ceee1-8f63-4710-8f25-ee33f5303610"
 
        class=" pinlabel__body"
 
     transform="
        translate(6 -13.0) 
        scale(1 1)
        rotate(0)
    " 
    width="80" 
    height="26" 
    shape-rendering="geometricPrecision"
    rx="3" 
    ry="3" 
/><text
    class="pinlabel__text"
    transform="
        translate(46.0 0) 
        scale(1 1)
        rotate(0)
    "  
>
    TOUCH
</text>
</g>
</g><g 
    transform="
        translate(0 0) 
        scale(1 1)
        rotate(0)
    "
>
        <g 
        class=" pinlabel pwm"
    transform="
        translate(0.0 30.0) 
        scale(1 1)
        rotate(0)
    "
>
        <path 
    class="pinlabel__leader" 
    transform="
        scale(1 1) 
        translate(0 0) 
        rotate(0)
    " 
    d="M 0.0 0.0 L 8.25 0.0 C 33.0 0.0 33.0 0.0 57.75 0.0 L 66.0 0.0" 
    shape-rendering="geometricPrecision"
/><rect
    id="c0b9dbd0-3e8e-40a1-b052-e1e30fe86ee4"
 
        class=" pinlabel__body"
 
     transform="
        translate(66.0 -13.0) 
        scale(1 1)
        rotate(0)
    " 
    width="80" 
    height="26" 
    shape-rendering="geometricPrecision"
    rx="3" 
    ry="3" 
/><text
    class="pinlabel__text"
    transform="
        translate(106.0 0.0) 
        scale(1 1)
        rotate(0)
    "  
>
    PWM
</text>
</g>
</g><g 
    transform="
        translate(0 0) 
        scale(1 1)
        rotate(0)
    "
>
        <g 
        class=" pinlabel gpio"
    transform="
        translate(0.0 60.0) 
        scale(1 1)
        rotate(0)
    "
>
        <path 
    class="pinlabel__leader" 
    transform="
        scale(1 1) 
        translate(0 0) 
        rotate(0)
    " 
    d="M 0.0 0.0 L 8.25 0.0 C 33.0 0.0 33.0 0.0 57.75 0.0 L 66.0 0.0" 
    shape-rendering="geometricPrecision"
/><rect
    id="e12f9466-6c65-4aad-ac88-aa0603bb10e6"
 
        class=" pinlabel__body"
 
     transform="
        translate(66.0 -13.0) 
        scale(1 1)
        rotate(0)
    " 
    width="80" 
    height="26" 
    shape-rendering="geometricPrecision"
    rx="3" 
    ry="3" 
/><text
    class="pinlabel__text"
    transform="
        translate(106.0 0.0) 
        scale(1 1)
        rotate(0)
    "  
>
    6
</text>
</g><g 
        class=" pinlabel i2c"
    transform="
        translate(146.0 60.0) 
        scale(1 1)
        rotate(0)
    "
>
        <path 
    class="pinlabel__leader" 
    transform="
        scale(1 1) 
        translate(0 0) 
        rotate(0)
    " 
    d="" 
    shape-rendering="geometricPrecision"
/><rect
    id="73e32ac7-3be0-418b-8572-7856052767f8"
 
        class=" pinlabel__body"
 
     transform="
        translate(6 -13.0) 
        scale(1 1)
        rotate(0)
    " 
    width="80" 
    height="26" 
    shape-rendering="geometricPrecision"
    rx="3" 
    ry="3" 
/><text
    class="pinlabel__text"
    transform="
        translate(46.0 0) 
        scale(1 1)
        rotate(0)
    "  
>
    SDA1
</text>
</g>
</g><g 
    transform="
        translate(0 0) 
        scale(1 1)
        rotate(0)
    "
>
        <g 
        class=" pinlabel analog"
    transform="
        translate(0.0 90.0) 
        scale(1 1)
        rotate(0)
    "
>
        <path 
    class="pinlabel__leader" 
    transform="
        scale(1 1) 
        translate(0 0) 
        rotate(0)
    " 
    d="M 0.0 0.0 L 8.25 0.0 C 33.0 0.0 33.0 0.0 57.75 0.0 L 66.0 0.0" 
    shape-rendering="geometricPrecision"
/><rect
    id="06ae09f3-fc1f-4b85-8e28-562d8323e96c"
 
        class=" pinlabel__body"
 
     transform="
        translate(66.0 -13.0) 
        scale(1 1)
        rotate(0)
    " 
    width="80" 
    height="26" 
    shape-rendering="geometricPrecision"
    rx="3" 
    ry="3" 
/><text
    class="pinlabel__text"
    transform="
        translate(106.0 0.0) 
        scale(1 1)
        rotate(0)
    "  
>
    A5
</text>
</g><g 
        class=" pinlabel i2c"
    transform="
        translate(146.0 90.0) 
        scale(1 1)
        rotate(0)
    "
>
        <path 
    class="pinlabel__leader" 
    transform="
        scale(1 1) 
        translate(0 0) 
        rotate(0)
    " 
    d="" 
    shape-rendering="geometricPrecision"
/><rect
    id="381a70ca-f2e2-4ae7-bdb0-081a7b780637"
 
        class=" pinlabel__body"
 
     transform="
        translate(6 -13.0) 
        scale(1 1)
        rotate(0)
    " 
    width="80" 
    height="26" 
    shape-rendering="geometricPrecision"
    rx="3" 
    ry="3" 
/><text
    class="pinlabel__text"
    transform="
        translate(46.0 0) 
        scale(1 1)
        rotate(0)
    "  
>
    SCL1
</text>
</g>
</g>
</g><g 
    transform="
        translate(16.0 65.00000000000001) 
        scale(1 1)
        rotate(0)
    "
>
        <g 
    transform="
        translate(0 0) 
        scale(1 1)
        rotate(0)
    "
>
        <g 
        class=" pinlabel pwr"
    transform="
        translate(0 0) 
        scale(-1 1)
        rotate(0)
    "
>
        <path 
    class="pinlabel__leader" 
    transform="
        scale(1 1) 
        translate(0 0) 
        rotate(0)
    " 
    d="M 0.0 0.0 L 8.25 0.0 C 33.0 0.0 33.0 0.0 57.75 0.0 L 66 0.0" 
    shape-rendering="geometricPrecision"
/><rect
    id="749936a2-7021-45f0-b9d8-d911bf6d46bf"
 
        class=" pinlabel__body"
 
     transform="
        translate(66 -13.0) 
        scale(1 1)
        rotate(0)
    " 
    width="80" 
    height="26" 
    shape-rendering="geometricPrecision"
    rx="3" 
    ry="3" 
/><text
    class="pinlabel__text"
    transform="
        translate(106.0 0) 
        scale(-1 1)
        rotate(0)
    "  
>
    VBAT
</text>
</g>
</g><g 
    transform="
        translate(0 0) 
        scale(1 1)
        rotate(0)
    "
>
        <g 
        class=" pinlabel pwr"
    transform="
        translate(0.0 30.0) 
        scale(-1 1)
        rotate(0)
    "
>
        <path 
    class="pinlabel__leader" 
    transform="
        scale(1 1) 
        translate(0 0) 
        rotate(0)
    " 
    d="M 0.0 0.0 L 8.25 0.0 C 33.0 0.0 33.0 0.0 57.75 0.0 L 66.0 0.0" 
    shape-rendering="geometricPrecision"
/><rect
    id="bf511d29-8572-4a2b-964b-ca94262732f3"
 
        class=" pinlabel__body"
 
     transform="
        translate(66.0 -13.0) 
        scale(1 1)
        rotate(0)
    " 
    width="80" 
    height="26" 
    shape-rendering="geometricPrecision"
    rx="3" 
    ry="3" 
/><text
    class="pinlabel__text"
    transform="
        translate(106.0 0.0) 
        scale(-1 1)
        rotate(0)
    "  
>
    3.3V
</text>
</g>
</g><g 
    transform="
        translate(0 0) 
        scale(1 1)
        rotate(0)
    "
>
        <g 
        class=" pinlabel gnd"
    transform="
        translate(0.0 60.0) 
        scale(-1 1)
        rotate(0)
    "
>
        <path 
    class="pinlabel__leader" 
    transform="
        scale(1 1) 
        translate(0 0) 
        rotate(0)
    " 
    d="M 0.0 0.0 L 8.25 0.0 C 33.0 0.0 33.0 0.0 57.75 0.0 L 66.0 0.0" 
    shape-rendering="geometricPrecision"
/><rect
    id="418d32e9-8ce7-4136-bffb-4c239ac5a85f"
 
        class=" pinlabel__body"
 
     transform="
        translate(66.0 -13.0) 
        scale(1 1)
        rotate(0)
    " 
    width="80" 
    height="26" 
    shape-rendering="geometricPrecision"
    rx="3" 
    ry="3" 
/><text
    class="pinlabel__text"
    transform="
        translate(106.0 0.0) 
        scale(-1 1)
        rotate(0)
    "  
>
    GND
</text>
</g>
</g><g 
    transform="
        translate(0 0) 
        scale(1 1)
        rotate(0)
    "
>
        <g 
        class=" pinlabel pwr"
    transform="
        translate(0.0 90.0) 
        scale(-1 1)
        rotate(0)
    "
>
        <path 
    class="pinlabel__leader" 
    transform="
        scale(1 1) 
        translate(0 0) 
        rotate(0)
    " 
    d="M 0.0 0.0 L 8.25 0.0 C 33.0 0.0 33.0 0.0 57.75 0.0 L 66.0 0.0" 
    shape-rendering="geometricPrecision"
/><rect
    id="07d0f997-b115-4b37-8b02-4d58698d75f3"
 
        class=" pinlabel__body"
 
     transform="
        translate(66.0 -13.0) 
        scale(1 1)
        rotate(0)
    " 
    width="80" 
    height="26" 
    shape-rendering="geometricPrecision"
    rx="3" 
    ry="3" 
/><text
    class="pinlabel__text"
    transform="
        translate(106.0 0.0) 
        scale(-1 1)
        rotate(0)
    "  
>
    AREF
</text>
</g>
</g>
</g>
</g>
</g><g 
        class="panel--info panel"
    transform="
        translate(2 442) 
        scale(1 1)
        rotate(0)
    "
>
        <rect
    id="3c909b72-ee5a-47f6-a62f-e8b5d892c1da"
 
        class="panel__outer"
 
     transform="
        translate(-2 -2) 
        scale(1 1)
        rotate(0)
    " 
    width="1020" 
    height="132" 
    shape-rendering="geometricPrecision"
/><rect
    id="555fd968-c305-4421-baef-ee082aa5744b"
 
        class="panel__inner"
 
     transform="
        translate(0 0) 
        scale(1 1)
        rotate(0)
    " 
    width="1016" 
    height="128" 
    shape-rendering="geometricPrecision"
/><g 
        class="panel title_block textblock"
    transform="
        translate(20 30) 
        scale(1 1)
        rotate(0)
    "
>
        <text
    class="textblock"
    transform="
        translate(0 0) 
        scale(1 1)
        rotate(0)
    "  
>
    <tspan class='h1'>Pinout sample: Section pull-out</tspan>
</text>
</g><g 
        class="panel text_block textblock"
    transform="
        translate(20 60) 
        scale(1 1)
        rotate(0)
    "
>
        <text
    class="textblock"
    transform="
        translate(0 0) 
        scale(1 1)
        rotate(0)
    "  
>
    Pinout is a Python tool kit to assist with documentation of electronic hardware.
</text><text
    class="textblock"
    transform="
        translate(0 18) 
        scale(1 1)
        rotate(0)
    "  
>
    This sample demonstrates documenting a section of hardware.
</text><text
    class="textblock"
    transform="
        translate(0 36) 
        scale(1 1)
        rotate(0)
    "  
>
    More info at <tspan class='italic strong'>pinout.readthedocs.io</tspan>
</text>
</g><g 
        class=" legend"
    transform="
        translate(640 8) 
        scale(1 1)
        rotate(0)
    "
>
        <g 
        class="analog legendentry"
    transform="
        translate(0 0) 
        scale(1 1)
        rotate(0)
    "
>
        <g 
        class=" swatch"
    transform="
        translate(4.0 14.0) 
        scale(1 1)
        rotate(0)
    "
>
        <rect
    id="dab88711-c8d9-4e15-9378-ff34579c9140"
 
        class=" swatch__body"
 
     transform="
        translate(0 -10.0) 
        scale(1 1)
        rotate(0)
    " 
    width="20" 
    height="20" 
    shape-rendering="geometricPrecision"
/>
</g><text
    transform="
        translate(28.0 14.0) 
        scale(1 1)
        rotate(0)
    "  
>
    Analog
</text>
</g><g 
        class="i2c legendentry"
    transform="
        translate(0 28.0) 
        scale(1 1)
        rotate(0)
    "
>
        <g 
        class=" swatch"
    transform="
        translate(4.0 14.0) 
        scale(1 1)
        rotate(0)
    "
>
        <rect
    id="49b989a0-1e81-4e66-8f5b-42b653133d28"
 
        class=" swatch__body"
 
     transform="
        translate(0 -10.0) 
        scale(1 1)
        rotate(0)
    " 
    width="20" 
    height="20" 
    shape-rendering="geometricPrecision"
/>
</g><text
    transform="
        translate(28.0 14.0) 
        scale(1 1)
        rotate(0)
    "  
>
    I2C
</text>
</g><g 
        class="gpio legendentry"
    transform="
        translate(0 56.0) 
        scale(1 1)
        rotate(0)
    "
>
        <g 
        class=" swatch"
    transform="
        translate(4.0 14.0) 
        scale(1 1)
        rotate(0)
    "
>
        <rect
    id="0c882461-ffa7-48b6-b51d-3cd158c6cb09"
 
        class=" swatch__body"
 
     transform="
        translate(0 -10.0) 
        scale(1 1)
        rotate(0)
    " 
    width="20" 
    height="20" 
    shape-rendering="geometricPrecision"
/>
</g><text
    transform="
        translate(28.0 14.0) 
        scale(1 1)
        rotate(0)
    "  
>
    GPIO
</text>
</g><g 
        class="touch legendentry"
    transform="
        translate(0 84.0) 
        scale(1 1)
        rotate(0)
    "
>
        <g 
        class=" swatch"
    transform="
        translate(4.0 14.0) 
        scale(1 1)
        rotate(0)
    "
>
        <rect
    id="699c9a4d-1aba-44f3-91fb-07241d471c07"
 
        class=" swatch__body"
 
     transform="
        translate(0 -10.0) 
        scale(1 1)
        rotate(0)
    " 
    width="20" 
    height="20" 
    shape-rendering="geometricPrecision"
/>
</g><text
    transform="
        translate(28.0 14.0) 
        scale(1 1)
        rotate(0)
    "  
>
    Touch
</text>
</g><g 
        class="pwm legendentry"
    transform="
        translate(159.0 0) 
        scale(1 1)
        rotate(0)
    "
>
        <g 
        class=" swatch"
    transform="
        translate(4.0 14.0) 
        scale(1 1)
        rotate(0)
    "
>
        <rect
    id="4d22955e-f975-48cf-80f0-4da7f7f8bc03"
 
        class=" swatch__body"
 
     transform="
        translate(0 -10.0) 
        scale(1 1)
        rotate(0)
    " 
    width="20" 
    height="20" 
    shape-rendering="geometricPrecision"
/>
</g><text
    transform="
        translate(28.0 14.0) 
        scale(1 1)
        rotate(0)
    "  
>
    PWM
</text>
</g><g 
        class="pwr legendentry"
    transform="
        translate(159.0 28.0) 
        scale(1 1)
        rotate(0)
    "
>
        <g 
        class=" swatch"
    transform="
        translate(4.0 14.0) 
        scale(1 1)
        rotate(0)
    "
>
        <rect
    id="c219c794-dfa2-4226-ab48-ae551ca0409c"
 
        class=" swatch__body"
 
     transform="
        translate(0 -10.0) 
        scale(1 1)
        rotate(0)
    " 
    width="20" 
    height="20" 
    shape-rendering="geometricPrecision"
/>
</g><text
    transform="
        translate(28.0 14.0) 
        scale(1 1)
        rotate(0)
    "  
>
    Power
</text>
</g><g 
        class="gnd legendentry"
    transform="
        translate(159.0 56.0) 
        scale(1 1)
        rotate(0)
    "
>
        <g 
        class=" swatch"
    transform="
        translate(4.0 14.0) 
        scale(1 1)
        rotate(0)
    "
>
        <rect
    id="11f63901-0282-47d6-89fd-e9989b315bed"
 
        class=" swatch__body"
 
     transform="
        translate(0 -10.0) 
        scale(1 1)
        rotate(0)
    " 
    width="20" 
    height="20" 
    shape-rendering="geometricPrecision"
/>
</g><text
    transform="
        translate(28.0 14.0) 
        scale(1 1)
        rotate(0)
    "  
>
    Ground
</text>
</g>
</g>
</g>
</g>
    
</svg>