
<svg  
    xmlns="http://www.w3.org/2000/svg" 
    xmlns:xlink="http://www.w3.org/1999/xlink"
    x="0"
    y="0"
    width="1024" 
    height="576" 
    viewBox="0 0 1024 576"
    class="diagram"
>

<defs>
    <image 
    id="5021f536-ffa0-4a78-bf0e-de774d790309"
 
    transform="
        translate(0 0) 
        scale(1 1)
        rotate(0)
    "
    href="hardware_18pin.png" 
    xlink:href="hardware_18pin.png" 
    height="300" 
    width="220"
/>
<clipPath 
    transform="
        translate(0 0) 
        scale(1 1)
        rotate(0)
    "
    id="ede54ed6-c2d8-4b30-b0dc-6b32320f9e75"
    clipPathUnits="userSpaceOnUse"
>
    <rect
    id="a3ce49f7-7f65-4798-9931-1ca80f6e4bc5"
 
     transform="
        translate(0 0) 
        scale(1 1)
        rotate(0)
    " 
    width="40" 
    height="110" 
    shape-rendering="geometricPrecision"
/>
</clipPath>
</defs>


    <style type="text/css" media="screen">  
    <![CDATA[  
    text {
    font-family: Verdana, Georgia, sans-serif;
    font-size: 14px;
    font-weight: normal;
}

.pinlabel__leader{
    stroke-width: 2;
    fill: none;
}

.pinlabel__text{
    dominant-baseline: central;
    fill: #fff;
    font-weight: bold;
    stroke-width: 0;
    text-anchor: middle;
}

.pwr .pinlabel__body{
    fill: rgb(173, 0, 0);
}
.pwr .pinlabel__leader{
    stroke: rgb(173, 0, 0);
}
.pwr .swatch__body {
    fill: rgb(173, 0, 0);
}
.i2c .pinlabel__body{
    fill: rgb(182, 69, 176);
}
.i2c .pinlabel__leader{
    stroke: rgb(182, 69, 176);
}
.i2c .swatch__body {
    fill: rgb(182, 69, 176);
}
.gpio .pinlabel__body{
    fill: rgb(160, 133, 26);
}
.gpio .pinlabel__leader{
    stroke: rgb(160, 133, 26);
}
.gpio .swatch__body {
    fill: rgb(160, 133, 26);
}
.analog .pinlabel__body{
    fill: rgb(32, 150, 165);
}
.analog .pinlabel__leader{
    stroke: rgb(32, 150, 165);
}
.analog .swatch__body {
    fill: rgb(32, 150, 165);
}
.gnd .pinlabel__body{
    fill: rgb(0, 0, 0);
}
.gnd .pinlabel__leader{
    stroke: rgb(0, 0, 0);
}
.gnd .swatch__body {
    fill: rgb(0, 0, 0);
}
.pwm .pinlabel__body{
    fill: rgb(151, 76, 23);
}
.pwm .pinlabel__leader{
    stroke: rgb(151, 76, 23);
}
.pwm .swatch__body {
    fill: rgb(151, 76, 23);
}
.touch .pinlabel__body{
    fill: rgb(230, 87, 10);
}
.touch .pinlabel__leader{
    stroke: rgb(230, 87, 10);
}
.touch .swatch__body {
    fill: rgb(230, 87, 10);
}

.panel__inner {
    fill: #fff;
}
.panel__outer {
    fill: #333;
}

.legendentry text {
    dominant-baseline: central;
}

.h1 {
    font-size: 26px;
    font-weight: bold;
    font-style: italic;
}
.italic{
    font-style: italic;
}
.strong{
    font-weight: bold;
}

.panel--info .panel__inner{
    
    fill: #f4f4f4;
}


.annotation__body {
    fill: rgb(253, 203, 36);
}
.annotation__text text {
    dominant-baseline: central;
    font-size: 18px;
    font-weight: bold;
    text-anchor: middle;
}
.annotation__target {
    fill: none;
    stroke: rgb(253, 203, 36);
    stroke-width: 4px;
}
.annotation__leaderline {
    stroke: rgb(253, 203, 36);
    stroke-width: 4px;
    fill: none;
}
.section_title{
    font-size: 20px;
    font-weight: bold;
}
    ]]>  
</style>
<g 
        class=" panel"
    transform="
        translate(2 2) 
        scale(1 1)
        rotate(0)
    "
>
        <rect
    id="def2ccae-0cee-42ac-a8b5-d519b69db2c9"
 
        class="panel__outer"
 
     transform="
        translate(-2 -2) 
        scale(1 1)
        rotate(0)
    " 
    width="1024" 
    height="576" 
    shape-rendering="geometricPrecision"
/><rect
    id="d7349301-6ec1-4be4-953f-09599488fbdb"
 
        class="panel__inner"
 
     transform="
        translate(0 0) 
        scale(1 1)
        rotate(0)
    " 
    width="1020" 
    height="572" 
    shape-rendering="geometricPrecision"
/><g 
        class="panel--main panel"
    transform="
        translate(2 2) 
        scale(1 1)
        rotate(0)
    "
>
        <rect
    id="ae779f7a-d2a1-4185-81ad-f3f26b8b0371"
 
        class="panel__outer"
 
     transform="
        translate(-2 -2) 
        scale(1 1)
        rotate(0)
    " 
    width="340" 
    height="440" 
    shape-rendering="geometricPrecision"
/><rect
    id="ec757741-1733-4004-b28d-b6927707c3a5"
 
        class="panel__inner"
 
     transform="
        translate(0 0) 
        scale(1 1)
        rotate(0)
    " 
    width="336" 
    height="436" 
    shape-rendering="geometricPrecision"
/><g 
    transform="
        translate(170 20) 
        scale(1 1)
        rotate(0)
    "
>
        <g 
    transform="
        translate(0 0) 
        scale(1 1)
        rotate(0)
    "
>
        <use
    id="bda28a4d-0fb8-4c48-a92c-0092c4674f43"
 
    
     transform="
        translate(-110.0 0.0) 
        scale(1.0 1.0)
        rotate(0)
    " 

    href="#5021f536-ffa0-4a78-bf0e-de774d790309"
    
/>

</g><g 
        class=" annotation"
    transform="
        translate(0.0 268.0) 
        scale(-1 1)
        rotate(0)
    "
>
        <path 
    class="annotation__leaderline" 
    transform="
        scale(1 1) 
        translate(0 0) 
        rotate(0)
    " 
    d="M 0.0 40.0 L 0.0 51.666666666666664 A 33.333333333333336 33.333333333333336 0 0 0 33.333333333333336 85.0 L 20.0 85.0" 
    shape-rendering="geometricPrecision"
/><rect
    id="e4c410d8-42f0-4ae8-afc2-8c13080cfb51"
 
        class="annotation__target"
 
     transform="
        translate(-120 -40) 
        scale(1 1)
        rotate(0)
    " 
    width="240" 
    height="80" 
    shape-rendering="geometricPrecision"
    rx="10" 
    ry="10" 
/><rect
    id="77811f00-d61c-4849-b9f2-2703c0f17986"
 
        class="annotation__body"
 
     transform="
        translate(20 60) 
        scale(1 1)
        rotate(0)
    " 
    width="120" 
    height="50" 
    shape-rendering="geometricPrecision"
    rx="25" 
    ry="25" 
/><g 
        class="annotation__text textblock"
    transform="
        translate(80.0 85.0) 
        scale(-1 1)
        rotate(0)
    "
>
        <text
    class="textblock"
    transform="
        translate(0 0) 
        scale(1 1)
        rotate(0)
    "  
>
    Section A
</text>
</g>
</g>
</g>
</g><g 
        class="panel--detail panel"
    transform="
        translate(342 2) 
        scale(1 1)
        rotate(0)
    "
>
        <rect
    id="ab50aa8c-2752-47f8-ac01-40f3a67e52d9"
 
        class="panel__outer"
 
     transform="
        translate(-2 -2) 
        scale(1 1)
        rotate(0)
    " 
    width="680" 
    height="440" 
    shape-rendering="geometricPrecision"
/><rect
    id="2e132594-4918-4689-900d-26dc489ac8b6"
 
        class="panel__inner"
 
     transform="
        translate(0 0) 
        scale(1 1)
        rotate(0)
    " 
    width="676" 
    height="436" 
    shape-rendering="geometricPrecision"
/><g 
        class=" textblock"
    transform="
        translate(20 40) 
        scale(1 1)
        rotate(0)
    "
>
        <text
    class="textblock"
    transform="
        translate(0 0) 
        scale(1 1)
        rotate(0)
    "  
>
    <tspan class='section_title'>Section A</tspan>
</text><text
    class="textblock"
    transform="
        translate(0 22) 
        scale(1 1)
        rotate(0)
    "  
>
    Detail of double row header.
</text>
</g><g 
        class="graphic-detail"
    transform="
        translate(279.25 150.25) 
        scale(1 1)
        rotate(0)
    "
>
        <g 
        clip-path="url(#ede54ed6-c2d8-4b30-b0dc-6b32320f9e75)"
    transform="
        translate(0 0) 
        scale(1 1)
        rotate(0)
    "
>
        <use
    id="76b92d32-2221-42e7-80b6-c5a1cd73b4b1"
 
    
     transform="
        translate(150.0 0.0) 
        scale(0.5 0.5)
        rotate(90)
    " 

    href="#5021f536-ffa0-4a78-bf0e-de774d790309"
    
/>

</g><g 
    transform="
        translate(23.5 32.50000000000001) 
        scale(1 1)
        rotate(0)
    "
>
        <g 
    transform="
        translate(0 0) 
        scale(1 1)
        rotate(0)
    "
>
        <g 
        class=" pinlabel analog"
    transform="
        translate(0 0) 
        scale(1 1)
        rotate(0)
    "
>
        <path 
    class="pinlabel__leader" 
    transform="
        scale(1 1) 
        translate(0 0) 
        rotate(0)
    " 
    d="M 0.0 0.0 L 8.25 0.0 C 33.0 0.0 33.0 0.0 57.75 0.0 L 66 0.0" 
    shape-rendering="geometricPrecision"
/><rect
    id="112ca832-daa7-47aa-9e4b-b123175378f6"
 
        class=" pinlabel__body"
 
     transform="
        translate(66 -13.0) 
        scale(1 1)
        rotate(0)
    " 
    width="80" 
    height="26" 
    shape-rendering="geometricPrecision"
    rx="3" 
    ry="3" 
/><text
    class="pinlabel__text"
    transform="
        translate(106.0 0) 
        scale(1 1)
        rotate(0)
    "  
>
    A2
</text>
</g><g 
        class=" pinlabel touch"
    transform="
        translate(146.0 0) 
        scale(1 1)
        rotate(0)
    "
>
        <path 
    class="pinlabel__leader" 
    transform="
        scale(1 1) 
        translate(0 0) 
        rotate(0)
    " 
    d="" 
    shape-rendering="geometricPrecision"
/><rect
    id="f0ad82fb-4723-406e-8ccc-0d43cb24f8b1"
 
        class=" pinlabel__body"
 
     transform="
        translate(6 -13.0) 
        scale(1 1)
        rotate(0)
    " 
    width="80" 
    height="26" 
    shape-rendering="geometricPrecision"
    rx="3" 
    ry="3" 
/><text
    class="pinlabel__text"
    transform="
        translate(46.0 0) 
        scale(1 1)
        rotate(0)
    "  
>
    TOUCH
</text>
</g>
</g><g 
    transform="
        translate(0 0) 
        scale(1 1)
        rotate(0)
    "
>
        <g 
        class=" pinlabel pwm"
    transform="
        translate(0.0 15.0) 
        scale(1 1)
        rotate(0)
    "
>
        <path 
    class="pinlabel__leader" 
    transform="
        scale(1 1) 
        translate(0 0) 
        rotate(0)
    " 
    d="M 0.0 0.0 L 8.25 0.0 C 33.0 0.0 33.0 15.0 57.75 15.0 L 66.0 15.0" 
    shape-rendering="geometricPrecision"
/><rect
    id="2960d144-ab4b-44d8-b040-7be16062621c"
 
        class=" pinlabel__body"
 
     transform="
        translate(66.0 2.0) 
        scale(1 1)
        rotate(0)
    " 
    width="80" 
    height="26" 
    shape-rendering="geometricPrecision"
    rx="3" 
    ry="3" 
/><text
    class="pinlabel__text"
    transform="
        translate(106.0 15.0) 
        scale(1 1)
        rotate(0)
    "  
>
    PWM
</text>
</g>
</g><g 
    transform="
        translate(0 0) 
        scale(1 1)
        rotate(0)
    "
>
        <g 
        class=" pinlabel gpio"
    transform="
        translate(0.0 30.0) 
        scale(1 1)
        rotate(0)
    "
>
        <path 
    class="pinlabel__leader" 
    transform="
        scale(1 1) 
        translate(0 0) 
        rotate(0)
    " 
    d="M 0.0 0.0 L 8.25 0.0 C 33.0 0.0 33.0 30.0 57.75 30.0 L 66.0 30.0" 
    shape-rendering="geometricPrecision"
/><rect
    id="0f6fbfa6-1d5f-4af1-a340-7b76733c033e"
 
        class=" pinlabel__body"
 
     transform="
        translate(66.0 17.0) 
        scale(1 1)
        rotate(0)
    " 
    width="80" 
    height="26" 
    shape-rendering="geometricPrecision"
    rx="3" 
    ry="3" 
/><text
    class="pinlabel__text"
    transform="
        translate(106.0 30.0) 
        scale(1 1)
        rotate(0)
    "  
>
    6
</text>
</g><g 
        class=" pinlabel i2c"
    transform="
        translate(146.0 60.0) 
        scale(1 1)
        rotate(0)
    "
>
        <path 
    class="pinlabel__leader" 
    transform="
        scale(1 1) 
        translate(0 0) 
        rotate(0)
    " 
    d="" 
    shape-rendering="geometricPrecision"
/><rect
    id="87ce3984-55ce-41e2-aceb-2c2a56cc971f"
 
        class=" pinlabel__body"
 
     transform="
        translate(6 -13.0) 
        scale(1 1)
        rotate(0)
    " 
    width="80" 
    height="26" 
    shape-rendering="geometricPrecision"
    rx="3" 
    ry="3" 
/><text
    class="pinlabel__text"
    transform="
        translate(46.0 0) 
        scale(1 1)
        rotate(0)
    "  
>
    SDA1
</text>
</g>
</g><g 
    transform="
        translate(0 0) 
        scale(1 1)
        rotate(0)
    "
>
        <g 
        class=" pinlabel analog"
    transform="
        translate(0.0 45.0) 
        scale(1 1)
        rotate(0)
    "
>
        <path 
    class="pinlabel__leader" 
    transform="
        scale(1 1) 
        translate(0 0) 
        rotate(0)
    " 
    d="M 0.0 0.0 L 8.25 0.0 C 33.0 0.0 33.0 45.0 57.75 45.0 L 66.0 45.0" 
    shape-rendering="geometricPrecision"
/><rect
    id="187f2a6d-b674-4a0e-95d1-87de8b3eaa56"
 
        class=" pinlabel__body"
 
     transform="
        translate(66.0 32.0) 
        scale(1 1)
        rotate(0)
    " 
    width="80" 
    height="26" 
    shape-rendering="geometricPrecision"
    rx="3" 
    ry="3" 
/><text
    class="pinlabel__text"
    transform="
        translate(106.0 45.0) 
        scale(1 1)
        rotate(0)
    "  
>
    A5
</text>
</g><g 
        class=" pinlabel i2c"
    transform="
        translate(146.0 90.0) 
        scale(1 1)
        rotate(0)
    "
>
        <path 
    class="pinlabel__leader" 
    transform="
        scale(1 1) 
        translate(0 0) 
        rotate(0)
    " 
    d="" 
    shape-rendering="geometricPrecision"
/><rect
    id="23d0b3f2-1e4f-4dfa-9ef5-480f1f4c9127"
 
        class=" pinlabel__body"
 
     transform="
        translate(6 -13.0) 
        scale(1 1)
        rotate(0)
    " 
    width="80" 
    height="26" 
    shape-rendering="geometricPrecision"
    rx="3" 
    ry="3" 
/><text
    class="pinlabel__text"
    transform="
        translate(46.0 0) 
        scale(1 1)
        rotate(0)
    "  
>
    SCL1
</text>
</g>
</g>
</g><g 
    transform="
        translate(8.0 32.50000000000001) 
        scale(1 1)
        rotate(0)
    "
>
        <g 
    transform="
        translate(0 0) 
        scale(1 1)
        rotate(0)
    "
>
        <g 
        class=" pinlabel pwr"
    transform="
        translate(0 0) 
        scale(-1 1)
        rotate(0)
    "
>
        <path 
    class="pinlabel__leader" 
    transform="
        scale(1 1) 
        translate(0 0) 
        rotate(0)
    " 
    d="M 0.0 0.0 L 8.25 0.0 C 33.0 0.0 33.0 0.0 57.75 0.0 L 66 0.0" 
    shape-rendering="geometricPrecision"
/><rect
    id="7c225437-4a01-423c-8576-a09b096da85a"
 
        class=" pinlabel__body"
 
     transform="
        translate(66 -13.0) 
        scale(1 1)
        rotate(0)
    " 
    width="80" 
    height="26" 
    shape-rendering="geometricPrecision"
    rx="3" 
    ry="3" 
/><text
    class="pinlabel__text"
    transform="
        translate(106.0 0) 
        scale(-1 1)
        rotate(0)
    "  
>
    VBAT
</text>
</g>
</g><g 
    transform="
        translate(0 0) 
        scale(1 1)
        rotate(0)
    "
>
        <g 
        class=" pinlabel pwr"
    transform="
        translate(0.0 15.0) 
        scale(-1 1)
        rotate(0)
    "
>
        <path 
    class="pinlabel__leader" 
    transform="
        scale(1 1) 
        translate(0 0) 
        rotate(0)
    " 
    d="M 0.0 0.0 L 8.25 0.0 C 33.0 0.0 33.0 15.0 57.75 15.0 L 66.0 15.0" 
    shape-rendering="geometricPrecision"
/><rect
    id="a4ae9357-5e51-45e5-978d-35d45c452ad5"
 
        class=" pinlabel__body"
 
     transform="
        translate(66.0 2.0) 
        scale(1 1)
        rotate(0)
    " 
    width="80" 
    height="26" 
    shape-rendering="geometricPrecision"
    rx="3" 
    ry="3" 
/><text
    class="pinlabel__text"
    transform="
        translate(106.0 15.0) 
        scale(-1 1)
        rotate(0)
    "  
>
    3.3V
</text>
</g>
</g><g 
    transform="
        translate(0 0) 
        scale(1 1)
        rotate(0)
    "
>
        <g 
        class=" pinlabel gnd"
    transform="
        translate(0.0 30.0) 
        scale(-1 1)
        rotate(0)
    "
>
        <path 
    class="pinlabel__leader" 
    transform="
        scale(1 1) 
        translate(0 0) 
        rotate(0)
    " 
    d="M 0.0 0.0 L 8.25 0.0 C 33.0 0.0 33.0 30.0 57.75 30.0 L 66.0 30.0" 
    shape-rendering="geometricPrecision"
/><rect
    id="aea40b48-a0c4-42e3-88ce-0fd60f29e049"
 
        class=" pinlabel__body"
 
     transform="
        translate(66.0 17.0) 
        scale(1 1)
        rotate(0)
    " 
    width="80" 
    height="26" 
    shape-rendering="geometricPrecision"
    rx="3" 
    ry="3" 
/><text
    class="pinlabel__text"
    transform="
        translate(106.0 30.0) 
        scale(-1 1)
        rotate(0)
    "  
>
    GND
</text>
</g>
</g><g 
    transform="
        translate(0 0) 
        scale(1 1)
        rotate(0)
    "
>
        <g 
        class=" pinlabel pwr"
    transform="
        translate(0.0 45.0) 
        scale(-1 1)
        rotate(0)
    "
>
        <path 
    class="pinlabel__leader" 
    transform="
        scale(1 1) 
        translate(0 0) 
        rotate(0)
    " 
    d="M 0.0 0.0 L 8.25 0.0 C 33.0 0.0 33.0 45.0 57.75 45.0 L 66.0 45.0" 
    shape-rendering="geometricPrecision"
/><rect
    id="2ceb626b-4fe0-402d-91b0-adae7d5af1ce"
 
        class=" pinlabel__body"
 
     transform="
        translate(66.0 32.0) 
        scale(1 1)
        rotate(0)
    " 
    width="80" 
    height="26" 
    shape-rendering="geometricPrecision"
    rx="3" 
    ry="3" 
/><text
    class="pinlabel__text"
    transform="
        translate(106.0 45.0) 
        scale(-1 1)
        rotate(0)
    "  
>
    AREF
</text>
</g>
</g>
</g>
</g>
</g><g 
        class="panel--info panel"
    transform="
        translate(2 442) 
        scale(1 1)
        rotate(0)
    "
>
        <rect
    id="9c91b165-cded-42d5-b454-c5fc0910ce8e"
 
        class="panel__outer"
 
     transform="
        translate(-2 -2) 
        scale(1 1)
        rotate(0)
    " 
    width="1020" 
    height="132" 
    shape-rendering="geometricPrecision"
/><rect
    id="6fd0980f-7355-4819-9069-210057df75a5"
 
        class="panel__inner"
 
     transform="
        translate(0 0) 
        scale(1 1)
        rotate(0)
    " 
    width="1016" 
    height="128" 
    shape-rendering="geometricPrecision"
/><g 
        class="panel title_block textblock"
    transform="
        translate(20 30) 
        scale(1 1)
        rotate(0)
    "
>
        <text
    class="textblock"
    transform="
        translate(0 0) 
        scale(1 1)
        rotate(0)
    "  
>
    <tspan class='h1'>Pinout sample: Section pull-out</tspan>
</text>
</g><g 
        class="panel text_block textblock"
    transform="
        translate(20 60) 
        scale(1 1)
        rotate(0)
    "
>
        <text
    class="textblock"
    transform="
        translate(0 0) 
        scale(1 1)
        rotate(0)
    "  
>
    Pinout is a Python tool kit to assist with documentation of electronic hardware.
</text><text
    class="textblock"
    transform="
        translate(0 18) 
        scale(1 1)
        rotate(0)
    "  
>
    This sample demonstrates documenting a section of hardware.
</text><text
    class="textblock"
    transform="
        translate(0 36) 
        scale(1 1)
        rotate(0)
    "  
>
    More info at <tspan class='italic strong'>pinout.readthedocs.io</tspan>
</text>
</g><g 
        class=" legend"
    transform="
        translate(640 8) 
        scale(1 1)
        rotate(0)
    "
>
        <g 
        class="analog legendentry"
    transform="
        translate(0 0) 
        scale(1 1)
        rotate(0)
    "
>
        <g 
        class=" swatch"
    transform="
        translate(4.0 14.0) 
        scale(1 1)
        rotate(0)
    "
>
        <rect
    id="8a48ab8e-0eac-41eb-b4c6-633230c05ed3"
 
        class=" swatch__body"
 
     transform="
        translate(0 -10.0) 
        scale(1 1)
        rotate(0)
    " 
    width="20" 
    height="20" 
    shape-rendering="geometricPrecision"
/>
</g><text
    transform="
        translate(28.0 14.0) 
        scale(1 1)
        rotate(0)
    "  
>
    Analog
</text>
</g><g 
        class="i2c legendentry"
    transform="
        translate(0 28.0) 
        scale(1 1)
        rotate(0)
    "
>
        <g 
        class=" swatch"
    transform="
        translate(4.0 14.0) 
        scale(1 1)
        rotate(0)
    "
>
        <rect
    id="3a5b4210-fa16-46c5-ad56-e242398f40d3"
 
        class=" swatch__body"
 
     transform="
        translate(0 -10.0) 
        scale(1 1)
        rotate(0)
    " 
    width="20" 
    height="20" 
    shape-rendering="geometricPrecision"
/>
</g><text
    transform="
        translate(28.0 14.0) 
        scale(1 1)
        rotate(0)
    "  
>
    I2C
</text>
</g><g 
        class="gpio legendentry"
    transform="
        translate(0 56.0) 
        scale(1 1)
        rotate(0)
    "
>
        <g 
        class=" swatch"
    transform="
        translate(4.0 14.0) 
        scale(1 1)
        rotate(0)
    "
>
        <rect
    id="3fb0b428-fa0b-46e3-a915-d40a8dafb395"
 
        class=" swatch__body"
 
     transform="
        translate(0 -10.0) 
        scale(1 1)
        rotate(0)
    " 
    width="20" 
    height="20" 
    shape-rendering="geometricPrecision"
/>
</g><text
    transform="
        translate(28.0 14.0) 
        scale(1 1)
        rotate(0)
    "  
>
    GPIO
</text>
</g><g 
        class="touch legendentry"
    transform="
        translate(0 84.0) 
        scale(1 1)
        rotate(0)
    "
>
        <g 
        class=" swatch"
    transform="
        translate(4.0 14.0) 
        scale(1 1)
        rotate(0)
    "
>
        <rect
    id="409cee33-b967-459b-a0c0-be5fc6a61b61"
 
        class=" swatch__body"
 
     transform="
        translate(0 -10.0) 
        scale(1 1)
        rotate(0)
    " 
    width="20" 
    height="20" 
    shape-rendering="geometricPrecision"
/>
</g><text
    transform="
        translate(28.0 14.0) 
        scale(1 1)
        rotate(0)
    "  
>
    Touch
</text>
</g><g 
        class="pwm legendentry"
    transform="
        translate(159.0 0) 
        scale(1 1)
        rotate(0)
    "
>
        <g 
        class=" swatch"
    transform="
        translate(4.0 14.0) 
        scale(1 1)
        rotate(0)
    "
>
        <rect
    id="2f9f692f-9e57-4794-9784-08c08fd34763"
 
        class=" swatch__body"
 
     transform="
        translate(0 -10.0) 
        scale(1 1)
        rotate(0)
    " 
    width="20" 
    height="20" 
    shape-rendering="geometricPrecision"
/>
</g><text
    transform="
        translate(28.0 14.0) 
        scale(1 1)
        rotate(0)
    "  
>
    PWM
</text>
</g><g 
        class="pwr legendentry"
    transform="
        translate(159.0 28.0) 
        scale(1 1)
        rotate(0)
    "
>
        <g 
        class=" swatch"
    transform="
        translate(4.0 14.0) 
        scale(1 1)
        rotate(0)
    "
>
        <rect
    id="d4cb84ff-b33c-4974-949c-b0083e612850"
 
        class=" swatch__body"
 
     transform="
        translate(0 -10.0) 
        scale(1 1)
        rotate(0)
    " 
    width="20" 
    height="20" 
    shape-rendering="geometricPrecision"
/>
</g><text
    transform="
        translate(28.0 14.0) 
        scale(1 1)
        rotate(0)
    "  
>
    Power
</text>
</g><g 
        class="gnd legendentry"
    transform="
        translate(159.0 56.0) 
        scale(1 1)
        rotate(0)
    "
>
        <g 
        class=" swatch"
    transform="
        translate(4.0 14.0) 
        scale(1 1)
        rotate(0)
    "
>
        <rect
    id="eb469616-4adb-4475-ba24-b36ad911e272"
 
        class=" swatch__body"
 
     transform="
        translate(0 -10.0) 
        scale(1 1)
        rotate(0)
    " 
    width="20" 
    height="20" 
    shape-rendering="geometricPrecision"
/>
</g><text
    transform="
        translate(28.0 14.0) 
        scale(1 1)
        rotate(0)
    "  
>
    Ground
</text>
</g>
</g>
</g>
</g>
    
</svg>