
<svg  
    xmlns="http://www.w3.org/2000/svg" 
    xmlns:xlink="http://www.w3.org/1999/xlink"
    x="0px"
    y="0px"
    width="1024px" 
    height="576px" 
    viewBox="0.0 0.0 1024.0 576.0"
    class="diagram"
>

<defs>
    <image 
        class="image"
transform="
    translate(0 0) 
    scale(1 1)
    rotate(0)
"
id="11f3e68a-4fcc-45fe-bde5-ed3e37d2b6e6_3"
clipPathUnits="userSpaceOnUse"
shape-rendering="geometricPrecision"    
    href="hardware_18pin.png" 
    xlink:href="hardware_18pin.png" 
    height="300" 
    width="220"
/><clipPath 
        class="group"
transform="
    translate(0 0) 
    scale(1 1)
    rotate(0)
"
id="11f3e68a-4fcc-45fe-bde5-ed3e37d2b6e6_23"
clipPathUnits="userSpaceOnUse"
shape-rendering="geometricPrecision">
    <rect

        class="rect"
transform="
    translate(0 0) 
    scale(1 1)
    rotate(0)
"
id="11f3e68a-4fcc-45fe-bde5-ed3e37d2b6e6_22"
clipPathUnits="userSpaceOnUse"
shape-rendering="geometricPrecision"    
    height="220" 
    width="80"
/>
</clipPath>
</defs>


    <link xmlns="http://www.w3.org/1999/xhtml" rel="stylesheet" href="styles.css" xlink:href="styles.css"  type="text/css"/>
<g 
        class="panel"
transform="
    translate(2 2) 
    scale(1 1)
    rotate(0)
"
id="11f3e68a-4fcc-45fe-bde5-ed3e37d2b6e6_4"
clipPathUnits="userSpaceOnUse"
shape-rendering="geometricPrecision">
        <rect

        class="panel__outer rect"
transform="
    translate(-2 -2) 
    scale(1 1)
    rotate(0)
"
id="11f3e68a-4fcc-45fe-bde5-ed3e37d2b6e6_120"
clipPathUnits="userSpaceOnUse"
shape-rendering="geometricPrecision"    
    height="576" 
    width="1024"
/><rect

        class="panel__inner rect"
transform="
    translate(0 0) 
    scale(1 1)
    rotate(0)
"
id="11f3e68a-4fcc-45fe-bde5-ed3e37d2b6e6_119"
clipPathUnits="userSpaceOnUse"
shape-rendering="geometricPrecision"    
    height="572" 
    width="1020"
/><g 
        class="panel panel--main"
transform="
    translate(2 2) 
    scale(1 1)
    rotate(0)
"
id="11f3e68a-4fcc-45fe-bde5-ed3e37d2b6e6_6"
clipPathUnits="userSpaceOnUse"
shape-rendering="geometricPrecision">
        <rect

        class="panel__outer rect"
transform="
    translate(-2 -2) 
    scale(1 1)
    rotate(0)
"
id="11f3e68a-4fcc-45fe-bde5-ed3e37d2b6e6_122"
clipPathUnits="userSpaceOnUse"
shape-rendering="geometricPrecision"    
    height="440" 
    width="340"
/><rect

        class="panel__inner rect"
transform="
    translate(0 0) 
    scale(1 1)
    rotate(0)
"
id="11f3e68a-4fcc-45fe-bde5-ed3e37d2b6e6_121"
clipPathUnits="userSpaceOnUse"
shape-rendering="geometricPrecision"    
    height="436" 
    width="336"
/><g 
        class="group"
transform="
    translate(60 20) 
    scale(1 1)
    rotate(0)
"
id="11f3e68a-4fcc-45fe-bde5-ed3e37d2b6e6_12"
clipPathUnits="userSpaceOnUse"
shape-rendering="geometricPrecision">
        <use
transform="
    translate(0 0) 
    scale(1 1)
    rotate(0)
"
id="11f3e68a-4fcc-45fe-bde5-ed3e37d2b6e6_13"
clipPathUnits="userSpaceOnUse"
shape-rendering="geometricPrecision"
    xlink:href="#11f3e68a-4fcc-45fe-bde5-ed3e37d2b6e6_3"
    href="#11f3e68a-4fcc-45fe-bde5-ed3e37d2b6e6_3"
    
/>
<g 
        class="annotation"
transform="
    translate(110.0 268.0) 
    scale(-1 1)
    rotate(0)
"
id="11f3e68a-4fcc-45fe-bde5-ed3e37d2b6e6_14"
clipPathUnits="userSpaceOnUse"
shape-rendering="geometricPrecision">
        <path 

        class="annotation__leaderline pinlabel__leader"
transform="
    translate(0 0) 
    scale(1 1)
    rotate(0)
"
id="11f3e68a-4fcc-45fe-bde5-ed3e37d2b6e6_15"
clipPathUnits="userSpaceOnUse"
shape-rendering="geometricPrecision"    
    d="M 0.0 40.0 L 0.0 55.0 A 35.0 35.0 0 0 0 35.0 90.0 L 20.0 90.0" 
/><rect

        class="annotation__target rect"
transform="
    translate(-120 -40) 
    scale(1 1)
    rotate(0)
"
id="11f3e68a-4fcc-45fe-bde5-ed3e37d2b6e6_17"
clipPathUnits="userSpaceOnUse"
shape-rendering="geometricPrecision"    
    height="80" 
    width="240"
    rx="10" 
    ry="10" 
/><rect

        class="annotation__body rect"
transform="
    translate(20 65.0) 
    scale(1 1)
    rotate(0)
"
id="11f3e68a-4fcc-45fe-bde5-ed3e37d2b6e6_16"
clipPathUnits="userSpaceOnUse"
shape-rendering="geometricPrecision"    
    height="50" 
    width="130"
    rx="25" 
    ry="25" 
/><g 
        class="annotation__text textblock"
transform="
    translate(134 82.0) 
    scale(-1 1)
    rotate(0)
"
id="11f3e68a-4fcc-45fe-bde5-ed3e37d2b6e6_18"
clipPathUnits="userSpaceOnUse"
shape-rendering="geometricPrecision">
        <text

        class="text textblock"
transform="
    translate(0 0) 
    scale(1 1)
    rotate(0)
"
id="11f3e68a-4fcc-45fe-bde5-ed3e37d2b6e6_123"
clipPathUnits="userSpaceOnUse"
shape-rendering="geometricPrecision">
    Section A
</text>
</g>
</g>
</g>
</g><g 
        class="panel panel--detail"
transform="
    translate(342 2) 
    scale(1 1)
    rotate(0)
"
id="11f3e68a-4fcc-45fe-bde5-ed3e37d2b6e6_8"
clipPathUnits="userSpaceOnUse"
shape-rendering="geometricPrecision">
        <rect

        class="panel__outer rect"
transform="
    translate(-2 -2) 
    scale(1 1)
    rotate(0)
"
id="11f3e68a-4fcc-45fe-bde5-ed3e37d2b6e6_125"
clipPathUnits="userSpaceOnUse"
shape-rendering="geometricPrecision"    
    height="440" 
    width="680"
/><rect

        class="panel__inner rect"
transform="
    translate(0 0) 
    scale(1 1)
    rotate(0)
"
id="11f3e68a-4fcc-45fe-bde5-ed3e37d2b6e6_124"
clipPathUnits="userSpaceOnUse"
shape-rendering="geometricPrecision"    
    height="436" 
    width="676"
/><g 
        class="textblock"
transform="
    translate(20 40) 
    scale(1 1)
    rotate(0)
"
id="11f3e68a-4fcc-45fe-bde5-ed3e37d2b6e6_19"
clipPathUnits="userSpaceOnUse"
shape-rendering="geometricPrecision">
        <text

        class="text textblock"
transform="
    translate(0 0) 
    scale(1 1)
    rotate(0)
"
id="11f3e68a-4fcc-45fe-bde5-ed3e37d2b6e6_126"
clipPathUnits="userSpaceOnUse"
shape-rendering="geometricPrecision">
    <tspan class='section_title'>Section A</tspan>
</text><text

        class="text textblock"
transform="
    translate(0 22) 
    scale(1 1)
    rotate(0)
"
id="11f3e68a-4fcc-45fe-bde5-ed3e37d2b6e6_127"
clipPathUnits="userSpaceOnUse"
shape-rendering="geometricPrecision">
    Detail of double row header.
</text>
</g><g 
        class="graphic-detail group"
transform="
    translate(263.5 108.0) 
    scale(1 1)
    rotate(0)
"
id="11f3e68a-4fcc-45fe-bde5-ed3e37d2b6e6_20"
clipPathUnits="userSpaceOnUse"
shape-rendering="geometricPrecision">
        <g 
        class="group"
    clip-path="url(#11f3e68a-4fcc-45fe-bde5-ed3e37d2b6e6_23)"
transform="
    translate(0 0) 
    scale(1 1)
    rotate(0)
"
id="11f3e68a-4fcc-45fe-bde5-ed3e37d2b6e6_128"
clipPathUnits="userSpaceOnUse"
shape-rendering="geometricPrecision">
        <use
        class="image"
transform="
    translate(300.0 0.0) 
    scale(1.0 1.0)
    rotate(90)
"
id="11f3e68a-4fcc-45fe-bde5-ed3e37d2b6e6_129"
clipPathUnits="userSpaceOnUse"
shape-rendering="geometricPrecision"
    xlink:href="#11f3e68a-4fcc-45fe-bde5-ed3e37d2b6e6_3"
    href="#11f3e68a-4fcc-45fe-bde5-ed3e37d2b6e6_3"
    
/>

</g><g 
        class="group"
transform="
    translate(47.0 65.00000000000001) 
    scale(1 1)
    rotate(0)
"
id="11f3e68a-4fcc-45fe-bde5-ed3e37d2b6e6_24"
clipPathUnits="userSpaceOnUse"
shape-rendering="geometricPrecision">
        <g 
        class="group"
transform="
    translate(0 0) 
    scale(1 1)
    rotate(0)
"
id="11f3e68a-4fcc-45fe-bde5-ed3e37d2b6e6_25"
clipPathUnits="userSpaceOnUse"
shape-rendering="geometricPrecision">
        <g 
        class="analog pinlabel"
transform="
    translate(0 0) 
    scale(1 1)
    rotate(0)
"
id="11f3e68a-4fcc-45fe-bde5-ed3e37d2b6e6_26"
clipPathUnits="userSpaceOnUse"
shape-rendering="geometricPrecision">
        <rect

        class="pinlabel__body rect"
transform="
    translate(66 -13.0) 
    scale(1 1)
    rotate(0)
"
id="11f3e68a-4fcc-45fe-bde5-ed3e37d2b6e6_132"
clipPathUnits="userSpaceOnUse"
shape-rendering="geometricPrecision"    
    height="26" 
    width="80"
    rx="3" 
    ry="3" 
/><text

        class="pinlabel__text text"
transform="
    translate(106.0 0) 
    scale(1 1)
    rotate(0)
"
id="11f3e68a-4fcc-45fe-bde5-ed3e37d2b6e6_130"
clipPathUnits="userSpaceOnUse"
shape-rendering="geometricPrecision">
    A2
</text><path 

        class="pinlabel pinlabel__leader"
transform="
    translate(0 0) 
    scale(1 1)
    rotate(0)
"
id="11f3e68a-4fcc-45fe-bde5-ed3e37d2b6e6_28"
clipPathUnits="userSpaceOnUse"
shape-rendering="geometricPrecision"    
    d="M 0.0 0.0 L 8.25 0.0 C 33.0 0.0 33.0 0.0 57.75 0.0 L 66 0.0" 
/>
</g><g 
        class="pinlabel touch"
transform="
    translate(146.0 0) 
    scale(1 1)
    rotate(0)
"
id="11f3e68a-4fcc-45fe-bde5-ed3e37d2b6e6_30"
clipPathUnits="userSpaceOnUse"
shape-rendering="geometricPrecision">
        <rect

        class="pinlabel__body rect"
transform="
    translate(6 -13.0) 
    scale(1 1)
    rotate(0)
"
id="11f3e68a-4fcc-45fe-bde5-ed3e37d2b6e6_135"
clipPathUnits="userSpaceOnUse"
shape-rendering="geometricPrecision"    
    height="26" 
    width="80"
    rx="3" 
    ry="3" 
/><text

        class="pinlabel__text text"
transform="
    translate(46.0 0) 
    scale(1 1)
    rotate(0)
"
id="11f3e68a-4fcc-45fe-bde5-ed3e37d2b6e6_133"
clipPathUnits="userSpaceOnUse"
shape-rendering="geometricPrecision">
    TOUCH
</text><path 

        class="pinlabel pinlabel__leader"
transform="
    translate(0 0) 
    scale(1 1)
    rotate(0)
"
id="11f3e68a-4fcc-45fe-bde5-ed3e37d2b6e6_34"
clipPathUnits="userSpaceOnUse"
shape-rendering="geometricPrecision"    
    d="M 0.0 0.0 L 6 0.0" 
/>
</g>
</g><g 
        class="group"
transform="
    translate(0 0) 
    scale(1 1)
    rotate(0)
"
id="11f3e68a-4fcc-45fe-bde5-ed3e37d2b6e6_35"
clipPathUnits="userSpaceOnUse"
shape-rendering="geometricPrecision">
        <g 
        class="pinlabel pwm"
transform="
    translate(0.0 30.0) 
    scale(1 1)
    rotate(0)
"
id="11f3e68a-4fcc-45fe-bde5-ed3e37d2b6e6_36"
clipPathUnits="userSpaceOnUse"
shape-rendering="geometricPrecision">
        <rect

        class="pinlabel__body rect"
transform="
    translate(66.0 -13.0) 
    scale(1 1)
    rotate(0)
"
id="11f3e68a-4fcc-45fe-bde5-ed3e37d2b6e6_138"
clipPathUnits="userSpaceOnUse"
shape-rendering="geometricPrecision"    
    height="26" 
    width="80"
    rx="3" 
    ry="3" 
/><text

        class="pinlabel__text text"
transform="
    translate(106.0 0.0) 
    scale(1 1)
    rotate(0)
"
id="11f3e68a-4fcc-45fe-bde5-ed3e37d2b6e6_136"
clipPathUnits="userSpaceOnUse"
shape-rendering="geometricPrecision">
    PWM
</text><path 

        class="pinlabel pinlabel__leader"
transform="
    translate(0 0) 
    scale(1 1)
    rotate(0)
"
id="11f3e68a-4fcc-45fe-bde5-ed3e37d2b6e6_38"
clipPathUnits="userSpaceOnUse"
shape-rendering="geometricPrecision"    
    d="M 0.0 0.0 L 8.25 0.0 C 33.0 0.0 33.0 0.0 57.75 0.0 L 66.0 0.0" 
/>
</g>
</g><g 
        class="group"
transform="
    translate(0 0) 
    scale(1 1)
    rotate(0)
"
id="11f3e68a-4fcc-45fe-bde5-ed3e37d2b6e6_40"
clipPathUnits="userSpaceOnUse"
shape-rendering="geometricPrecision">
        <g 
        class="gpio pinlabel"
transform="
    translate(0.0 60.0) 
    scale(1 1)
    rotate(0)
"
id="11f3e68a-4fcc-45fe-bde5-ed3e37d2b6e6_41"
clipPathUnits="userSpaceOnUse"
shape-rendering="geometricPrecision">
        <rect

        class="pinlabel__body rect"
transform="
    translate(66.0 -13.0) 
    scale(1 1)
    rotate(0)
"
id="11f3e68a-4fcc-45fe-bde5-ed3e37d2b6e6_141"
clipPathUnits="userSpaceOnUse"
shape-rendering="geometricPrecision"    
    height="26" 
    width="80"
    rx="3" 
    ry="3" 
/><text

        class="pinlabel__text text"
transform="
    translate(106.0 0.0) 
    scale(1 1)
    rotate(0)
"
id="11f3e68a-4fcc-45fe-bde5-ed3e37d2b6e6_139"
clipPathUnits="userSpaceOnUse"
shape-rendering="geometricPrecision">
    6
</text><path 

        class="pinlabel pinlabel__leader"
transform="
    translate(0 0) 
    scale(1 1)
    rotate(0)
"
id="11f3e68a-4fcc-45fe-bde5-ed3e37d2b6e6_43"
clipPathUnits="userSpaceOnUse"
shape-rendering="geometricPrecision"    
    d="M 0.0 0.0 L 8.25 0.0 C 33.0 0.0 33.0 0.0 57.75 0.0 L 66.0 0.0" 
/>
</g><g 
        class="i2c pinlabel"
transform="
    translate(146.0 60.0) 
    scale(1 1)
    rotate(0)
"
id="11f3e68a-4fcc-45fe-bde5-ed3e37d2b6e6_45"
clipPathUnits="userSpaceOnUse"
shape-rendering="geometricPrecision">
        <rect

        class="pinlabel__body rect"
transform="
    translate(6 -13.0) 
    scale(1 1)
    rotate(0)
"
id="11f3e68a-4fcc-45fe-bde5-ed3e37d2b6e6_144"
clipPathUnits="userSpaceOnUse"
shape-rendering="geometricPrecision"    
    height="26" 
    width="80"
    rx="3" 
    ry="3" 
/><text

        class="pinlabel__text text"
transform="
    translate(46.0 0) 
    scale(1 1)
    rotate(0)
"
id="11f3e68a-4fcc-45fe-bde5-ed3e37d2b6e6_142"
clipPathUnits="userSpaceOnUse"
shape-rendering="geometricPrecision">
    SDA1
</text><path 

        class="pinlabel pinlabel__leader"
transform="
    translate(0 0) 
    scale(1 1)
    rotate(0)
"
id="11f3e68a-4fcc-45fe-bde5-ed3e37d2b6e6_49"
clipPathUnits="userSpaceOnUse"
shape-rendering="geometricPrecision"    
    d="M 0.0 0.0 L 6 0.0" 
/>
</g>
</g><g 
        class="group"
transform="
    translate(0 0) 
    scale(1 1)
    rotate(0)
"
id="11f3e68a-4fcc-45fe-bde5-ed3e37d2b6e6_50"
clipPathUnits="userSpaceOnUse"
shape-rendering="geometricPrecision">
        <g 
        class="analog pinlabel"
transform="
    translate(0.0 90.0) 
    scale(1 1)
    rotate(0)
"
id="11f3e68a-4fcc-45fe-bde5-ed3e37d2b6e6_51"
clipPathUnits="userSpaceOnUse"
shape-rendering="geometricPrecision">
        <rect

        class="pinlabel__body rect"
transform="
    translate(66.0 -13.0) 
    scale(1 1)
    rotate(0)
"
id="11f3e68a-4fcc-45fe-bde5-ed3e37d2b6e6_147"
clipPathUnits="userSpaceOnUse"
shape-rendering="geometricPrecision"    
    height="26" 
    width="80"
    rx="3" 
    ry="3" 
/><text

        class="pinlabel__text text"
transform="
    translate(106.0 0.0) 
    scale(1 1)
    rotate(0)
"
id="11f3e68a-4fcc-45fe-bde5-ed3e37d2b6e6_145"
clipPathUnits="userSpaceOnUse"
shape-rendering="geometricPrecision">
    A5
</text><path 

        class="pinlabel pinlabel__leader"
transform="
    translate(0 0) 
    scale(1 1)
    rotate(0)
"
id="11f3e68a-4fcc-45fe-bde5-ed3e37d2b6e6_53"
clipPathUnits="userSpaceOnUse"
shape-rendering="geometricPrecision"    
    d="M 0.0 0.0 L 8.25 0.0 C 33.0 0.0 33.0 0.0 57.75 0.0 L 66.0 0.0" 
/>
</g><g 
        class="i2c pinlabel"
transform="
    translate(146.0 90.0) 
    scale(1 1)
    rotate(0)
"
id="11f3e68a-4fcc-45fe-bde5-ed3e37d2b6e6_55"
clipPathUnits="userSpaceOnUse"
shape-rendering="geometricPrecision">
        <rect

        class="pinlabel__body rect"
transform="
    translate(6 -13.0) 
    scale(1 1)
    rotate(0)
"
id="11f3e68a-4fcc-45fe-bde5-ed3e37d2b6e6_150"
clipPathUnits="userSpaceOnUse"
shape-rendering="geometricPrecision"    
    height="26" 
    width="80"
    rx="3" 
    ry="3" 
/><text

        class="pinlabel__text text"
transform="
    translate(46.0 0) 
    scale(1 1)
    rotate(0)
"
id="11f3e68a-4fcc-45fe-bde5-ed3e37d2b6e6_148"
clipPathUnits="userSpaceOnUse"
shape-rendering="geometricPrecision">
    SCL1
</text><path 

        class="pinlabel pinlabel__leader"
transform="
    translate(0 0) 
    scale(1 1)
    rotate(0)
"
id="11f3e68a-4fcc-45fe-bde5-ed3e37d2b6e6_59"
clipPathUnits="userSpaceOnUse"
shape-rendering="geometricPrecision"    
    d="M 0.0 0.0 L 6 0.0" 
/>
</g>
</g>
</g><g 
        class="group"
transform="
    translate(16.0 65.00000000000001) 
    scale(1 1)
    rotate(0)
"
id="11f3e68a-4fcc-45fe-bde5-ed3e37d2b6e6_60"
clipPathUnits="userSpaceOnUse"
shape-rendering="geometricPrecision">
        <g 
        class="group"
transform="
    translate(0 0) 
    scale(1 1)
    rotate(0)
"
id="11f3e68a-4fcc-45fe-bde5-ed3e37d2b6e6_61"
clipPathUnits="userSpaceOnUse"
shape-rendering="geometricPrecision">
        <g 
        class="pinlabel pwr"
transform="
    translate(0 0) 
    scale(-1 1)
    rotate(0)
"
id="11f3e68a-4fcc-45fe-bde5-ed3e37d2b6e6_62"
clipPathUnits="userSpaceOnUse"
shape-rendering="geometricPrecision">
        <rect

        class="pinlabel__body rect"
transform="
    translate(66 -13.0) 
    scale(1 1)
    rotate(0)
"
id="11f3e68a-4fcc-45fe-bde5-ed3e37d2b6e6_153"
clipPathUnits="userSpaceOnUse"
shape-rendering="geometricPrecision"    
    height="26" 
    width="80"
    rx="3" 
    ry="3" 
/><text

        class="pinlabel__text text"
transform="
    translate(106.0 0) 
    scale(-1 1)
    rotate(0)
"
id="11f3e68a-4fcc-45fe-bde5-ed3e37d2b6e6_151"
clipPathUnits="userSpaceOnUse"
shape-rendering="geometricPrecision">
    VBAT
</text><path 

        class="pinlabel pinlabel__leader"
transform="
    translate(0 0) 
    scale(1 1)
    rotate(0)
"
id="11f3e68a-4fcc-45fe-bde5-ed3e37d2b6e6_64"
clipPathUnits="userSpaceOnUse"
shape-rendering="geometricPrecision"    
    d="M 0.0 0.0 L 8.25 0.0 C 33.0 0.0 33.0 0.0 57.75 0.0 L 66 0.0" 
/>
</g>
</g><g 
        class="group"
transform="
    translate(0 0) 
    scale(1 1)
    rotate(0)
"
id="11f3e68a-4fcc-45fe-bde5-ed3e37d2b6e6_66"
clipPathUnits="userSpaceOnUse"
shape-rendering="geometricPrecision">
        <g 
        class="pinlabel pwr"
transform="
    translate(0.0 30.0) 
    scale(-1 1)
    rotate(0)
"
id="11f3e68a-4fcc-45fe-bde5-ed3e37d2b6e6_67"
clipPathUnits="userSpaceOnUse"
shape-rendering="geometricPrecision">
        <rect

        class="pinlabel__body rect"
transform="
    translate(66.0 -13.0) 
    scale(1 1)
    rotate(0)
"
id="11f3e68a-4fcc-45fe-bde5-ed3e37d2b6e6_156"
clipPathUnits="userSpaceOnUse"
shape-rendering="geometricPrecision"    
    height="26" 
    width="80"
    rx="3" 
    ry="3" 
/><text

        class="pinlabel__text text"
transform="
    translate(106.0 0.0) 
    scale(-1 1)
    rotate(0)
"
id="11f3e68a-4fcc-45fe-bde5-ed3e37d2b6e6_154"
clipPathUnits="userSpaceOnUse"
shape-rendering="geometricPrecision">
    3.3V
</text><path 

        class="pinlabel pinlabel__leader"
transform="
    translate(0 0) 
    scale(1 1)
    rotate(0)
"
id="11f3e68a-4fcc-45fe-bde5-ed3e37d2b6e6_69"
clipPathUnits="userSpaceOnUse"
shape-rendering="geometricPrecision"    
    d="M 0.0 0.0 L 8.25 0.0 C 33.0 0.0 33.0 0.0 57.75 0.0 L 66.0 0.0" 
/>
</g>
</g><g 
        class="group"
transform="
    translate(0 0) 
    scale(1 1)
    rotate(0)
"
id="11f3e68a-4fcc-45fe-bde5-ed3e37d2b6e6_71"
clipPathUnits="userSpaceOnUse"
shape-rendering="geometricPrecision">
        <g 
        class="gnd pinlabel"
transform="
    translate(0.0 60.0) 
    scale(-1 1)
    rotate(0)
"
id="11f3e68a-4fcc-45fe-bde5-ed3e37d2b6e6_72"
clipPathUnits="userSpaceOnUse"
shape-rendering="geometricPrecision">
        <rect

        class="pinlabel__body rect"
transform="
    translate(66.0 -13.0) 
    scale(1 1)
    rotate(0)
"
id="11f3e68a-4fcc-45fe-bde5-ed3e37d2b6e6_159"
clipPathUnits="userSpaceOnUse"
shape-rendering="geometricPrecision"    
    height="26" 
    width="80"
    rx="3" 
    ry="3" 
/><text

        class="pinlabel__text text"
transform="
    translate(106.0 0.0) 
    scale(-1 1)
    rotate(0)
"
id="11f3e68a-4fcc-45fe-bde5-ed3e37d2b6e6_157"
clipPathUnits="userSpaceOnUse"
shape-rendering="geometricPrecision">
    GND
</text><path 

        class="pinlabel pinlabel__leader"
transform="
    translate(0 0) 
    scale(1 1)
    rotate(0)
"
id="11f3e68a-4fcc-45fe-bde5-ed3e37d2b6e6_74"
clipPathUnits="userSpaceOnUse"
shape-rendering="geometricPrecision"    
    d="M 0.0 0.0 L 8.25 0.0 C 33.0 0.0 33.0 0.0 57.75 0.0 L 66.0 0.0" 
/>
</g>
</g><g 
        class="group"
transform="
    translate(0 0) 
    scale(1 1)
    rotate(0)
"
id="11f3e68a-4fcc-45fe-bde5-ed3e37d2b6e6_76"
clipPathUnits="userSpaceOnUse"
shape-rendering="geometricPrecision">
        <g 
        class="pinlabel pwr"
transform="
    translate(0.0 90.0) 
    scale(-1 1)
    rotate(0)
"
id="11f3e68a-4fcc-45fe-bde5-ed3e37d2b6e6_77"
clipPathUnits="userSpaceOnUse"
shape-rendering="geometricPrecision">
        <rect

        class="pinlabel__body rect"
transform="
    translate(66.0 -13.0) 
    scale(1 1)
    rotate(0)
"
id="11f3e68a-4fcc-45fe-bde5-ed3e37d2b6e6_162"
clipPathUnits="userSpaceOnUse"
shape-rendering="geometricPrecision"    
    height="26" 
    width="80"
    rx="3" 
    ry="3" 
/><text

        class="pinlabel__text text"
transform="
    translate(106.0 0.0) 
    scale(-1 1)
    rotate(0)
"
id="11f3e68a-4fcc-45fe-bde5-ed3e37d2b6e6_160"
clipPathUnits="userSpaceOnUse"
shape-rendering="geometricPrecision">
    AREF
</text><path 

        class="pinlabel pinlabel__leader"
transform="
    translate(0 0) 
    scale(1 1)
    rotate(0)
"
id="11f3e68a-4fcc-45fe-bde5-ed3e37d2b6e6_79"
clipPathUnits="userSpaceOnUse"
shape-rendering="geometricPrecision"    
    d="M 0.0 0.0 L 8.25 0.0 C 33.0 0.0 33.0 0.0 57.75 0.0 L 66.0 0.0" 
/>
</g>
</g>
</g>
</g>
</g><g 
        class="panel panel--info"
transform="
    translate(2 442) 
    scale(1 1)
    rotate(0)
"
id="11f3e68a-4fcc-45fe-bde5-ed3e37d2b6e6_10"
clipPathUnits="userSpaceOnUse"
shape-rendering="geometricPrecision">
        <rect

        class="panel__outer rect"
transform="
    translate(-2 -2) 
    scale(1 1)
    rotate(0)
"
id="11f3e68a-4fcc-45fe-bde5-ed3e37d2b6e6_164"
clipPathUnits="userSpaceOnUse"
shape-rendering="geometricPrecision"    
    height="132" 
    width="1020"
/><rect

        class="panel__inner rect"
transform="
    translate(0 0) 
    scale(1 1)
    rotate(0)
"
id="11f3e68a-4fcc-45fe-bde5-ed3e37d2b6e6_163"
clipPathUnits="userSpaceOnUse"
shape-rendering="geometricPrecision"    
    height="128" 
    width="1016"
/><g 
        class="panel textblock title_block"
transform="
    translate(20 30) 
    scale(1 1)
    rotate(0)
"
id="11f3e68a-4fcc-45fe-bde5-ed3e37d2b6e6_81"
clipPathUnits="userSpaceOnUse"
shape-rendering="geometricPrecision">
        <text

        class="text textblock"
transform="
    translate(0 0) 
    scale(1 1)
    rotate(0)
"
id="11f3e68a-4fcc-45fe-bde5-ed3e37d2b6e6_165"
clipPathUnits="userSpaceOnUse"
shape-rendering="geometricPrecision">
    <tspan class='h1'>Pinout sample: Section pull-out</tspan>
</text>
</g><g 
        class="panel text_block textblock"
transform="
    translate(20 60) 
    scale(1 1)
    rotate(0)
"
id="11f3e68a-4fcc-45fe-bde5-ed3e37d2b6e6_82"
clipPathUnits="userSpaceOnUse"
shape-rendering="geometricPrecision">
        <text

        class="text textblock"
transform="
    translate(0 0) 
    scale(1 1)
    rotate(0)
"
id="11f3e68a-4fcc-45fe-bde5-ed3e37d2b6e6_166"
clipPathUnits="userSpaceOnUse"
shape-rendering="geometricPrecision">
    Pinout is a Python tool kit to assist with documentation of electronic hardware.
</text><text

        class="text textblock"
transform="
    translate(0 18) 
    scale(1 1)
    rotate(0)
"
id="11f3e68a-4fcc-45fe-bde5-ed3e37d2b6e6_167"
clipPathUnits="userSpaceOnUse"
shape-rendering="geometricPrecision">
    This sample demonstrates documenting a section of hardware.
</text><text

        class="text textblock"
transform="
    translate(0 36) 
    scale(1 1)
    rotate(0)
"
id="11f3e68a-4fcc-45fe-bde5-ed3e37d2b6e6_168"
clipPathUnits="userSpaceOnUse"
shape-rendering="geometricPrecision">
    More info at <tspan class='italic strong'>pinout.readthedocs.io</tspan>
</text>
</g><g 
        class="legend"
transform="
    translate(640 8) 
    scale(1 1)
    rotate(0)
"
id="11f3e68a-4fcc-45fe-bde5-ed3e37d2b6e6_83"
clipPathUnits="userSpaceOnUse"
shape-rendering="geometricPrecision">
        <g 
        class="analog legend legend__entry"
transform="
    translate(0 0) 
    scale(1 1)
    rotate(0)
"
id="11f3e68a-4fcc-45fe-bde5-ed3e37d2b6e6_84"
clipPathUnits="userSpaceOnUse"
shape-rendering="geometricPrecision">
        <g 
        class="legend swatch"
transform="
    translate(4.0 14.0) 
    scale(1 1)
    rotate(0)
"
id="11f3e68a-4fcc-45fe-bde5-ed3e37d2b6e6_85"
clipPathUnits="userSpaceOnUse"
shape-rendering="geometricPrecision">
        <rect

        class="rect swatch__body"
transform="
    translate(0 -10.0) 
    scale(1 1)
    rotate(0)
"
id="11f3e68a-4fcc-45fe-bde5-ed3e37d2b6e6_86"
clipPathUnits="userSpaceOnUse"
shape-rendering="geometricPrecision"    
    height="20" 
    width="20"
/>
</g><text

        class="text"
transform="
    translate(28.0 14.0) 
    scale(1 1)
    rotate(0)
"
id="11f3e68a-4fcc-45fe-bde5-ed3e37d2b6e6_88"
clipPathUnits="userSpaceOnUse"
shape-rendering="geometricPrecision">
    Analog
</text>
</g><g 
        class="i2c legend legend__entry"
transform="
    translate(0 28.0) 
    scale(1 1)
    rotate(0)
"
id="11f3e68a-4fcc-45fe-bde5-ed3e37d2b6e6_89"
clipPathUnits="userSpaceOnUse"
shape-rendering="geometricPrecision">
        <g 
        class="legend swatch"
transform="
    translate(4.0 14.0) 
    scale(1 1)
    rotate(0)
"
id="11f3e68a-4fcc-45fe-bde5-ed3e37d2b6e6_90"
clipPathUnits="userSpaceOnUse"
shape-rendering="geometricPrecision">
        <rect

        class="rect swatch__body"
transform="
    translate(0 -10.0) 
    scale(1 1)
    rotate(0)
"
id="11f3e68a-4fcc-45fe-bde5-ed3e37d2b6e6_91"
clipPathUnits="userSpaceOnUse"
shape-rendering="geometricPrecision"    
    height="20" 
    width="20"
/>
</g><text

        class="text"
transform="
    translate(28.0 14.0) 
    scale(1 1)
    rotate(0)
"
id="11f3e68a-4fcc-45fe-bde5-ed3e37d2b6e6_93"
clipPathUnits="userSpaceOnUse"
shape-rendering="geometricPrecision">
    I2C
</text>
</g><g 
        class="gpio legend legend__entry"
transform="
    translate(0 56.0) 
    scale(1 1)
    rotate(0)
"
id="11f3e68a-4fcc-45fe-bde5-ed3e37d2b6e6_94"
clipPathUnits="userSpaceOnUse"
shape-rendering="geometricPrecision">
        <g 
        class="legend swatch"
transform="
    translate(4.0 14.0) 
    scale(1 1)
    rotate(0)
"
id="11f3e68a-4fcc-45fe-bde5-ed3e37d2b6e6_95"
clipPathUnits="userSpaceOnUse"
shape-rendering="geometricPrecision">
        <rect

        class="rect swatch__body"
transform="
    translate(0 -10.0) 
    scale(1 1)
    rotate(0)
"
id="11f3e68a-4fcc-45fe-bde5-ed3e37d2b6e6_96"
clipPathUnits="userSpaceOnUse"
shape-rendering="geometricPrecision"    
    height="20" 
    width="20"
/>
</g><text

        class="text"
transform="
    translate(28.0 14.0) 
    scale(1 1)
    rotate(0)
"
id="11f3e68a-4fcc-45fe-bde5-ed3e37d2b6e6_98"
clipPathUnits="userSpaceOnUse"
shape-rendering="geometricPrecision">
    GPIO
</text>
</g><g 
        class="legend legend__entry touch"
transform="
    translate(0 84.0) 
    scale(1 1)
    rotate(0)
"
id="11f3e68a-4fcc-45fe-bde5-ed3e37d2b6e6_99"
clipPathUnits="userSpaceOnUse"
shape-rendering="geometricPrecision">
        <g 
        class="legend swatch"
transform="
    translate(4.0 14.0) 
    scale(1 1)
    rotate(0)
"
id="11f3e68a-4fcc-45fe-bde5-ed3e37d2b6e6_100"
clipPathUnits="userSpaceOnUse"
shape-rendering="geometricPrecision">
        <rect

        class="rect swatch__body"
transform="
    translate(0 -10.0) 
    scale(1 1)
    rotate(0)
"
id="11f3e68a-4fcc-45fe-bde5-ed3e37d2b6e6_101"
clipPathUnits="userSpaceOnUse"
shape-rendering="geometricPrecision"    
    height="20" 
    width="20"
/>
</g><text

        class="text"
transform="
    translate(28.0 14.0) 
    scale(1 1)
    rotate(0)
"
id="11f3e68a-4fcc-45fe-bde5-ed3e37d2b6e6_103"
clipPathUnits="userSpaceOnUse"
shape-rendering="geometricPrecision">
    Touch
</text>
</g><g 
        class="legend legend__entry pwm"
transform="
    translate(159.0 0) 
    scale(1 1)
    rotate(0)
"
id="11f3e68a-4fcc-45fe-bde5-ed3e37d2b6e6_104"
clipPathUnits="userSpaceOnUse"
shape-rendering="geometricPrecision">
        <g 
        class="legend swatch"
transform="
    translate(4.0 14.0) 
    scale(1 1)
    rotate(0)
"
id="11f3e68a-4fcc-45fe-bde5-ed3e37d2b6e6_105"
clipPathUnits="userSpaceOnUse"
shape-rendering="geometricPrecision">
        <rect

        class="rect swatch__body"
transform="
    translate(0 -10.0) 
    scale(1 1)
    rotate(0)
"
id="11f3e68a-4fcc-45fe-bde5-ed3e37d2b6e6_106"
clipPathUnits="userSpaceOnUse"
shape-rendering="geometricPrecision"    
    height="20" 
    width="20"
/>
</g><text

        class="text"
transform="
    translate(28.0 14.0) 
    scale(1 1)
    rotate(0)
"
id="11f3e68a-4fcc-45fe-bde5-ed3e37d2b6e6_108"
clipPathUnits="userSpaceOnUse"
shape-rendering="geometricPrecision">
    PWM
</text>
</g><g 
        class="legend legend__entry pwr"
transform="
    translate(159.0 28.0) 
    scale(1 1)
    rotate(0)
"
id="11f3e68a-4fcc-45fe-bde5-ed3e37d2b6e6_109"
clipPathUnits="userSpaceOnUse"
shape-rendering="geometricPrecision">
        <g 
        class="legend swatch"
transform="
    translate(4.0 14.0) 
    scale(1 1)
    rotate(0)
"
id="11f3e68a-4fcc-45fe-bde5-ed3e37d2b6e6_110"
clipPathUnits="userSpaceOnUse"
shape-rendering="geometricPrecision">
        <rect

        class="rect swatch__body"
transform="
    translate(0 -10.0) 
    scale(1 1)
    rotate(0)
"
id="11f3e68a-4fcc-45fe-bde5-ed3e37d2b6e6_111"
clipPathUnits="userSpaceOnUse"
shape-rendering="geometricPrecision"    
    height="20" 
    width="20"
/>
</g><text

        class="text"
transform="
    translate(28.0 14.0) 
    scale(1 1)
    rotate(0)
"
id="11f3e68a-4fcc-45fe-bde5-ed3e37d2b6e6_113"
clipPathUnits="userSpaceOnUse"
shape-rendering="geometricPrecision">
    Power
</text>
</g><g 
        class="gnd legend legend__entry"
transform="
    translate(159.0 56.0) 
    scale(1 1)
    rotate(0)
"
id="11f3e68a-4fcc-45fe-bde5-ed3e37d2b6e6_114"
clipPathUnits="userSpaceOnUse"
shape-rendering="geometricPrecision">
        <g 
        class="legend swatch"
transform="
    translate(4.0 14.0) 
    scale(1 1)
    rotate(0)
"
id="11f3e68a-4fcc-45fe-bde5-ed3e37d2b6e6_115"
clipPathUnits="userSpaceOnUse"
shape-rendering="geometricPrecision">
        <rect

        class="rect swatch__body"
transform="
    translate(0 -10.0) 
    scale(1 1)
    rotate(0)
"
id="11f3e68a-4fcc-45fe-bde5-ed3e37d2b6e6_116"
clipPathUnits="userSpaceOnUse"
shape-rendering="geometricPrecision"    
    height="20" 
    width="20"
/>
</g><text

        class="text"
transform="
    translate(28.0 14.0) 
    scale(1 1)
    rotate(0)
"
id="11f3e68a-4fcc-45fe-bde5-ed3e37d2b6e6_118"
clipPathUnits="userSpaceOnUse"
shape-rendering="geometricPrecision">
    Ground
</text>
</g>
</g>
</g>
</g>
    
</svg>