
<svg  
    xmlns="http://www.w3.org/2000/svg" 
    xmlns:xlink="http://www.w3.org/1999/xlink"
    x="0"
    y="0"
    width="1024" 
    height="576" 
    viewBox="0 0 1024 576"
    class="diagram"
>

<defs>
    <image 
    id="59e36075-f549-4981-a7a8-ab6b3a99c4bb"
 
    transform="
        translate(0 0) 
        scale(1 1)
        rotate(0)
    "
    href="hardware_18pin.png" 
    xlink:href="hardware_18pin.png" 
    height="300" 
    width="220"
/>
<clipPath 
    transform="
        translate(0 0) 
        scale(1 1)
        rotate(0)
    "
    id="9b6561d7-b918-4c7c-84d5-4000f4b73e79"
    clipPathUnits="userSpaceOnUse"
>
    <rect
    id="ff78a51e-d7ba-46de-abef-918941212a0b"
 
     transform="
        translate(-225.0 0) 
        scale(1 1)
        rotate(0)
    " 
    width="50" 
    height="110" 
    shape-rendering="geometricPrecision"
/>
</clipPath>
</defs>


    <style type="text/css" media="screen">  
    <![CDATA[  
    text {
    font-family: Verdana, Georgia, sans-serif;
    font-size: 14px;
    font-weight: normal;
}

.pinlabel__leader{
    stroke-width: 2;
    fill: none;
}

.pinlabel__text{
    dominant-baseline: central;
    fill: #fff;
    font-weight: bold;
    stroke-width: 0;
    text-anchor: middle;
}

.pwr .pinlabel__body{
    fill: rgb(173, 0, 0);
}
.pwr .pinlabel__leader{
    stroke: rgb(173, 0, 0);
}
.pwr .swatch__body {
    fill: rgb(173, 0, 0);
}
.i2c .pinlabel__body{
    fill: rgb(182, 69, 176);
}
.i2c .pinlabel__leader{
    stroke: rgb(182, 69, 176);
}
.i2c .swatch__body {
    fill: rgb(182, 69, 176);
}
.gpio .pinlabel__body{
    fill: rgb(160, 133, 26);
}
.gpio .pinlabel__leader{
    stroke: rgb(160, 133, 26);
}
.gpio .swatch__body {
    fill: rgb(160, 133, 26);
}
.analog .pinlabel__body{
    fill: rgb(32, 150, 165);
}
.analog .pinlabel__leader{
    stroke: rgb(32, 150, 165);
}
.analog .swatch__body {
    fill: rgb(32, 150, 165);
}
.gnd .pinlabel__body{
    fill: rgb(0, 0, 0);
}
.gnd .pinlabel__leader{
    stroke: rgb(0, 0, 0);
}
.gnd .swatch__body {
    fill: rgb(0, 0, 0);
}
.pwm .pinlabel__body{
    fill: rgb(151, 76, 23);
}
.pwm .pinlabel__leader{
    stroke: rgb(151, 76, 23);
}
.pwm .swatch__body {
    fill: rgb(151, 76, 23);
}
.touch .pinlabel__body{
    fill: rgb(230, 87, 10);
}
.touch .pinlabel__leader{
    stroke: rgb(230, 87, 10);
}
.touch .swatch__body {
    fill: rgb(230, 87, 10);
}

.panel__inner {
    fill: #fff;
}
.panel__outer {
    fill: #333;
}

.legendentry text {
    dominant-baseline: central;
}

.h1 {
    font-size: 26px;
    font-weight: bold;
    font-style: italic;
}
.italic{
    font-style: italic;
}
.strong{
    font-weight: bold;
}

.panel--info .panel__inner{
    
    fill: #f4f4f4;
}


.annotation__body {
    fill: rgb(253, 203, 36);
}
.annotation__text text {
    dominant-baseline: central;
    font-size: 18px;
    font-weight: bold;
    text-anchor: middle;
}
.annotation__target {
    fill: none;
    stroke: rgb(253, 203, 36);
    stroke-width: 4px;
}
.annotation__leaderline {
    stroke: rgb(253, 203, 36);
    stroke-width: 4px;
    fill: none;
}
.section_title{
    font-size: 20px;
    font-weight: bold;
}
    ]]>  
</style>
<g 
        class=" panel"
    transform="
        translate(2 2) 
        scale(1 1)
        rotate(0)
    "
>
        <rect
    id="e03d5274-40a3-4c49-9285-ae3950a812f2"
 
        class="panel__outer"
 
     transform="
        translate(-2 -2) 
        scale(1 1)
        rotate(0)
    " 
    width="1024.0" 
    height="576.0" 
    shape-rendering="geometricPrecision"
/><rect
    id="0b380d6c-1b3d-4dc1-accb-88d947e78b86"
 
        class="panel__inner"
 
     transform="
        translate(0 0) 
        scale(1 1)
        rotate(0)
    " 
    width="1020.0" 
    height="572.0" 
    shape-rendering="geometricPrecision"
/><g 
        class="panel--main panel"
    transform="
        translate(2 2) 
        scale(1 1)
        rotate(0)
    "
>
        <rect
    id="bbe233b8-2840-41df-95c2-50c14ce74f76"
 
        class="panel__outer"
 
     transform="
        translate(-2 -2) 
        scale(1 1)
        rotate(0)
    " 
    width="340.0" 
    height="440.0" 
    shape-rendering="geometricPrecision"
/><rect
    id="65996a1d-37ca-4986-8333-c47040456850"
 
        class="panel__inner"
 
     transform="
        translate(0 0) 
        scale(1 1)
        rotate(0)
    " 
    width="336.0" 
    height="436.0" 
    shape-rendering="geometricPrecision"
/><g 
    transform="
        translate(170.0 20) 
        scale(1 1)
        rotate(0)
    "
>
        <g 
    transform="
        translate(0 0) 
        scale(1 1)
        rotate(0)
    "
>
        <use
    id="070aa229-cada-4c1b-bcb4-39887a4c3586"
 
    
     transform="
        translate(-110.0 0.0) 
        scale(1.0 1.0)
        rotate(0)
    " 

    href="#59e36075-f549-4981-a7a8-ab6b3a99c4bb"
    
/>

</g><g 
        class=" annotation"
    transform="
        translate(0.0 268.0) 
        scale(-1 1)
        rotate(0)
    "
>
        <path 
    class="annotation__leaderline" 
    transform="
        scale(1 1) 
        translate(0 0) 
        rotate(0)
    " 
    d="M 0.0 40.0 L 0.0 51.666666666666664 A 33.333333333333336 33.333333333333336 0 0 0 33.333333333333336 85.0 L 20.0 85.0" 
    shape-rendering="geometricPrecision"
/><rect
    id="7cbdf21e-9810-43b8-9dbc-59bedcbdd36d"
 
        class="annotation__target"
 
     transform="
        translate(-120 -40) 
        scale(1 1)
        rotate(0)
    " 
    width="240" 
    height="80" 
    shape-rendering="geometricPrecision"
    rx="10" 
    ry="10" 
/><rect
    id="0ec29d23-c1f6-44cc-9613-8b9d2363892b"
 
        class="annotation__body"
 
     transform="
        translate(20 60) 
        scale(1 1)
        rotate(0)
    " 
    width="120" 
    height="50" 
    shape-rendering="geometricPrecision"
    rx="25" 
    ry="25" 
/><g 
        class="annotation__text textblock"
    transform="
        translate(80.0 85.0) 
        scale(-1 1)
        rotate(0)
    "
>
        <text
    class="textblock"
    transform="
        translate(0 0) 
        scale(1 1)
        rotate(0)
    "  
>
    Section A
</text>
</g>
</g>
</g>
</g><g 
        class="panel--detail panel"
    transform="
        translate(342.0 2) 
        scale(1 1)
        rotate(0)
    "
>
        <rect
    id="34a6ac74-eb78-4e48-9e02-2965abc48353"
 
        class="panel__outer"
 
     transform="
        translate(-2 -2) 
        scale(1 1)
        rotate(0)
    " 
    width="680.0" 
    height="440.0" 
    shape-rendering="geometricPrecision"
/><rect
    id="b1de0896-d607-4628-84c5-1ab578baa63b"
 
        class="panel__inner"
 
     transform="
        translate(0 0) 
        scale(1 1)
        rotate(0)
    " 
    width="676.0" 
    height="436.0" 
    shape-rendering="geometricPrecision"
/><g 
        class=" textblock"
    transform="
        translate(20 40) 
        scale(1 1)
        rotate(0)
    "
>
        <text
    class="textblock"
    transform="
        translate(0 0) 
        scale(1 1)
        rotate(0)
    "  
>
    <tspan class='section_title'>Section A</tspan>
</text><text
    class="textblock"
    transform="
        translate(0 22) 
        scale(1 1)
        rotate(0)
    "  
>
    Detail of double row header.
</text>
</g><g 
        class="graphic-detail"
    transform="
        translate(504.25 150.25) 
        scale(1 1)
        rotate(0)
    "
>
        <g 
        clip-path="url(#9b6561d7-b918-4c7c-84d5-4000f4b73e79)"
    transform="
        translate(0 0) 
        scale(1 1)
        rotate(0)
    "
>
        <use
    id="977cdfeb-6b53-4ef7-994c-9d9ee964add2"
 
    
     transform="
        translate(-75.0 4.592425496802574e-15) 
        scale(0.5 0.5)
        rotate(90)
    " 

    href="#59e36075-f549-4981-a7a8-ab6b3a99c4bb"
    
/>

</g><g 
    transform="
        translate(-201.5 32.500000000000014) 
        scale(1 1)
        rotate(0)
    "
>
        <g 
    transform="
        translate(0 0) 
        scale(1 1)
        rotate(0)
    "
>
        <g 
        class=" pinlabel analog"
    transform="
        translate(0 0) 
        scale(1 1)
        rotate(0)
    "
>
        <path 
    class="pinlabel__leader" 
    transform="
        scale(1 1) 
        translate(0 0) 
        rotate(0)
    " 
    d="M 0.0 0.0 L 8.25 0.0 C 33.0 0.0 33.0 0.0 57.75 0.0 L 66 0.0" 
    shape-rendering="geometricPrecision"
/><rect
    id="3da4665b-fb21-44a3-8a54-8fd65d0521bd"
 
        class=" pinlabel__body"
 
     transform="
        translate(66 -13.0) 
        scale(1 1)
        rotate(0)
    " 
    width="80" 
    height="26" 
    shape-rendering="geometricPrecision"
    rx="3" 
    ry="3" 
/><text
    class="pinlabel__text"
    transform="
        translate(106.0 0) 
        scale(1 1)
        rotate(0)
    "  
>
    A2
</text>
</g><g 
        class=" pinlabel touch"
    transform="
        translate(146.0 0) 
        scale(1 1)
        rotate(0)
    "
>
        <path 
    class="pinlabel__leader" 
    transform="
        scale(1 1) 
        translate(0 0) 
        rotate(0)
    " 
    d="" 
    shape-rendering="geometricPrecision"
/><rect
    id="e9cb3266-0562-4c39-a61c-2222b81f0033"
 
        class=" pinlabel__body"
 
     transform="
        translate(6 -13.0) 
        scale(1 1)
        rotate(0)
    " 
    width="80" 
    height="26" 
    shape-rendering="geometricPrecision"
    rx="3" 
    ry="3" 
/><text
    class="pinlabel__text"
    transform="
        translate(46.0 0) 
        scale(1 1)
        rotate(0)
    "  
>
    TOUCH
</text>
</g>
</g><g 
    transform="
        translate(0 0) 
        scale(1 1)
        rotate(0)
    "
>
        <g 
        class=" pinlabel pwm"
    transform="
        translate(0.0 15.0) 
        scale(1 1)
        rotate(0)
    "
>
        <path 
    class="pinlabel__leader" 
    transform="
        scale(1 1) 
        translate(0 0) 
        rotate(0)
    " 
    d="M 0.0 0.0 L 8.25 0.0 C 33.0 0.0 33.0 15.0 57.75 15.0 L 66.0 15.0" 
    shape-rendering="geometricPrecision"
/><rect
    id="2d520395-ec22-4fb2-8159-e3d0396df6ff"
 
        class=" pinlabel__body"
 
     transform="
        translate(66.0 2.0) 
        scale(1 1)
        rotate(0)
    " 
    width="80" 
    height="26" 
    shape-rendering="geometricPrecision"
    rx="3" 
    ry="3" 
/><text
    class="pinlabel__text"
    transform="
        translate(106.0 15.0) 
        scale(1 1)
        rotate(0)
    "  
>
    PWM
</text>
</g>
</g><g 
    transform="
        translate(0 0) 
        scale(1 1)
        rotate(0)
    "
>
        <g 
        class=" pinlabel gpio"
    transform="
        translate(0.0 30.0) 
        scale(1 1)
        rotate(0)
    "
>
        <path 
    class="pinlabel__leader" 
    transform="
        scale(1 1) 
        translate(0 0) 
        rotate(0)
    " 
    d="M 0.0 0.0 L 8.25 0.0 C 33.0 0.0 33.0 30.0 57.75 30.0 L 66.0 30.0" 
    shape-rendering="geometricPrecision"
/><rect
    id="7165b00c-eecb-42c1-b240-7bc013e19294"
 
        class=" pinlabel__body"
 
     transform="
        translate(66.0 17.0) 
        scale(1 1)
        rotate(0)
    " 
    width="80" 
    height="26" 
    shape-rendering="geometricPrecision"
    rx="3" 
    ry="3" 
/><text
    class="pinlabel__text"
    transform="
        translate(106.0 30.0) 
        scale(1 1)
        rotate(0)
    "  
>
    6
</text>
</g><g 
        class=" pinlabel i2c"
    transform="
        translate(146.0 60.0) 
        scale(1 1)
        rotate(0)
    "
>
        <path 
    class="pinlabel__leader" 
    transform="
        scale(1 1) 
        translate(0 0) 
        rotate(0)
    " 
    d="" 
    shape-rendering="geometricPrecision"
/><rect
    id="2908a21f-6eb6-4fd8-979f-b1f0cecea708"
 
        class=" pinlabel__body"
 
     transform="
        translate(6 -13.0) 
        scale(1 1)
        rotate(0)
    " 
    width="80" 
    height="26" 
    shape-rendering="geometricPrecision"
    rx="3" 
    ry="3" 
/><text
    class="pinlabel__text"
    transform="
        translate(46.0 0) 
        scale(1 1)
        rotate(0)
    "  
>
    SDA1
</text>
</g>
</g><g 
    transform="
        translate(0 0) 
        scale(1 1)
        rotate(0)
    "
>
        <g 
        class=" pinlabel analog"
    transform="
        translate(0.0 45.0) 
        scale(1 1)
        rotate(0)
    "
>
        <path 
    class="pinlabel__leader" 
    transform="
        scale(1 1) 
        translate(0 0) 
        rotate(0)
    " 
    d="M 0.0 0.0 L 8.25 0.0 C 33.0 0.0 33.0 45.0 57.75 45.0 L 66.0 45.0" 
    shape-rendering="geometricPrecision"
/><rect
    id="2356aee5-7eb6-4a6f-b844-c52fc3c95f5a"
 
        class=" pinlabel__body"
 
     transform="
        translate(66.0 32.0) 
        scale(1 1)
        rotate(0)
    " 
    width="80" 
    height="26" 
    shape-rendering="geometricPrecision"
    rx="3" 
    ry="3" 
/><text
    class="pinlabel__text"
    transform="
        translate(106.0 45.0) 
        scale(1 1)
        rotate(0)
    "  
>
    A5
</text>
</g><g 
        class=" pinlabel i2c"
    transform="
        translate(146.0 90.0) 
        scale(1 1)
        rotate(0)
    "
>
        <path 
    class="pinlabel__leader" 
    transform="
        scale(1 1) 
        translate(0 0) 
        rotate(0)
    " 
    d="" 
    shape-rendering="geometricPrecision"
/><rect
    id="72c90107-4c37-4641-a90a-75073a609c8a"
 
        class=" pinlabel__body"
 
     transform="
        translate(6 -13.0) 
        scale(1 1)
        rotate(0)
    " 
    width="80" 
    height="26" 
    shape-rendering="geometricPrecision"
    rx="3" 
    ry="3" 
/><text
    class="pinlabel__text"
    transform="
        translate(46.0 0) 
        scale(1 1)
        rotate(0)
    "  
>
    SCL1
</text>
</g>
</g>
</g><g 
    transform="
        translate(-217.0 32.500000000000014) 
        scale(1 1)
        rotate(0)
    "
>
        <g 
    transform="
        translate(0 0) 
        scale(1 1)
        rotate(0)
    "
>
        <g 
        class=" pinlabel pwr"
    transform="
        translate(0 0) 
        scale(-1 1)
        rotate(0)
    "
>
        <path 
    class="pinlabel__leader" 
    transform="
        scale(1 1) 
        translate(0 0) 
        rotate(0)
    " 
    d="M 0.0 0.0 L 8.25 0.0 C 33.0 0.0 33.0 0.0 57.75 0.0 L 66 0.0" 
    shape-rendering="geometricPrecision"
/><rect
    id="1697a363-c84b-40d9-a452-9912226e0287"
 
        class=" pinlabel__body"
 
     transform="
        translate(66 -13.0) 
        scale(1 1)
        rotate(0)
    " 
    width="80" 
    height="26" 
    shape-rendering="geometricPrecision"
    rx="3" 
    ry="3" 
/><text
    class="pinlabel__text"
    transform="
        translate(106.0 0) 
        scale(-1 1)
        rotate(0)
    "  
>
    VBAT
</text>
</g>
</g><g 
    transform="
        translate(0 0) 
        scale(1 1)
        rotate(0)
    "
>
        <g 
        class=" pinlabel pwr"
    transform="
        translate(0.0 15.0) 
        scale(-1 1)
        rotate(0)
    "
>
        <path 
    class="pinlabel__leader" 
    transform="
        scale(1 1) 
        translate(0 0) 
        rotate(0)
    " 
    d="M 0.0 0.0 L 8.25 0.0 C 33.0 0.0 33.0 15.0 57.75 15.0 L 66.0 15.0" 
    shape-rendering="geometricPrecision"
/><rect
    id="995dce6a-a2c3-4a97-8b0b-db68478f0ab4"
 
        class=" pinlabel__body"
 
     transform="
        translate(66.0 2.0) 
        scale(1 1)
        rotate(0)
    " 
    width="80" 
    height="26" 
    shape-rendering="geometricPrecision"
    rx="3" 
    ry="3" 
/><text
    class="pinlabel__text"
    transform="
        translate(106.0 15.0) 
        scale(-1 1)
        rotate(0)
    "  
>
    3.3V
</text>
</g>
</g><g 
    transform="
        translate(0 0) 
        scale(1 1)
        rotate(0)
    "
>
        <g 
        class=" pinlabel gnd"
    transform="
        translate(0.0 30.0) 
        scale(-1 1)
        rotate(0)
    "
>
        <path 
    class="pinlabel__leader" 
    transform="
        scale(1 1) 
        translate(0 0) 
        rotate(0)
    " 
    d="M 0.0 0.0 L 8.25 0.0 C 33.0 0.0 33.0 30.0 57.75 30.0 L 66.0 30.0" 
    shape-rendering="geometricPrecision"
/><rect
    id="81a9907e-1419-401f-a8e7-04e4ae01bd81"
 
        class=" pinlabel__body"
 
     transform="
        translate(66.0 17.0) 
        scale(1 1)
        rotate(0)
    " 
    width="80" 
    height="26" 
    shape-rendering="geometricPrecision"
    rx="3" 
    ry="3" 
/><text
    class="pinlabel__text"
    transform="
        translate(106.0 30.0) 
        scale(-1 1)
        rotate(0)
    "  
>
    GND
</text>
</g>
</g><g 
    transform="
        translate(0 0) 
        scale(1 1)
        rotate(0)
    "
>
        <g 
        class=" pinlabel pwr"
    transform="
        translate(0.0 45.0) 
        scale(-1 1)
        rotate(0)
    "
>
        <path 
    class="pinlabel__leader" 
    transform="
        scale(1 1) 
        translate(0 0) 
        rotate(0)
    " 
    d="M 0.0 0.0 L 8.25 0.0 C 33.0 0.0 33.0 45.0 57.75 45.0 L 66.0 45.0" 
    shape-rendering="geometricPrecision"
/><rect
    id="3178b96b-fca1-4db6-aff1-4f611979f5e2"
 
        class=" pinlabel__body"
 
     transform="
        translate(66.0 32.0) 
        scale(1 1)
        rotate(0)
    " 
    width="80" 
    height="26" 
    shape-rendering="geometricPrecision"
    rx="3" 
    ry="3" 
/><text
    class="pinlabel__text"
    transform="
        translate(106.0 45.0) 
        scale(-1 1)
        rotate(0)
    "  
>
    AREF
</text>
</g>
</g>
</g>
</g>
</g><g 
        class="panel--info panel"
    transform="
        translate(2 442.0) 
        scale(1 1)
        rotate(0)
    "
>
        <rect
    id="732acdf9-44cf-46c5-a6a5-cd7e0a703094"
 
        class="panel__outer"
 
     transform="
        translate(-2 -2) 
        scale(1 1)
        rotate(0)
    " 
    width="1020.0" 
    height="132.0" 
    shape-rendering="geometricPrecision"
/><rect
    id="853175bb-4a09-4221-b3e2-b5e76bd207b5"
 
        class="panel__inner"
 
     transform="
        translate(0 0) 
        scale(1 1)
        rotate(0)
    " 
    width="1016.0" 
    height="128.0" 
    shape-rendering="geometricPrecision"
/><g 
        class="panel title_block textblock"
    transform="
        translate(20 30) 
        scale(1 1)
        rotate(0)
    "
>
        <text
    class="textblock"
    transform="
        translate(0 0) 
        scale(1 1)
        rotate(0)
    "  
>
    <tspan class='h1'>Pinout sample: Section pull-out</tspan>
</text>
</g><g 
        class="panel text_block textblock"
    transform="
        translate(20 60) 
        scale(1 1)
        rotate(0)
    "
>
        <text
    class="textblock"
    transform="
        translate(0 0) 
        scale(1 1)
        rotate(0)
    "  
>
    Pinout is a Python tool kit to assist with documentation of electronic hardware.
</text><text
    class="textblock"
    transform="
        translate(0 18) 
        scale(1 1)
        rotate(0)
    "  
>
    This sample demonstrates documenting a section of hardware.
</text><text
    class="textblock"
    transform="
        translate(0 36) 
        scale(1 1)
        rotate(0)
    "  
>
    More info at <tspan class='italic strong'>pinout.readthedocs.io</tspan>
</text>
</g><g 
        class=" legend"
    transform="
        translate(640 8) 
        scale(1 1)
        rotate(0)
    "
>
        <g 
        class="analog legendentry"
    transform="
        translate(0 0) 
        scale(1 1)
        rotate(0)
    "
>
        <g 
        class=" swatch"
    transform="
        translate(4.0 14.0) 
        scale(1 1)
        rotate(0)
    "
>
        <rect
    id="e4c01205-a808-4a1f-aae1-d85359ed0e01"
 
        class=" swatch__body"
 
     transform="
        translate(0 -10.0) 
        scale(1 1)
        rotate(0)
    " 
    width="20" 
    height="20" 
    shape-rendering="geometricPrecision"
/>
</g><text
    transform="
        translate(28.0 14.0) 
        scale(1 1)
        rotate(0)
    "  
>
    Analog
</text>
</g><g 
        class="i2c legendentry"
    transform="
        translate(0 28.0) 
        scale(1 1)
        rotate(0)
    "
>
        <g 
        class=" swatch"
    transform="
        translate(4.0 14.0) 
        scale(1 1)
        rotate(0)
    "
>
        <rect
    id="c66082fc-65a8-4b6c-a4c2-90c95a46544f"
 
        class=" swatch__body"
 
     transform="
        translate(0 -10.0) 
        scale(1 1)
        rotate(0)
    " 
    width="20" 
    height="20" 
    shape-rendering="geometricPrecision"
/>
</g><text
    transform="
        translate(28.0 14.0) 
        scale(1 1)
        rotate(0)
    "  
>
    I2C
</text>
</g><g 
        class="gpio legendentry"
    transform="
        translate(0 56.0) 
        scale(1 1)
        rotate(0)
    "
>
        <g 
        class=" swatch"
    transform="
        translate(4.0 14.0) 
        scale(1 1)
        rotate(0)
    "
>
        <rect
    id="b9e33c97-969d-4bc8-af2d-36d344fbcf9d"
 
        class=" swatch__body"
 
     transform="
        translate(0 -10.0) 
        scale(1 1)
        rotate(0)
    " 
    width="20" 
    height="20" 
    shape-rendering="geometricPrecision"
/>
</g><text
    transform="
        translate(28.0 14.0) 
        scale(1 1)
        rotate(0)
    "  
>
    GPIO
</text>
</g><g 
        class="touch legendentry"
    transform="
        translate(0 84.0) 
        scale(1 1)
        rotate(0)
    "
>
        <g 
        class=" swatch"
    transform="
        translate(4.0 14.0) 
        scale(1 1)
        rotate(0)
    "
>
        <rect
    id="5995597b-2690-4a02-861b-efad15d90d38"
 
        class=" swatch__body"
 
     transform="
        translate(0 -10.0) 
        scale(1 1)
        rotate(0)
    " 
    width="20" 
    height="20" 
    shape-rendering="geometricPrecision"
/>
</g><text
    transform="
        translate(28.0 14.0) 
        scale(1 1)
        rotate(0)
    "  
>
    Touch
</text>
</g><g 
        class="pwm legendentry"
    transform="
        translate(159.0 0) 
        scale(1 1)
        rotate(0)
    "
>
        <g 
        class=" swatch"
    transform="
        translate(4.0 14.0) 
        scale(1 1)
        rotate(0)
    "
>
        <rect
    id="586fc5d8-a8d7-40a0-965b-d748b999d1af"
 
        class=" swatch__body"
 
     transform="
        translate(0 -10.0) 
        scale(1 1)
        rotate(0)
    " 
    width="20" 
    height="20" 
    shape-rendering="geometricPrecision"
/>
</g><text
    transform="
        translate(28.0 14.0) 
        scale(1 1)
        rotate(0)
    "  
>
    PWM
</text>
</g><g 
        class="pwr legendentry"
    transform="
        translate(159.0 28.0) 
        scale(1 1)
        rotate(0)
    "
>
        <g 
        class=" swatch"
    transform="
        translate(4.0 14.0) 
        scale(1 1)
        rotate(0)
    "
>
        <rect
    id="a231b38a-cd5f-4233-8222-5878801c7791"
 
        class=" swatch__body"
 
     transform="
        translate(0 -10.0) 
        scale(1 1)
        rotate(0)
    " 
    width="20" 
    height="20" 
    shape-rendering="geometricPrecision"
/>
</g><text
    transform="
        translate(28.0 14.0) 
        scale(1 1)
        rotate(0)
    "  
>
    Power
</text>
</g><g 
        class="gnd legendentry"
    transform="
        translate(159.0 56.0) 
        scale(1 1)
        rotate(0)
    "
>
        <g 
        class=" swatch"
    transform="
        translate(4.0 14.0) 
        scale(1 1)
        rotate(0)
    "
>
        <rect
    id="fa902660-ac00-42b2-9648-aab9fcabaeec"
 
        class=" swatch__body"
 
     transform="
        translate(0 -10.0) 
        scale(1 1)
        rotate(0)
    " 
    width="20" 
    height="20" 
    shape-rendering="geometricPrecision"
/>
</g><text
    transform="
        translate(28.0 14.0) 
        scale(1 1)
        rotate(0)
    "  
>
    Ground
</text>
</g>
</g>
</g>
</g>
    
</svg>