<?xml version="1.0" encoding="utf-8"?>
<!-- Generator: Adobe Illustrator 14.0.0, SVG Export Plug-In . SVG Version: 6.00 Build 43363)  -->
<!DOCTYPE svg PUBLIC "-//W3C//DTD SVG 1.1//EN" "http://www.w3.org/Graphics/SVG/1.1/DTD/svg11.dtd">
<svg version="1.1" id="Layer_1" xmlns="http://www.w3.org/2000/svg" xmlns:xlink="http://www.w3.org/1999/xlink" x="0px" y="0px"
	 width="94.436px" height="264.109px" viewBox="0 0 94.436 264.109" enable-background="new 0 0 94.436 264.109"
	 xml:space="preserve">
<rect x="36.278" y="70.221" fill="none" stroke="#29ABE2" width="48.879" height="6"/>
<rect x="36.278" y="61.221" fill="none" stroke="#29ABE2" width="36.673" height="6"/>
<rect x="36.278" y="88.221" fill="none" stroke="#29ABE2" width="48.879" height="6"/>
<rect x="36.278" y="79.221" fill="none" stroke="#29ABE2" width="48.879" height="6"/>
<rect x="36.278" y="106.221" fill="none" stroke="#29ABE2" width="48.879" height="6"/>
<rect x="36.278" y="97.221" fill="none" stroke="#29ABE2" width="48.879" height="6"/>
<rect x="36.278" y="124.221" fill="none" stroke="#29ABE2" width="48.879" height="6"/>
<rect x="36.278" y="115.221" fill="none" stroke="#29ABE2" width="48.879" height="6"/>
<rect x="36.278" y="133.221" fill="none" stroke="#29ABE2" width="48.879" height="6"/>
<rect x="36.278" y="151.221" fill="none" stroke="#29ABE2" width="48.879" height="6"/>
<rect x="36.278" y="142.221" fill="none" stroke="#29ABE2" width="48.879" height="6"/>
<rect x="36.278" y="187.221" fill="none" stroke="#29ABE2" width="48.879" height="6"/>
<rect x="36.278" y="178.221" fill="none" stroke="#29ABE2" width="48.879" height="6"/>
<rect x="36.278" y="205.221" fill="none" stroke="#29ABE2" width="48.879" height="6"/>
<rect x="36.278" y="196.221" fill="none" stroke="#29ABE2" width="48.879" height="6"/>
<rect x="36.278" y="214.221" fill="none" stroke="#29ABE2" width="48.879" height="6"/>
<rect x="36.278" y="232.221" fill="none" stroke="#29ABE2" width="48.879" height="6"/>
<rect x="36.278" y="223.221" fill="none" stroke="#29ABE2" width="48.879" height="6"/>
<path fill="none" stroke="#29ABE2" d="M3.278,261.388v-20.167h81.879c3.314,0,6-2.687,6-6v-54c0-3.313-2.686-6-6-6H25.778
	c-4.142,0-7.5-3.358-7.5-7.5s3.358-7.5,7.5-7.5h59.379c3.314,0,6-2.687,6-6v-90c0-3.313-2.686-6-6-6H10.778
	c-4.142,0-7.5-3.358-7.5-7.5s3.358-7.5,7.5-7.5h42.514V18.675H3.278V2.721"/>
</svg>
