<?xml version="1.0" encoding="UTF-8"?>
<svg width="220px" height="300px" enable-background="new 0 0 220 300" version="1.1" viewBox="0 0 220 300" xmlns="http://www.w3.org/2000/svg">
    <path d="m20 0c-11 0-20 9-20 20v260c0 11 9 20 20 20h180c11 0 20-9 20-20v-260c0-11-9-20-20-20h-180zm176 12c6.627 0 12 5.373 12 12s-5.373 12-12 12-12-5.373-12-12 5.373-12 12-12zm-174-2c6.627 0 12 5.373 12 12s-5.373 12-12 12-12-5.373-12-12 5.373-12 12-12zm-6 89c3.313 0 6 2.686 6 6s-2.687 6-6 6-6-2.686-6-6 2.687-6 6-6zm0 30c3.313 0 6 2.686 6 6s-2.687 6-6 6-6-2.686-6-6 2.687-6 6-6zm24.219-51.079c0-3.313 2.686-6 6-6s6 2.687 6 6-2.686 6-6 6-6-2.687-6-6zm15.557 15.557c0-3.313 2.686-6 6-6s6 2.687 6 6-2.686 6-6 6-6-2.687-6-6zm-39.776 64.763c3.313 0 6 2.686 6 6s-2.687 6-6 6-6-2.686-6-6 2.687-6 6-6zm-6 36.759c0-3.314 2.687-6 6-6s6 2.686 6 6-2.687 6-6 6-6-2.686-6-6zm14 93c-6.627 0-12-5.373-12-12s5.373-12 12-12 12 5.373 12 12-5.373 12-12 12zm172 0c-6.627 0-12-5.373-12-12s5.373-12 12-12 12 5.373 12 12-5.373 12-12 12zm8-87c-3.313 0-6-2.686-6-6s2.687-6 6-6 6 2.686 6 6-2.687 6-6 6zm0-30c-3.313 0-6-2.686-6-6s2.687-6 6-6 6 2.686 6 6-2.687 6-6 6zm0-29.241c-3.313 0-6-2.686-6-6s2.687-6 6-6 6 2.686 6 6-2.687 6-6 6zm0-30.759c-3.313 0-6-2.686-6-6s2.687-6 6-6 6 2.686 6 6-2.687 6-6 6zm-85 173c0-3.313 2.686-6 6-6s6 2.687 6 6-2.686 6-6 6-6-2.687-6-6zm-29.241 0c0-3.313 2.686-6 6-6s6 2.687 6 6-2.686 6-6 6-6-2.687-6-6zm-30.759 0c0-3.313 2.686-6 6-6s6 2.687 6 6-2.686 6-6 6-6-2.687-6-6zm90 0c0-3.313 2.686-6 6-6s6 2.687 6 6-2.686 6-6 6-6-2.687-6-6z" fill="#5B5B69"/>
    <g fill="#FFDD15">
        <path d="m16 126.5c-4.695 0-8.5 3.804-8.5 8.5s3.805 8.5 8.5 8.5 8.5-3.804 8.5-8.5-3.805-8.5-8.5-8.5zm0 14.5c-3.313 0-6-2.686-6-6s2.687-6 6-6 6 2.686 6 6-2.687 6-6 6z"/>
        <path d="m16 155.74c-4.695 0-8.5 3.804-8.5 8.5s3.805 8.5 8.5 8.5 8.5-3.804 8.5-8.5-3.805-8.5-8.5-8.5zm0 14.5c-3.313 0-6-2.686-6-6s2.687-6 6-6 6 2.686 6 6-2.687 6-6 6z"/>
        <path d="m16 186.5c-4.695 0-8.5 3.804-8.5 8.5s3.805 8.5 8.5 8.5 8.5-3.804 8.5-8.5-3.805-8.5-8.5-8.5zm0 14.5c-3.313 0-6-2.686-6-6s2.687-6 6-6 6 2.686 6 6-2.687 6-6 6z"/>
        <path d="m16 96.5c-4.695 0-8.5 3.804-8.5 8.5s3.805 8.5 8.5 8.5 8.5-3.804 8.5-8.5-3.805-8.5-8.5-8.5zm0 14.5c-3.313 0-6-2.686-6-6s2.687-6 6-6 6 2.686 6 6-2.687 6-6 6z"/>
    </g>
    <g fill="#FFDD15">
        <path d="m204 173.5c4.695 0 8.5-3.804 8.5-8.5s-3.805-8.5-8.5-8.5-8.5 3.804-8.5 8.5 3.805 8.5 8.5 8.5zm0-14.5c3.313 0 6 2.686 6 6s-2.687 6-6 6-6-2.686-6-6 2.687-6 6-6z"/>
        <path d="m204 144.26c4.695 0 8.5-3.804 8.5-8.5s-3.805-8.5-8.5-8.5-8.5 3.804-8.5 8.5 3.805 8.5 8.5 8.5zm0-14.5c3.313 0 6 2.686 6 6s-2.687 6-6 6-6-2.686-6-6 2.687-6 6-6z"/>
        <path d="m204 113.5c4.695 0 8.5-3.804 8.5-8.5s-3.805-8.5-8.5-8.5-8.5 3.804-8.5 8.5 3.805 8.5 8.5 8.5zm0-14.5c3.313 0 6 2.686 6 6s-2.687 6-6 6-6-2.686-6-6 2.687-6 6-6z"/>
        <path d="m204 203.5c4.695 0 8.5-3.804 8.5-8.5s-3.805-8.5-8.5-8.5-8.5 3.804-8.5 8.5 3.805 8.5 8.5 8.5zm0-14.5c3.313 0 6 2.686 6 6s-2.687 6-6 6-6-2.686-6-6 2.687-6 6-6z"/>
    </g>
    <g fill="#FFDD15">
        <path d="m133.5 284c0-4.695-3.804-8.5-8.5-8.5s-8.5 3.805-8.5 8.5 3.804 8.5 8.5 8.5 8.5-3.805 8.5-8.5zm-14.5 0c0-3.313 2.686-6 6-6s6 2.687 6 6-2.686 6-6 6-6-2.687-6-6z"/>
        <path d="m104.26 284c0-4.695-3.804-8.5-8.5-8.5s-8.5 3.805-8.5 8.5 3.804 8.5 8.5 8.5 8.5-3.805 8.5-8.5zm-14.5 0c0-3.313 2.686-6 6-6s6 2.687 6 6-2.686 6-6 6-6-2.687-6-6z"/>
        <path d="m73.5 284c0-4.695-3.804-8.5-8.5-8.5s-8.5 3.805-8.5 8.5 3.804 8.5 8.5 8.5 8.5-3.805 8.5-8.5zm-14.5 0c0-3.313 2.686-6 6-6s6 2.687 6 6-2.686 6-6 6-6-2.687-6-6z"/>
        <path d="m163.5 284c0-4.695-3.804-8.5-8.5-8.5s-8.5 3.805-8.5 8.5 3.804 8.5 8.5 8.5 8.5-3.805 8.5-8.5zm-14.5 0c0-3.313 2.686-6 6-6s6 2.687 6 6-2.686 6-6 6-6-2.687-6-6z"/>
    </g>
    <rect x="70.499" y="144.94" width="79.002" height="79.01" fill="#1A1A1A"/>
    <g fill="#BBBDBF">
        <rect x="54.504" y="154.22" width="15.995" height="7.614"/>
        <rect x="54.504" y="171.84" width="15.995" height="7.614"/>
        <rect x="54.504" y="189.45" width="15.995" height="7.614"/>
        <rect x="54.504" y="207.06" width="15.995" height="7.614"/>
    </g>
    <g fill="#BBBDBF">
        <rect x="149.5" y="154.22" width="15.995" height="7.614"/>
        <rect x="149.5" y="171.84" width="15.995" height="7.614"/>
        <rect x="149.5" y="189.45" width="15.995" height="7.614"/>
        <rect x="149.5" y="207.06" width="15.995" height="7.614"/>
    </g>
    <g fill="#BBBDBF">
        <rect x="132.62" y="128.95" width="7.614" height="15.995"/>
        <rect x="115" y="128.95" width="7.614" height="15.995"/>
        <rect x="97.39" y="128.95" width="7.614" height="15.995"/>
        <rect x="79.775" y="128.95" width="7.614" height="15.995"/>
    </g>
    <g fill="#BBBDBF">
        <rect x="132.62" y="223.95" width="7.614" height="15.995"/>
        <rect x="115" y="223.95" width="7.614" height="15.995"/>
        <rect x="97.39" y="223.95" width="7.614" height="15.995"/>
        <rect x="79.775" y="223.95" width="7.614" height="15.995"/>
    </g>
    <polygon points="149.5 144.94 149.5 223.95 70.499 223.95 78.499 231.95 157.5 231.95 157.5 223.95 157.5 152.94" fill="#231F20" opacity=".4"/>
    <g fill="#BBBDBF">
        <rect x="146.56" y="16.637" width="6.264" height="8.808"/>
        <rect x="67.176" y="16.637" width="6.268" height="8.808"/>
        <rect x="129.38" y="4.833" width="7.241" height="4.463"/>
        <path d="m146.56 0v48.936h-73.118v-48.936h73.118zm-9.936 23.979v-10.494c0.605-1.118 0.978-2.315 0.978-3.15 0-0.517-0.403-0.747-0.978-0.884l-1.431-0.154c-0.66-9e-3 -1.379 0-2.188 0s-1.531-9e-3 -2.191 0l-1.431 0.154c-0.576 0.137-0.978 0.367-0.978 0.884 0 0.835 0.373 2.032 0.978 3.15v10.494h7.241zm-46.007 0v-10.494c0.605-1.118 0.975-2.315 0.975-3.15 0-0.517-0.399-0.747-0.975-0.884l-1.429-0.154c-0.662-9e-3 -1.382 0-2.191 0s-1.53-9e-3 -2.19 0l-1.43 0.154c-0.575 0.137-0.977 0.367-0.977 0.884 0 0.835 0.37 2.032 0.977 3.15v10.494h7.24z"/>
    </g>
    <polygon points="146.56 0 146.56 48.936 73.443 48.936 81.443 56.936 154.56 56.936 154.56 48.936 154.56 8" fill="#231F20" opacity=".4"/>
    <g fill="none">
        <rect x="33.618" y="65.018" width="71.386" height="42.38" stroke="#808184"/>
        <rect x="32.693" y="64" width="71.386" height="42.38" stroke="#404041"/>
    </g>
    <g fill="#FFDD15">
        <path d="m40.208 71.911c-3.319 3.32-3.32 8.7 0 12.021 3.321 3.321 8.701 3.32 12.021 0s3.32-8.7 0-12.021-8.7-3.321-12.021 0zm10.254 10.253c-2.344 2.343-6.143 2.343-8.485 0-2.344-2.343-2.344-6.142 0-8.485 2.343-2.343 6.142-2.343 8.485 0 2.343 2.342 2.343 6.142 0 8.485z"/>
        <path d="m55.765 87.467c-3.32 3.32-3.32 8.701 0 12.021s8.701 3.32 12.021 0c3.319-3.32 3.32-8.701 0-12.021-3.321-3.321-8.701-3.32-12.021 0zm10.253 10.253c-2.343 2.343-6.142 2.344-8.485 0-2.343-2.343-2.343-6.142 0-8.485 2.344-2.343 6.143-2.343 8.485 0 2.344 2.343 2.344 6.142 0 8.485z"/>
    </g>
    <rect x="79.775" y="71.273" width="13.703" height="27.407" fill="#BBBDBF"/>
    <polygon points="93.479 78.125 93.479 91.829 79.775 91.829 87.775 99.829 101.48 99.829 101.48 86.125" fill="#231F20" opacity=".4"/>
    <rect x="79.775" y="78.125" width="13.703" height="13.704" fill="#00FF8C"/>
</svg>
