
<svg  
    xmlns="http://www.w3.org/2000/svg" 
    xmlns:xlink="http://www.w3.org/1999/xlink"
    width="778.0" 
    height="402.0" 
    viewBox="-279.0 0 778.0 402.0"
    class=""
>


    <style  type="text/css">
    @import url("quick_start_styles.css");
</style><image  x="0" y="0" href="quick_start_board.png" xlink:href="quick_start_board.png" height="260" width="220"/><g 
        class="legend" 
    transform="
        translate(260 236) 
        scale(1 1)
    "
>
        <rect class="inf" x="0" y="0" width="238" height="138.0" rx="0" transform="scale(1 1)" /><g 
        class="analog" 
    transform="
        translate(15.0 24.0) 
        scale(1 1)
    "
>
        
<text
    transform="
        translate(40.0 0) 
        scale(1 1)
    "  
>
    Analog
</text><g 
        class="pl analog" 
    transform="
        translate(30.0 0) 
        scale(1 1)
    "
>
        <path 
class="" 
d="M 0 0  H 10.0" 
transform="scale(-1.0 1)" 
fill="none" stroke="#0f0"/><g 
    transform="
        translate(-10.0 0) 
        scale(-1.0 1)
    "
>
    <rect fill="#555" class="label_box" x="0" y="-10.0" width="20.0" height="20.0" rx="2" />
    <text
        transform="scale(-1.0 1)" 
        x="-10.0"
        y="0" 
        fill="#999"
        dominant-baseline="middle" 
        text-anchor="middle"
    >
        
    </text>
</g>
</g>
</g><g 
        class="gpio" 
    transform="
        translate(15.0 54.0) 
        scale(1 1)
    "
>
        
<text
    transform="
        translate(40.0 0) 
        scale(1 1)
    "  
>
    GPIO
</text><g 
        class="pl gpio" 
    transform="
        translate(30.0 0) 
        scale(1 1)
    "
>
        <path 
class="" 
d="M 0 0  H 10.0" 
transform="scale(-1.0 1)" 
fill="none" stroke="#0f0"/><g 
    transform="
        translate(-10.0 0) 
        scale(-1.0 1)
    "
>
    <rect fill="#555" class="label_box" x="0" y="-10.0" width="20.0" height="20.0" rx="2" />
    <text
        transform="scale(-1.0 1)" 
        x="-10.0"
        y="0" 
        fill="#999"
        dominant-baseline="middle" 
        text-anchor="middle"
    >
        
    </text>
</g>
</g>
</g><g 
        class="pwr" 
    transform="
        translate(15.0 84.0) 
        scale(1 1)
    "
>
        
<text
    transform="
        translate(40.0 0) 
        scale(1 1)
    "  
>
    Power management
</text><g 
        class="pl pwr" 
    transform="
        translate(30.0 0) 
        scale(1 1)
    "
>
        <path 
class="" 
d="M 0 0  H 10.0" 
transform="scale(-1.0 1)" 
fill="none" stroke="#0f0"/><g 
    transform="
        translate(-10.0 0) 
        scale(-1.0 1)
    "
>
    <rect fill="#555" class="label_box" x="0" y="-10.0" width="20.0" height="20.0" rx="2" />
    <text
        transform="scale(-1.0 1)" 
        x="-10.0"
        y="0" 
        fill="#999"
        dominant-baseline="middle" 
        text-anchor="middle"
    >
        
    </text>
</g>
</g>
</g><g 
        class="pwm" 
    transform="
        translate(15.0 114.0) 
        scale(1 1)
    "
>
        
<text
    transform="
        translate(40.0 0) 
        scale(1 1)
    "  
>
    PWM
</text><g 
        class="pl pwm" 
    transform="
        translate(30.0 0) 
        scale(1 1)
    "
>
        <path 
class="" 
d="M 0 0  H 10.0" 
transform="scale(-1.0 1)" 
fill="none" stroke="#0f0"/><g 
    transform="
        translate(-10.0 0) 
        scale(-1.0 1)
    "
>
    <rect fill="#555" class="label_box" x="0" y="-10.0" width="20.0" height="20.0" rx="2" />
    <text
        transform="scale(-1.0 1)" 
        x="-10.0"
        y="0" 
        fill="#999"
        dominant-baseline="middle" 
        text-anchor="middle"
    >
        
    </text>
</g>
</g>
</g>
</g><g 
    transform="
        translate(16 100) 
        scale(1 1)
    "
>
        <g 
        class="pl-row" 
    transform="
        translate(0 0) 
        scale(1 1)
    "
>
        <g 
    transform="
        translate(-55 0) 
        scale(1 1)
    "
>
        <g 
        class="pl pwr" 
    transform="
        translate(-0.0 0) 
        scale(1 1)
    "
>
        <path 
class="" 
d="M 0 0  " 
transform="scale(-1.0 1)" 
fill="none" stroke="#0f0"/><g 
    transform="
        translate(-0.0 0) 
        scale(-1.0 1)
    "
>
    <rect fill="#555" class="label_box" x="0" y="-14.0" width="155" height="28" rx="2" />
    <text
        transform="scale(-1.0 1)" 
        x="-77.5"
        y="0" 
        fill="#999"
        dominant-baseline="middle" 
        text-anchor="middle"
    >
        Vcc
    </text>
</g>
</g>
</g><g 
        class="ll pwr" 
    transform="
        translate(0 0) 
        scale(1 1)
    "
>
        <path 
class="" 
d="M 0 0  H 55" 
transform="scale(-1.0 1)" 
fill="none" stroke="#0f0"/>
</g>
</g><g 
        class="pl-row" 
    transform="
        translate(0 30) 
        scale(1 1)
    "
>
        <g 
    transform="
        translate(-55 0) 
        scale(1 1)
    "
>
        <g 
        class="pl gpio" 
    transform="
        translate(-0.0 0) 
        scale(1 1)
    "
>
        <path 
class="" 
d="M 0 0  " 
transform="scale(-1.0 1)" 
fill="none" stroke="#0f0"/><g 
    transform="
        translate(-0.0 0) 
        scale(-1.0 1)
    "
>
    <rect fill="#555" class="label_box" x="0" y="-14.0" width="70" height="28" rx="2" />
    <text
        transform="scale(-1.0 1)" 
        x="-35.0"
        y="0" 
        fill="#999"
        dominant-baseline="middle" 
        text-anchor="middle"
    >
        2
    </text>
</g>
</g><g 
        class="pl analog" 
    transform="
        translate(-70.0 0) 
        scale(1 1)
    "
>
        <path 
class="" 
d="M 0 0  H 15" 
transform="scale(-1.0 1)" 
fill="none" stroke="#0f0"/><g 
    transform="
        translate(-15.0 0) 
        scale(-1.0 1)
    "
>
    <rect fill="#555" class="label_box" x="0" y="-14.0" width="70" height="28" rx="2" />
    <text
        transform="scale(-1.0 1)" 
        x="-35.0"
        y="0" 
        fill="#999"
        dominant-baseline="middle" 
        text-anchor="middle"
    >
        A2
    </text>
</g>
</g>
</g><g 
        class="ll gpio" 
    transform="
        translate(0 0) 
        scale(1 1)
    "
>
        <path 
class="" 
d="M 0 0  H 55" 
transform="scale(-1.0 1)" 
fill="none" stroke="#0f0"/>
</g>
</g><g 
        class="pl-row" 
    transform="
        translate(0 60) 
        scale(1 1)
    "
>
        <g 
    transform="
        translate(-55 0) 
        scale(1 1)
    "
>
        <g 
        class="pl gpio" 
    transform="
        translate(-0.0 0) 
        scale(1 1)
    "
>
        <path 
class="" 
d="M 0 0  " 
transform="scale(-1.0 1)" 
fill="none" stroke="#0f0"/><g 
    transform="
        translate(-0.0 0) 
        scale(-1.0 1)
    "
>
    <rect fill="#555" class="label_box" x="0" y="-14.0" width="70" height="28" rx="2" />
    <text
        transform="scale(-1.0 1)" 
        x="-35.0"
        y="0" 
        fill="#999"
        dominant-baseline="middle" 
        text-anchor="middle"
    >
        3
    </text>
</g>
</g><g 
        class="pl pwm" 
    transform="
        translate(-70.0 0) 
        scale(1 1)
    "
>
        <path 
class="" 
d="M 0 0  H 100" 
transform="scale(-1.0 1)" 
fill="none" stroke="#0f0"/><g 
    transform="
        translate(-100.0 0) 
        scale(-1.0 1)
    "
>
    <rect fill="#555" class="label_box" x="0" y="-14.0" width="70" height="28" rx="2" />
    <text
        transform="scale(-1.0 1)" 
        x="-35.0"
        y="0" 
        fill="#999"
        dominant-baseline="middle" 
        text-anchor="middle"
    >
        PWM
    </text>
</g>
</g>
</g><g 
        class="ll gpio" 
    transform="
        translate(0 0) 
        scale(1 1)
    "
>
        <path 
class="" 
d="M 0 0  H 55" 
transform="scale(-1.0 1)" 
fill="none" stroke="#0f0"/>
</g>
</g>
</g><g 
    transform="
        translate(204 100) 
        scale(1 1)
    "
>
        <g 
        class="pl-row" 
    transform="
        translate(0 0) 
        scale(1 1)
    "
>
        <g 
    transform="
        translate(55 0) 
        scale(1 1)
    "
>
        <g 
        class="pl pwr" 
    transform="
        translate(0 0) 
        scale(1 1)
    "
>
        <path 
class="" 
d="M 0 0  " 
transform="scale(1 1)" 
fill="none" stroke="#0f0"/><g 
    transform="
        translate(0 0) 
        scale(1 1)
    "
>
    <rect fill="#555" class="label_box" x="0" y="-14.0" width="155" height="28" rx="2" />
    <text
        transform="scale(1 1)" 
        x="77.5"
        y="0" 
        fill="#999"
        dominant-baseline="middle" 
        text-anchor="middle"
    >
        GND
    </text>
</g>
</g>
</g><g 
        class="ll pwr" 
    transform="
        translate(0 0) 
        scale(1 1)
    "
>
        <path 
class="" 
d="M 0 0  H 55" 
transform="scale(1 1)" 
fill="none" stroke="#0f0"/>
</g>
</g><g 
        class="pl-row" 
    transform="
        translate(0 30) 
        scale(1 1)
    "
>
        <g 
    transform="
        translate(55 0) 
        scale(1 1)
    "
>
        <g 
        class="pl gpio" 
    transform="
        translate(0 0) 
        scale(1 1)
    "
>
        <path 
class="" 
d="M 0 0  " 
transform="scale(1 1)" 
fill="none" stroke="#0f0"/><g 
    transform="
        translate(0 0) 
        scale(1 1)
    "
>
    <rect fill="#555" class="label_box" x="0" y="-14.0" width="70" height="28" rx="2" />
    <text
        transform="scale(1 1)" 
        x="35.0"
        y="0" 
        fill="#999"
        dominant-baseline="middle" 
        text-anchor="middle"
    >
        8
    </text>
</g>
</g><g 
        class="pl analog" 
    transform="
        translate(70 0) 
        scale(1 1)
    "
>
        <path 
class="" 
d="M 0 0  H 15" 
transform="scale(1 1)" 
fill="none" stroke="#0f0"/><g 
    transform="
        translate(15 0) 
        scale(1 1)
    "
>
    <rect fill="#555" class="label_box" x="0" y="-14.0" width="70" height="28" rx="2" />
    <text
        transform="scale(1 1)" 
        x="35.0"
        y="0" 
        fill="#999"
        dominant-baseline="middle" 
        text-anchor="middle"
    >
        A3
    </text>
</g>
</g>
</g><g 
        class="ll gpio" 
    transform="
        translate(0 0) 
        scale(1 1)
    "
>
        <path 
class="" 
d="M 0 0  H 55" 
transform="scale(1 1)" 
fill="none" stroke="#0f0"/>
</g>
</g><g 
        class="pl-row" 
    transform="
        translate(0 60) 
        scale(1 1)
    "
>
        <g 
    transform="
        translate(55 0) 
        scale(1 1)
    "
>
        <g 
        class="pl gpio" 
    transform="
        translate(0 0) 
        scale(1 1)
    "
>
        <path 
class="" 
d="M 0 0  " 
transform="scale(1 1)" 
fill="none" stroke="#0f0"/><g 
    transform="
        translate(0 0) 
        scale(1 1)
    "
>
    <rect fill="#555" class="label_box" x="0" y="-14.0" width="70" height="28" rx="2" />
    <text
        transform="scale(1 1)" 
        x="35.0"
        y="0" 
        fill="#999"
        dominant-baseline="middle" 
        text-anchor="middle"
    >
        7
    </text>
</g>
</g><g 
        class="pl analog" 
    transform="
        translate(70 0) 
        scale(1 1)
    "
>
        <path 
class="" 
d="M 0 0  H 15" 
transform="scale(1 1)" 
fill="none" stroke="#0f0"/><g 
    transform="
        translate(15 0) 
        scale(1 1)
    "
>
    <rect fill="#555" class="label_box" x="0" y="-14.0" width="70" height="28" rx="2" />
    <text
        transform="scale(1 1)" 
        x="35.0"
        y="0" 
        fill="#999"
        dominant-baseline="middle" 
        text-anchor="middle"
    >
        A3
    </text>
</g>
</g><g 
        class="pl pwm" 
    transform="
        translate(155 0) 
        scale(1 1)
    "
>
        <path 
class="" 
d="M 0 0  H 15" 
transform="scale(1 1)" 
fill="none" stroke="#0f0"/><g 
    transform="
        translate(15 0) 
        scale(1 1)
    "
>
    <rect fill="#555" class="label_box" x="0" y="-14.0" width="70" height="28" rx="2" />
    <text
        transform="scale(1 1)" 
        x="35.0"
        y="0" 
        fill="#999"
        dominant-baseline="middle" 
        text-anchor="middle"
    >
        PWM
    </text>
</g>
</g>
</g><g 
        class="ll gpio" 
    transform="
        translate(0 0) 
        scale(1 1)
    "
>
        <path 
class="" 
d="M 0 0  H 55" 
transform="scale(1 1)" 
fill="none" stroke="#0f0"/>
</g>
</g>
</g><g 
    transform="
        translate(65 244) 
        scale(1 1)
    "
>
        <g 
        class="pl-row" 
    transform="
        translate(0 0) 
        scale(1 1)
    "
>
        <g 
    transform="
        translate(-104 40) 
        scale(1 1)
    "
>
        <g 
        class="pl pwr" 
    transform="
        translate(-0.0 0) 
        scale(1 1)
    "
>
        <path 
class="" 
d="M 0 0  " 
transform="scale(-1.0 1.0)" 
fill="none" stroke="#0f0"/><g 
    transform="
        translate(-0.0 0.0) 
        scale(-1.0 1.0)
    "
>
    <rect fill="#555" class="label_box" x="0" y="-14.0" width="155" height="28" rx="2" />
    <text
        transform="scale(-1.0 1.0)" 
        x="-77.5"
        y="0" 
        fill="#999"
        dominant-baseline="middle" 
        text-anchor="middle"
    >
        RESET
    </text>
</g>
</g>
</g><g 
        class="ll pwr" 
    transform="
        translate(0 0) 
        scale(1 1)
    "
>
        <path 
class="" 
d="M 0 0 V 40 H 104" 
transform="scale(-1.0 1.0)" 
fill="none" stroke="#0f0"/>
</g>
</g><g 
        class="pl-row" 
    transform="
        translate(30 0) 
        scale(1 1)
    "
>
        <g 
    transform="
        translate(-134 70) 
        scale(1 1)
    "
>
        <g 
        class="pl gpio" 
    transform="
        translate(-0.0 0) 
        scale(1 1)
    "
>
        <path 
class="" 
d="M 0 0  " 
transform="scale(-1.0 1.0)" 
fill="none" stroke="#0f0"/><g 
    transform="
        translate(-0.0 0.0) 
        scale(-1.0 1.0)
    "
>
    <rect fill="#555" class="label_box" x="0" y="-14.0" width="70" height="28" rx="2" />
    <text
        transform="scale(-1.0 1.0)" 
        x="-35.0"
        y="0" 
        fill="#999"
        dominant-baseline="middle" 
        text-anchor="middle"
    >
        4
    </text>
</g>
</g><g 
        class="pl analog" 
    transform="
        translate(-70.0 0) 
        scale(1 1)
    "
>
        <path 
class="" 
d="M 0 0  H 15" 
transform="scale(-1.0 1.0)" 
fill="none" stroke="#0f0"/><g 
    transform="
        translate(-15.0 0.0) 
        scale(-1.0 1.0)
    "
>
    <rect fill="#555" class="label_box" x="0" y="-14.0" width="70" height="28" rx="2" />
    <text
        transform="scale(-1.0 1.0)" 
        x="-35.0"
        y="0" 
        fill="#999"
        dominant-baseline="middle" 
        text-anchor="middle"
    >
        ADC
    </text>
</g>
</g>
</g><g 
        class="ll gpio" 
    transform="
        translate(0 0) 
        scale(1 1)
    "
>
        <path 
class="" 
d="M 0 0 V 70 H 134" 
transform="scale(-1.0 1.0)" 
fill="none" stroke="#0f0"/>
</g>
</g><g 
        class="pl-row" 
    transform="
        translate(60 0) 
        scale(1 1)
    "
>
        <g 
    transform="
        translate(-164 100) 
        scale(1 1)
    "
>
        <g 
        class="pl gpio" 
    transform="
        translate(-0.0 0) 
        scale(1 1)
    "
>
        <path 
class="" 
d="M 0 0  " 
transform="scale(-1.0 1.0)" 
fill="none" stroke="#0f0"/><g 
    transform="
        translate(-0.0 0.0) 
        scale(-1.0 1.0)
    "
>
    <rect fill="#555" class="label_box" x="0" y="-14.0" width="70" height="28" rx="2" />
    <text
        transform="scale(-1.0 1.0)" 
        x="-35.0"
        y="0" 
        fill="#999"
        dominant-baseline="middle" 
        text-anchor="middle"
    >
        5
    </text>
</g>
</g><g 
        class="pl analog" 
    transform="
        translate(-70.0 0) 
        scale(1 1)
    "
>
        <path 
class="" 
d="M 0 0  H 15" 
transform="scale(-1.0 1.0)" 
fill="none" stroke="#0f0"/><g 
    transform="
        translate(-15.0 0.0) 
        scale(-1.0 1.0)
    "
>
    <rect fill="#555" class="label_box" x="0" y="-14.0" width="70" height="28" rx="2" />
    <text
        transform="scale(-1.0 1.0)" 
        x="-35.0"
        y="0" 
        fill="#999"
        dominant-baseline="middle" 
        text-anchor="middle"
    >
        ADC
    </text>
</g>
</g><g 
        class="pl pwm" 
    transform="
        translate(-155.0 0) 
        scale(1 1)
    "
>
        <path 
class="" 
d="M 0 0  H 15" 
transform="scale(-1.0 1.0)" 
fill="none" stroke="#0f0"/><g 
    transform="
        translate(-15.0 0.0) 
        scale(-1.0 1.0)
    "
>
    <rect fill="#555" class="label_box" x="0" y="-14.0" width="70" height="28" rx="2" />
    <text
        transform="scale(-1.0 1.0)" 
        x="-35.0"
        y="0" 
        fill="#999"
        dominant-baseline="middle" 
        text-anchor="middle"
    >
        PWM
    </text>
</g>
</g>
</g><g 
        class="ll gpio" 
    transform="
        translate(0 0) 
        scale(1 1)
    "
>
        <path 
class="" 
d="M 0 0 V 100 H 164" 
transform="scale(-1.0 1.0)" 
fill="none" stroke="#0f0"/>
</g>
</g><g 
        class="pl-row" 
    transform="
        translate(90 0) 
        scale(1 1)
    "
>
        <g 
    transform="
        translate(-194 130) 
        scale(1 1)
    "
>
        <g 
        class="pl gpio" 
    transform="
        translate(-0.0 0) 
        scale(1 1)
    "
>
        <path 
class="" 
d="M 0 0  " 
transform="scale(-1.0 1.0)" 
fill="none" stroke="#0f0"/><g 
    transform="
        translate(-0.0 0.0) 
        scale(-1.0 1.0)
    "
>
    <rect fill="#555" class="label_box" x="0" y="-14.0" width="70" height="28" rx="2" />
    <text
        transform="scale(-1.0 1.0)" 
        x="-35.0"
        y="0" 
        fill="#999"
        dominant-baseline="middle" 
        text-anchor="middle"
    >
        6
    </text>
</g>
</g><g 
        class="pl pwm" 
    transform="
        translate(-70.0 0) 
        scale(1 1)
    "
>
        <path 
class="" 
d="M 0 0  H 100" 
transform="scale(-1.0 1)" 
fill="none" stroke="#0f0"/><g 
    transform="
        translate(-100.0 0) 
        scale(-1.0 1)
    "
>
    <rect fill="#555" class="label_box" x="0" y="-14.0" width="70" height="28" rx="2" />
    <text
        transform="scale(-1.0 1)" 
        x="-35.0"
        y="0" 
        fill="#999"
        dominant-baseline="middle" 
        text-anchor="middle"
    >
        PWM
    </text>
</g>
</g>
</g><g 
        class="ll gpio" 
    transform="
        translate(0 0) 
        scale(1 1)
    "
>
        <path 
class="" 
d="M 0 0 V 130 H 194" 
transform="scale(-1.0 1.0)" 
fill="none" stroke="#0f0"/>
</g>
</g>
</g>
    
</svg>