
<svg  
    xmlns="http://www.w3.org/2000/svg" 
    xmlns:xlink="http://www.w3.org/1999/xlink"
    x="0"
    y="0"
    width="1200" 
    height="675" 
    viewBox="0 0 1200 675"
    class="diagram"
>

    <style type="text/css" media="screen">  
    <![CDATA[  
    .comments__{
    /* NOTE: comments in a css rule to work around an InkScape bug! */
    /* 
    
    Just for fun css for this diagram has been auto-generated, then enhanced with this second file.
    A new auto-generated CSS file can be created from the command-line:
    >>> py -m pinout.manager -o --css pinout_diagram styles_auto.css 
    
    */

}


text {
    font-family: Verdana, Georgia, sans-serif;
    font-size: 14px;
    font-weight: 300;
    dominant-baseline: auto;
}
.h1 {
    font-size: 30px;
    font-weight: bold;
    font-style: italic;
}
.italic{
    font-style: italic;
}
.strong{
    font-weight: bold;
}
.panel__title .panel__inner{
    fill: rgb(253, 203, 36);
    font-weight: bold;
    font-style: italic;
}
    ]]>  
</style>
<style type="text/css" media="screen">  
    <![CDATA[  
    

text {
    font-family: Verdana, Georgia, sans-serif;
    font-size: 14px;
    font-weight: normal;
}



    .pinlabel__leader{
        stroke-width: 2;
        fill: none;
    }

    .pinlabel__text{
        dominant-baseline: central;
        fill: #fff;
        
        font-weight: bold;
        stroke-width: 0;
        text-anchor: middle;
    }



        .gpio .pinlabel__body{
            fill: rgb(183, 76, 231);
        }
        .gpio .pinlabel__leader{
            stroke: rgb(183, 76, 231);
        }
        .gpio .swatch__body {
            fill: rgb(183, 76, 231);
        }
        .pwr .pinlabel__body{
            fill: rgb(109, 99, 25);
        }
        .pwr .pinlabel__leader{
            stroke: rgb(109, 99, 25);
        }
        .pwr .swatch__body {
            fill: rgb(109, 99, 25);
        }
        .pwm .pinlabel__body{
            fill: rgb(218, 96, 195);
        }
        .pwm .pinlabel__leader{
            stroke: rgb(218, 96, 195);
        }
        .pwm .swatch__body {
            fill: rgb(218, 96, 195);
        }
        .gnd .pinlabel__body{
            fill: rgb(25, 90, 5);
        }
        .gnd .pinlabel__leader{
            stroke: rgb(25, 90, 5);
        }
        .gnd .swatch__body {
            fill: rgb(25, 90, 5);
        }
        .touch .pinlabel__body{
            fill: rgb(200, 9, 45);
        }
        .touch .pinlabel__leader{
            stroke: rgb(200, 9, 45);
        }
        .touch .swatch__body {
            fill: rgb(200, 9, 45);
        }
        .comms .pinlabel__body{
            fill: rgb(57, 138, 188);
        }
        .comms .pinlabel__leader{
            stroke: rgb(57, 138, 188);
        }
        .comms .swatch__body {
            fill: rgb(57, 138, 188);
        }
        .analog .pinlabel__body{
            fill: rgb(96, 42, 122);
        }
        .analog .pinlabel__leader{
            stroke: rgb(96, 42, 122);
        }
        .analog .swatch__body {
            fill: rgb(96, 42, 122);
        }


    .panel__inner {
        fill: #fff;
    }
    .panel__outer {
        fill: #333;
    }


    .legendentry text {
        dominant-baseline: central;
    }


    .annotation__body {
        fill: rgb(253, 203, 36);
        stroke-width: 0;
    }
    .annotation__text {
        dominant-baseline: central;
        font-size: 14px;
        font-weight: bold;
        fill: rgb(63, 40, 6);
        text-anchor: middle;
    }
    .annotation__target {
        fill: none;
        stroke: rgb(253, 203, 36);
        stroke-width: 4px;
    }
    .annotation__leaderline {
        stroke: rgb(253, 203, 36);
        stroke-width: 4px;
        fill: none;
    }


    ]]>  
</style>
<g 
        class="panel__content panel"
    transform="
        translate(2 2) 
        scale(1 1)
    "
>
        <rect
 class="panel__outer" 
    x="-2" 
    y="-2" 
    width="1200" 
    height="675" 
    shape-rendering="geometricPrecision"
/><rect
 class="panel__inner" 
    x="0" 
    y="0" 
    width="1196" 
    height="671" 
    shape-rendering="geometricPrecision"
/><g 
        class="panel__graphic panel"
    transform="
        translate(2 2) 
        scale(1 1)
    "
>
        <rect
 class="panel__outer" 
    x="-2" 
    y="-2" 
    width="860" 
    height="671" 
    shape-rendering="geometricPrecision"
/><rect
 class="panel__inner" 
    x="0" 
    y="0" 
    width="856" 
    height="667" 
    shape-rendering="geometricPrecision"
/><g 
    transform="
        translate(318 200) 
        scale(1 1)
    "
>
        <image 
 
    x="0" 
    y="0" 
    href="hardware.png" 
    xlink:href="hardware.png" 
    height="300" 
    width="220"
/>
<g 
    transform="
        translate(204 106) 
        scale(1 1)
    "
>
        <g 
    transform="
        translate(0 0) 
        scale(1 1)
    "
>
        <g 
        class=" pinlabel pwr"
    transform="
        translate(0 0) 
        scale(1 1)
    "
>
        <path 
    class="pinlabel__leader" 
    d="M 0 0.0 L 8.25 0.0 C 33.0 0.0 33.0 0.0 57.75 0.0 L 66 0.0" 
    transform="scale(1 1) translate(0 0) " 
    shape-rendering="geometricPrecision"
/><rect
 class=" pinlabel__body" 
    x="66" 
    y="-13.0" 
    width="80" 
    height="26" 
    shape-rendering="geometricPrecision"
    rx="3" 
    ry="3" 
/><text
    class="pinlabel__text"
    transform="
        translate(106.0 0) 
        scale(1 1)
    "  
>
    Vcc
</text>
</g>
</g><g 
    transform="
        translate(0 0) 
        scale(1 1)
    "
>
        <g 
        class=" pinlabel gnd"
    transform="
        translate(0 30) 
        scale(1 1)
    "
>
        <path 
    class="pinlabel__leader" 
    d="M 0 0.0 L 8.25 0.0 C 33.0 0.0 33.0 0.0 57.75 0.0 L 66 0.0" 
    transform="scale(1 1) translate(0 0) " 
    shape-rendering="geometricPrecision"
/><rect
 class=" pinlabel__body" 
    x="66" 
    y="-13.0" 
    width="80" 
    height="26" 
    shape-rendering="geometricPrecision"
    rx="3" 
    ry="3" 
/><text
    class="pinlabel__text"
    transform="
        translate(106.0 0) 
        scale(1 1)
    "  
>
    GND
</text>
</g>
</g><g 
    transform="
        translate(0 0) 
        scale(1 1)
    "
>
        <g 
        class=" pinlabel gpio"
    transform="
        translate(0 60) 
        scale(1 1)
    "
>
        <path 
    class="pinlabel__leader" 
    d="M 0 0.0 L 8.25 0.0 C 33.0 0.0 33.0 0.0 57.75 0.0 L 66 0.0" 
    transform="scale(1 1) translate(0 0) " 
    shape-rendering="geometricPrecision"
/><rect
 class=" pinlabel__body" 
    x="66" 
    y="-13.0" 
    width="80" 
    height="26" 
    shape-rendering="geometricPrecision"
    rx="3" 
    ry="3" 
/><text
    class="pinlabel__text"
    transform="
        translate(106.0 0) 
        scale(1 1)
    "  
>
    3
</text>
</g><g 
        class=" pinlabel analog"
    transform="
        translate(146 60) 
        scale(1 1)
    "
>
        <path 
    class=" pinlabel__leader" 
    d="M 0 0.0 L 6 0.0" 
    transform="scale(1 1) translate(0 0) " 
    shape-rendering="geometricPrecision"
/><rect
 class=" pinlabel__body" 
    x="6" 
    y="-13.0" 
    width="80" 
    height="26" 
    shape-rendering="geometricPrecision"
    rx="3" 
    ry="3" 
/><text
    class="pinlabel__text"
    transform="
        translate(46.0 0) 
        scale(1 1)
    "  
>
    A6
</text>
</g><g 
        class=" pinlabel touch"
    transform="
        translate(232 60) 
        scale(1 1)
    "
>
        <path 
    class=" pinlabel__leader" 
    d="M 0 0.0 L 6 0.0" 
    transform="scale(1 1) translate(0 0) " 
    shape-rendering="geometricPrecision"
/><rect
 class=" pinlabel__body" 
    x="6" 
    y="-13.0" 
    width="80" 
    height="26" 
    shape-rendering="geometricPrecision"
    rx="3" 
    ry="3" 
/><text
    class="pinlabel__text"
    transform="
        translate(46.0 0) 
        scale(1 1)
    "  
>
    TOUCH
</text>
</g>
</g><g 
    transform="
        translate(0 0) 
        scale(1 1)
    "
>
        <g 
        class=" pinlabel gpio"
    transform="
        translate(0 90) 
        scale(1 1)
    "
>
        <path 
    class="pinlabel__leader" 
    d="M 0 0.0 L 8.25 0.0 C 33.0 0.0 33.0 0.0 57.75 0.0 L 66 0.0" 
    transform="scale(1 1) translate(0 0) " 
    shape-rendering="geometricPrecision"
/><rect
 class=" pinlabel__body" 
    x="66" 
    y="-13.0" 
    width="80" 
    height="26" 
    shape-rendering="geometricPrecision"
    rx="3" 
    ry="3" 
/><text
    class="pinlabel__text"
    transform="
        translate(106.0 0) 
        scale(1 1)
    "  
>
    4
</text>
</g><g 
        class=" pinlabel analog"
    transform="
        translate(146 90) 
        scale(1 1)
    "
>
        <path 
    class=" pinlabel__leader" 
    d="M 0 0.0 L 6 0.0" 
    transform="scale(1 1) translate(0 0) " 
    shape-rendering="geometricPrecision"
/><rect
 class=" pinlabel__body" 
    x="6" 
    y="-13.0" 
    width="80" 
    height="26" 
    shape-rendering="geometricPrecision"
    rx="3" 
    ry="3" 
/><text
    class="pinlabel__text"
    transform="
        translate(46.0 0) 
        scale(1 1)
    "  
>
    A5
</text>
</g>
</g>
</g><g 
    transform="
        translate(16 106) 
        scale(1 1)
    "
>
        <g 
    transform="
        translate(0 0) 
        scale(1 1)
    "
>
        <g 
        class=" pinlabel gpio"
    transform="
        translate(0 0) 
        scale(-1 1)
    "
>
        <path 
    class="pinlabel__leader" 
    d="M 0 0.0 L 8.25 0.0 C 33.0 0.0 33.0 0.0 57.75 0.0 L 66 0.0" 
    transform="scale(1 1) translate(0 0) " 
    shape-rendering="geometricPrecision"
/><rect
 class=" pinlabel__body" 
    x="66" 
    y="-13.0" 
    width="80" 
    height="26" 
    shape-rendering="geometricPrecision"
    rx="3" 
    ry="3" 
/><text
    class="pinlabel__text"
    transform="
        translate(106.0 0) 
        scale(-1 1)
    "  
>
    0
</text>
</g><g 
        class=" pinlabel analog"
    transform="
        translate(-146 0) 
        scale(-1 1)
    "
>
        <path 
    class=" pinlabel__leader" 
    d="M 0 0.0 L 6 0.0" 
    transform="scale(1 1) translate(0 0) " 
    shape-rendering="geometricPrecision"
/><rect
 class=" pinlabel__body" 
    x="6" 
    y="-13.0" 
    width="80" 
    height="26" 
    shape-rendering="geometricPrecision"
    rx="3" 
    ry="3" 
/><text
    class="pinlabel__text"
    transform="
        translate(46.0 0) 
        scale(-1 1)
    "  
>
    A0
</text>
</g><g 
        class=" pinlabel comms"
    transform="
        translate(-232 0) 
        scale(-1 1)
    "
>
        <path 
    class=" pinlabel__leader" 
    d="M 0 0.0 L 6 0.0" 
    transform="scale(1 1) translate(0 0) " 
    shape-rendering="geometricPrecision"
/><rect
 class=" pinlabel__body" 
    x="6" 
    y="-13.0" 
    width="80" 
    height="26" 
    shape-rendering="geometricPrecision"
    rx="3" 
    ry="3" 
/><text
    class="pinlabel__text"
    transform="
        translate(46.0 0) 
        scale(-1 1)
    "  
>
    MISO
</text>
</g>
</g><g 
    transform="
        translate(0 0) 
        scale(1 1)
    "
>
        <g 
        class=" pinlabel gpio"
    transform="
        translate(0 30) 
        scale(-1 1)
    "
>
        <path 
    class="pinlabel__leader" 
    d="M 0 0.0 L 8.25 0.0 C 33.0 0.0 33.0 0.0 57.75 0.0 L 66 0.0" 
    transform="scale(1 1) translate(0 0) " 
    shape-rendering="geometricPrecision"
/><rect
 class=" pinlabel__body" 
    x="66" 
    y="-13.0" 
    width="80" 
    height="26" 
    shape-rendering="geometricPrecision"
    rx="3" 
    ry="3" 
/><text
    class="pinlabel__text"
    transform="
        translate(106.0 0) 
        scale(-1 1)
    "  
>
    1
</text>
</g><g 
        class=" pinlabel comms"
    transform="
        translate(-146 30) 
        scale(-1 1)
    "
>
        <path 
    class=" pinlabel__leader" 
    d="M 0 0.0 L 92 0.0" 
    transform="scale(1 1) translate(0 0) " 
    shape-rendering="geometricPrecision"
/><rect
 class=" pinlabel__body" 
    x="92" 
    y="-13.0" 
    width="80" 
    height="26" 
    shape-rendering="geometricPrecision"
    rx="3" 
    ry="3" 
/><text
    class="pinlabel__text"
    transform="
        translate(132.0 0) 
        scale(-1 1)
    "  
>
    MOSI
</text>
</g>
</g><g 
    transform="
        translate(0 0) 
        scale(1 1)
    "
>
        <g 
        class=" pinlabel gpio"
    transform="
        translate(0 60) 
        scale(-1 1)
    "
>
        <path 
    class="pinlabel__leader" 
    d="M 0 0.0 L 8.25 0.0 C 33.0 0.0 33.0 0.0 57.75 0.0 L 66 0.0" 
    transform="scale(1 1) translate(0 0) " 
    shape-rendering="geometricPrecision"
/><rect
 class=" pinlabel__body" 
    x="66" 
    y="-13.0" 
    width="80" 
    height="26" 
    shape-rendering="geometricPrecision"
    rx="3" 
    ry="3" 
/><text
    class="pinlabel__text"
    transform="
        translate(106.0 0) 
        scale(-1 1)
    "  
>
    2
</text>
</g><g 
        class=" pinlabel analog"
    transform="
        translate(-146 60) 
        scale(-1 1)
    "
>
        <path 
    class=" pinlabel__leader" 
    d="M 0 0.0 L 6 0.0" 
    transform="scale(1 1) translate(0 0) " 
    shape-rendering="geometricPrecision"
/><rect
 class=" pinlabel__body" 
    x="6" 
    y="-13.0" 
    width="80" 
    height="26" 
    shape-rendering="geometricPrecision"
    rx="3" 
    ry="3" 
/><text
    class="pinlabel__text"
    transform="
        translate(46.0 0) 
        scale(-1 1)
    "  
>
    A1
</text>
</g><g 
        class=" pinlabel comms"
    transform="
        translate(-232 60) 
        scale(-1 1)
    "
>
        <path 
    class=" pinlabel__leader" 
    d="M 0 0.0 L 6 0.0" 
    transform="scale(1 1) translate(0 0) " 
    shape-rendering="geometricPrecision"
/><rect
 class=" pinlabel__body" 
    x="6" 
    y="-13.0" 
    width="80" 
    height="26" 
    shape-rendering="geometricPrecision"
    rx="3" 
    ry="3" 
/><text
    class="pinlabel__text"
    transform="
        translate(46.0 0) 
        scale(-1 1)
    "  
>
    SCLK
</text>
</g>
</g><g 
    transform="
        translate(0 0) 
        scale(1 1)
    "
>
        <g 
        class=" pinlabel pwr"
    transform="
        translate(0 90) 
        scale(-1 1)
    "
>
        <path 
    class="pinlabel__leader" 
    d="M 0 0.0 L 8.25 0.0 C 33.0 0.0 33.0 0.0 57.75 0.0 L 66 0.0" 
    transform="scale(1 1) translate(0 0) " 
    shape-rendering="geometricPrecision"
/><rect
 class=" pinlabel__body" 
    x="66" 
    y="-13.0" 
    width="80" 
    height="26" 
    shape-rendering="geometricPrecision"
    rx="3" 
    ry="3" 
/><text
    class="pinlabel__text"
    transform="
        translate(106.0 0) 
        scale(-1 1)
    "  
>
    RESET
</text>
</g>
</g>
</g><g 
    transform="
        translate(65 284) 
        scale(1 1)
    "
>
        <g 
    transform="
        translate(0 0) 
        scale(1 1)
    "
>
        <g 
        class=" pinlabel gpio"
    transform="
        translate(0 0) 
        scale(-1 1)
    "
>
        <path 
    class=" pinlabel__leader" 
    d="M 0.0 0 L 0.0 40.0 A 20.0 20.0 0 0 0 20.0 60.0 L 115 60.0" 
    transform="scale(1 1) translate(0 0) " 
    shape-rendering="geometricPrecision"
/><rect
 class=" pinlabel__body" 
    x="115" 
    y="47.0" 
    width="80" 
    height="26" 
    shape-rendering="geometricPrecision"
    rx="3" 
    ry="3" 
/><text
    class="pinlabel__text"
    transform="
        translate(155.0 60) 
        scale(-1 1)
    "  
>
    3
</text>
</g><g 
        class=" pinlabel analog"
    transform="
        translate(-195 60) 
        scale(-1 1)
    "
>
        <path 
    class=" pinlabel__leader" 
    d="M 0 0.0 L 6 0.0" 
    transform="scale(1 1) translate(0 0) " 
    shape-rendering="geometricPrecision"
/><rect
 class=" pinlabel__body" 
    x="6" 
    y="-13.0" 
    width="80" 
    height="26" 
    shape-rendering="geometricPrecision"
    rx="3" 
    ry="3" 
/><text
    class="pinlabel__text"
    transform="
        translate(46.0 0) 
        scale(-1 1)
    "  
>
    A2
</text>
</g><g 
        class=" pinlabel pwm"
    transform="
        translate(-281 60) 
        scale(-1 1)
    "
>
        <path 
    class=" pinlabel__leader" 
    d="M 0 0.0 L 6 0.0" 
    transform="scale(1 1) translate(0 0) " 
    shape-rendering="geometricPrecision"
/><rect
 class=" pinlabel__body" 
    x="6" 
    y="-13.0" 
    width="80" 
    height="26" 
    shape-rendering="geometricPrecision"
    rx="3" 
    ry="3" 
/><text
    class="pinlabel__text"
    transform="
        translate(46.0 0) 
        scale(-1 1)
    "  
>
    PWM
</text>
</g>
</g><g 
    transform="
        translate(0 0) 
        scale(1 1)
    "
>
        <g 
        class=" pinlabel gpio"
    transform="
        translate(30 0) 
        scale(-1 1)
    "
>
        <path 
    class=" pinlabel__leader" 
    d="M 0.0 0 L 0.0 60.0 A 30.0 30.0 0 0 0 30.0 90.0 L 145 90.0" 
    transform="scale(1 1) translate(0 0) " 
    shape-rendering="geometricPrecision"
/><rect
 class=" pinlabel__body" 
    x="145" 
    y="77.0" 
    width="80" 
    height="26" 
    shape-rendering="geometricPrecision"
    rx="3" 
    ry="3" 
/><text
    class="pinlabel__text"
    transform="
        translate(185.0 90) 
        scale(-1 1)
    "  
>
    4
</text>
</g><g 
        class=" pinlabel analog"
    transform="
        translate(-195 90) 
        scale(-1 1)
    "
>
        <path 
    class=" pinlabel__leader" 
    d="M 0 0.0 L 6 0.0" 
    transform="scale(1 1) translate(0 0) " 
    shape-rendering="geometricPrecision"
/><rect
 class=" pinlabel__body" 
    x="6" 
    y="-13.0" 
    width="80" 
    height="26" 
    shape-rendering="geometricPrecision"
    rx="3" 
    ry="3" 
/><text
    class="pinlabel__text"
    transform="
        translate(46.0 0) 
        scale(-1 1)
    "  
>
    A3
</text>
</g>
</g>
</g><g 
    transform="
        translate(155 284) 
        scale(1 1)
    "
>
        <g 
    transform="
        translate(0 0) 
        scale(1 1)
    "
>
        <g 
        class=" pinlabel gpio"
    transform="
        translate(0 0) 
        scale(1 1)
    "
>
        <path 
    class=" pinlabel__leader" 
    d="M 0.0 0 L 0.0 40.0 A 20.0 20.0 0 0 0 20.0 60.0 L 115 60.0" 
    transform="scale(1 1) translate(0 0) " 
    shape-rendering="geometricPrecision"
/><rect
 class=" pinlabel__body" 
    x="115" 
    y="47.0" 
    width="80" 
    height="26" 
    shape-rendering="geometricPrecision"
    rx="3" 
    ry="3" 
/><text
    class="pinlabel__text"
    transform="
        translate(155.0 60) 
        scale(1 1)
    "  
>
    6
</text>
</g><g 
        class=" pinlabel pwm"
    transform="
        translate(195 60) 
        scale(1 1)
    "
>
        <path 
    class=" pinlabel__leader" 
    d="M 0 0.0 L 6 0.0" 
    transform="scale(1 1) translate(0 0) " 
    shape-rendering="geometricPrecision"
/><rect
 class=" pinlabel__body" 
    x="6" 
    y="-13.0" 
    width="80" 
    height="26" 
    shape-rendering="geometricPrecision"
    rx="3" 
    ry="3" 
/><text
    class="pinlabel__text"
    transform="
        translate(46.0 0) 
        scale(1 1)
    "  
>
    PWM
</text>
</g>
</g><g 
    transform="
        translate(0 0) 
        scale(1 1)
    "
>
        <g 
        class=" pinlabel gpio"
    transform="
        translate(-30 0) 
        scale(1 1)
    "
>
        <path 
    class=" pinlabel__leader" 
    d="M 0.0 0 L 0.0 60.0 A 30.0 30.0 0 0 0 30.0 90.0 L 145 90.0" 
    transform="scale(1 1) translate(0 0) " 
    shape-rendering="geometricPrecision"
/><rect
 class=" pinlabel__body" 
    x="145" 
    y="77.0" 
    width="80" 
    height="26" 
    shape-rendering="geometricPrecision"
    rx="3" 
    ry="3" 
/><text
    class="pinlabel__text"
    transform="
        translate(185.0 90) 
        scale(1 1)
    "  
>
    5
</text>
</g><g 
        class=" pinlabel analog"
    transform="
        translate(195 90) 
        scale(1 1)
    "
>
        <path 
    class=" pinlabel__leader" 
    d="M 0 0.0 L 6 0.0" 
    transform="scale(1 1) translate(0 0) " 
    shape-rendering="geometricPrecision"
/><rect
 class=" pinlabel__body" 
    x="6" 
    y="-13.0" 
    width="80" 
    height="26" 
    shape-rendering="geometricPrecision"
    rx="3" 
    ry="3" 
/><text
    class="pinlabel__text"
    transform="
        translate(46.0 0) 
        scale(1 1)
    "  
>
    A4
</text>
</g><g 
        class=" pinlabel pwm"
    transform="
        translate(281 90) 
        scale(1 1)
    "
>
        <path 
    class=" pinlabel__leader" 
    d="M 0 0.0 L 6 0.0" 
    transform="scale(1 1) translate(0 0) " 
    shape-rendering="geometricPrecision"
/><rect
 class=" pinlabel__body" 
    x="6" 
    y="-13.0" 
    width="80" 
    height="26" 
    shape-rendering="geometricPrecision"
    rx="3" 
    ry="3" 
/><text
    class="pinlabel__text"
    transform="
        translate(46.0 0) 
        scale(1 1)
    "  
>
    PWM
</text>
</g>
</g>
</g><g 
    transform="
        translate(47 80) 
        scale(1 1)
    "
>
        <g 
    transform="
        translate(0 0) 
        scale(1 1)
    "
>
        <g 
        class=" pinlabel touch"
    transform="
        translate(0 0) 
        scale(-1 -1)
    "
>
        <path 
    class=" pinlabel__leader" 
    d="M 0.0 0 L 0.0 77.66666666666666 A 32.333333333333336 32.333333333333336 0 0 0 32.333333333333336 110.0 L 97 110.0" 
    transform="scale(1 1) translate(0 0) " 
    shape-rendering="geometricPrecision"
/><rect
 class=" pinlabel__body" 
    x="97" 
    y="97.0" 
    width="80" 
    height="26" 
    shape-rendering="geometricPrecision"
    rx="3" 
    ry="3" 
/><text
    class="pinlabel__text"
    transform="
        translate(137.0 110) 
        scale(-1 -1)
    "  
>
    TOUCH
</text>
</g><g 
        class=" pinlabel analog"
    transform="
        translate(-177 -110) 
        scale(-1 -1)
    "
>
        <path 
    class=" pinlabel__leader" 
    d="M 0 0.0 L 6 0.0" 
    transform="scale(1 1) translate(0 0) " 
    shape-rendering="geometricPrecision"
/><rect
 class=" pinlabel__body" 
    x="6" 
    y="-13.0" 
    width="80" 
    height="26" 
    shape-rendering="geometricPrecision"
    rx="3" 
    ry="3" 
/><text
    class="pinlabel__text"
    transform="
        translate(46.0 0) 
        scale(-1 -1)
    "  
>
    A7
</text>
</g>
</g><g 
    transform="
        translate(0 0) 
        scale(1 1)
    "
>
        <g 
        class=" pinlabel touch"
    transform="
        translate(15 15) 
        scale(-1 -1)
    "
>
        <path 
    class=" pinlabel__leader" 
    d="M 0.0 0 L 0.0 117.66666666666666 A 37.333333333333336 37.333333333333336 0 0 0 37.333333333333336 155.0 L 112 155.0" 
    transform="scale(1 1) translate(0 0) " 
    shape-rendering="geometricPrecision"
/><rect
 class=" pinlabel__body" 
    x="112" 
    y="142.0" 
    width="80" 
    height="26" 
    shape-rendering="geometricPrecision"
    rx="3" 
    ry="3" 
/><text
    class="pinlabel__text"
    transform="
        translate(152.0 155) 
        scale(-1 -1)
    "  
>
    TOUCH
</text>
</g>
</g>
</g><g 
        class=" annotation"
    transform="
        translate(110 0) 
        scale(1 -1)
    "
>
        <path 
    class="annotation__leaderline" 
    d="M 0.0 10 L 0.0 44.333333333333336 A 9.666666666666666 9.666666666666666 0 0 0 9.666666666666666 54.0 L 40 54.0" 
    transform="scale(1 1) translate(0 0) " 
    shape-rendering="geometricPrecision"
/><rect
 class="annotation__target" 
    x="-10" 
    y="-10" 
    width="20" 
    height="20" 
    shape-rendering="geometricPrecision"
    rx="10" 
    ry="10" 
/><rect
 class="annotation__body" 
    x="40" 
    y="29" 
    width="125" 
    height="50" 
    shape-rendering="geometricPrecision"
    rx="25" 
    ry="25" 
/><g 
        class="annotation__text textblock"
    transform="
        translate(102 55) 
        scale(1 -1)
    "
>
        <text
    class="textblock"
    transform="
        translate(0 0) 
        scale(1 1)
    "  
>
    USB-C
</text><text
    class="textblock"
    transform="
        translate(0 16) 
        scale(1 1)
    "  
>
    port
</text>
</g>
</g><g 
        class=" annotation"
    transform="
        translate(87 85) 
        scale(1 -1)
    "
>
        <path 
    class="annotation__leaderline" 
    d="M 0.0 20 L 0.0 179.66666666666666 A 13.333333333333334 13.333333333333334 0 0 0 13.333333333333334 193.0 L 40 193.0" 
    transform="scale(1 1) translate(0 0) " 
    shape-rendering="geometricPrecision"
/><rect
 class="annotation__target" 
    x="-20" 
    y="-20" 
    width="40" 
    height="40" 
    shape-rendering="geometricPrecision"
    rx="20" 
    ry="20" 
/><rect
 class="annotation__body" 
    x="40" 
    y="168" 
    width="125" 
    height="50" 
    shape-rendering="geometricPrecision"
    rx="25" 
    ry="25" 
/><g 
        class="annotation__text textblock"
    transform="
        translate(102 196) 
        scale(1 -1)
    "
>
        <text
    class="textblock"
    transform="
        translate(0 0) 
        scale(1 1)
    "  
>
    Status
</text><text
    class="textblock"
    transform="
        translate(0 16) 
        scale(1 1)
    "  
>
    LED
</text>
</g>
</g>
</g>
</g><g 
        class="panel__title panel"
    transform="
        translate(862 2) 
        scale(1 1)
    "
>
        <rect
 class="panel__outer" 
    x="-2" 
    y="-2" 
    width="336" 
    height="60" 
    shape-rendering="geometricPrecision"
/><rect
 class="panel__inner" 
    x="0" 
    y="0" 
    width="332" 
    height="56" 
    shape-rendering="geometricPrecision"
/><g 
        class="panel title_block textblock"
    transform="
        translate(10 40) 
        scale(1 1)
    "
>
        <text
    class="textblock"
    transform="
        translate(0 0) 
        scale(1 1)
    "  
>
    <tspan class='h1'>pinout</tspan>
</text>
</g>
</g><g 
        class="panel__legend panel"
    transform="
        translate(862 62) 
        scale(1 1)
    "
>
        <rect
 class="panel__outer" 
    x="-2" 
    y="-2" 
    width="336" 
    height="135" 
    shape-rendering="geometricPrecision"
/><rect
 class="panel__inner" 
    x="0" 
    y="0" 
    width="332" 
    height="131" 
    shape-rendering="geometricPrecision"
/><g 
        class=" legend"
    transform="
        translate(10 5) 
        scale(1 1)
    "
>
        <g 
        class="analog legendentry"
    transform="
        translate(0 0) 
        scale(1 1)
    "
>
        <g 
        class=" swatch"
    transform="
        translate(4.0 14.0) 
        scale(1 1)
    "
>
        <rect
 class=" swatch__body" 
    x="0" 
    y="-10.0" 
    width="20" 
    height="20" 
    shape-rendering="geometricPrecision"
/>
</g><text
    transform="
        translate(28.0 14.0) 
        scale(1 1)
    "  
>
    Analog
</text>
</g><g 
        class="comms legendentry"
    transform="
        translate(0 28) 
        scale(1 1)
    "
>
        <g 
        class=" swatch"
    transform="
        translate(4.0 14.0) 
        scale(1 1)
    "
>
        <rect
 class=" swatch__body" 
    x="0" 
    y="-10.0" 
    width="20" 
    height="20" 
    shape-rendering="geometricPrecision"
/>
</g><text
    transform="
        translate(28.0 14.0) 
        scale(1 1)
    "  
>
    Communication
</text>
</g><g 
        class="gnd legendentry"
    transform="
        translate(0 56) 
        scale(1 1)
    "
>
        <g 
        class=" swatch"
    transform="
        translate(4.0 14.0) 
        scale(1 1)
    "
>
        <rect
 class=" swatch__body" 
    x="0" 
    y="-10.0" 
    width="20" 
    height="20" 
    shape-rendering="geometricPrecision"
/>
</g><text
    transform="
        translate(28.0 14.0) 
        scale(1 1)
    "  
>
    Ground
</text>
</g><g 
        class="gpio legendentry"
    transform="
        translate(0 84) 
        scale(1 1)
    "
>
        <g 
        class=" swatch"
    transform="
        translate(4.0 14.0) 
        scale(1 1)
    "
>
        <rect
 class=" swatch__body" 
    x="0" 
    y="-10.0" 
    width="20" 
    height="20" 
    shape-rendering="geometricPrecision"
/>
</g><text
    transform="
        translate(28.0 14.0) 
        scale(1 1)
    "  
>
    GPIO
</text>
</g><g 
        class="touch legendentry"
    transform="
        translate(159 0) 
        scale(1 1)
    "
>
        <g 
        class=" swatch"
    transform="
        translate(4.0 14.0) 
        scale(1 1)
    "
>
        <rect
 class=" swatch__body" 
    x="0" 
    y="-10.0" 
    width="20" 
    height="20" 
    shape-rendering="geometricPrecision"
/>
</g><text
    transform="
        translate(28.0 14.0) 
        scale(1 1)
    "  
>
    Touch
</text>
</g><g 
        class="pwr legendentry"
    transform="
        translate(159 28) 
        scale(1 1)
    "
>
        <g 
        class=" swatch"
    transform="
        translate(4.0 14.0) 
        scale(1 1)
    "
>
        <rect
 class=" swatch__body" 
    x="0" 
    y="-10.0" 
    width="20" 
    height="20" 
    shape-rendering="geometricPrecision"
/>
</g><text
    transform="
        translate(28.0 14.0) 
        scale(1 1)
    "  
>
    Power
</text>
</g><g 
        class="pwm legendentry"
    transform="
        translate(159 56) 
        scale(1 1)
    "
>
        <g 
        class=" swatch"
    transform="
        translate(4.0 14.0) 
        scale(1 1)
    "
>
        <rect
 class=" swatch__body" 
    x="0" 
    y="-10.0" 
    width="20" 
    height="20" 
    shape-rendering="geometricPrecision"
/>
</g><text
    transform="
        translate(28.0 14.0) 
        scale(1 1)
    "  
>
    PWM
</text>
</g>
</g>
</g><g 
        class="panel__description panel"
    transform="
        translate(862 197) 
        scale(1 1)
    "
>
        <rect
 class="panel__outer" 
    x="-2" 
    y="-2" 
    width="336" 
    height="120" 
    shape-rendering="geometricPrecision"
/><rect
 class="panel__inner" 
    x="0" 
    y="0" 
    width="332" 
    height="116" 
    shape-rendering="geometricPrecision"
/><g 
        class="panel text_block textblock"
    transform="
        translate(10 20) 
        scale(1 1)
    "
>
        <text
    class="textblock"
    transform="
        translate(0 0) 
        scale(1 1)
    "  
>
    <tspan class='panel__name'>Description</tspan>
</text><text
    class="textblock"
    transform="
        translate(0 18) 
        scale(1 1)
    "  
>
    Demonstration diagram displaying pin-out
</text><text
    class="textblock"
    transform="
        translate(0 36) 
        scale(1 1)
    "  
>
    information of non-existent hardware.
</text><text
    class="textblock"
    transform="
        translate(0 54) 
        scale(1 1)
    "  
>
    Created with version 0.0.10
</text><text
    class="textblock"
    transform="
        translate(0 72) 
        scale(1 1)
    "  
>
    
</text>
</g>
</g><g 
        class="panel__notes panel"
    transform="
        translate(862 317) 
        scale(1 1)
    "
>
        <rect
 class="panel__outer" 
    x="-2" 
    y="-2" 
    width="336" 
    height="356" 
    shape-rendering="geometricPrecision"
/><rect
 class="panel__inner" 
    x="0" 
    y="0" 
    width="332" 
    height="352" 
    shape-rendering="geometricPrecision"
/><g 
        class="panel text_block textblock"
    transform="
        translate(10 20) 
        scale(1 1)
    "
>
        <text
    class="textblock"
    transform="
        translate(0 0) 
        scale(1 1)
    "  
>
    <tspan class='panel__name'>Notes</tspan>
</text><text
    class="textblock"
    transform="
        translate(0 18) 
        scale(1 1)
    "  
>
    <tspan class='italic'>pinout</tspan> is a Python application to assist
</text><text
    class="textblock"
    transform="
        translate(0 36) 
        scale(1 1)
    "  
>
    with documentation of electronic hardware.
</text><text
    class="textblock"
    transform="
        translate(0 54) 
        scale(1 1)
    "  
>
    Development is active with a goal to convert
</text><text
    class="textblock"
    transform="
        translate(0 72) 
        scale(1 1)
    "  
>
    a promising idea into a useful tool.
</text><text
    class="textblock"
    transform="
        translate(0 90) 
        scale(1 1)
    "  
>
    
</text><text
    class="textblock"
    transform="
        translate(0 108) 
        scale(1 1)
    "  
>
    Current release:
</text><text
    class="textblock"
    transform="
        translate(0 126) 
        scale(1 1)
    "  
>
    <tspan class='strong'>pinout.readthedocs.io</tspan>
</text>
</g>
</g>
</g>
    
</svg>