
<svg  
    xmlns="http://www.w3.org/2000/svg" 
    xmlns:xlink="http://www.w3.org/1999/xlink"
    x="0"
    y="0"
    width="1200" 
    height="675" 
    viewBox="0 0 1200 675"
    class="diagram"
>

    <style type="text/css" media="screen">  
    <![CDATA[  
    /*
#########################################################
#
# Default SVG presentation attributes (styles)
#
#########################################################
*/



path, rect {
    stroke: rgb(0, 0, 0);
    stroke-dasharray: 0;
    stroke-dashoffset: 0;
    stroke-linecap: round;
    stroke-linejoin: miter;
    stroke-miterlimit: inherit;
    stroke-opacity: 1;
    stroke-width: 0;
}
path{
    fill: none;
}
rect {
    fill: none;
}

text {
    font-family: Helvetica, Verdana, Georgia, sans-serif;
    font-size: 13px;
    font-weight: 300;
    dominant-baseline: auto;
}


/*************************************/
/* pinlabel defaults                 */

.label__body{
    fill: rgb(36, 36, 36);
    ry: 2px;
}

.label .lline{
    stroke-width: 2;
}
.label__text{
    dominant-baseline: central;
    fill: #fff;
    font-size: 12px;
    font-weight: bold;
    stroke-width: 0;
    text-anchor: middle;
}


/*************************************/
/* Legend                            */

.legend rect{
    fill: none;
}
.legend .swatch__body{
    fill: rgba(0,0,0,0);
}
.legend-entry__text{
    dominant-baseline: central;
    fill: #000;
}


/*
#########################################################
#
# Styles specific to user defined tags
#
#########################################################
*/

/* Layout */

.diagram__bg{
    fill: #333;
}
.panel--main .bg{
    fill: #fff;
}
.panel--meta .bg{
    fill: #f4f4f4;
}

/* PinLabels */

[class^="pwr"] .label__body,
[class*=" pwr"] .label__body{
    fill: rgb(173, 0, 0);
}
[class^="pwr"] .lline,
[class*=" pwr"] .lline{
    stroke: rgb(173, 0, 0);
}

[class^="gpio"] .label__body,
[class*=" gpio"] .label__body{
    fill: rgb(130, 139, 48);
}
[class^="gpio"] .lline,
[class*=" gpio"] .lline{
    stroke: rgb(130, 139, 48);
}

[class^="analog"] .label__body,
[class*=" analog"] .label__body{
    fill: rgb(18, 96, 133);
}
[class^="analog"] .lline,
[class*=" analog"] .lline{
    stroke: rgb(18, 96, 133);
}

[class^="led"] .label__body,
[class*=" led"] .label__body{
    fill: rgb(216, 158, 0);
}
[class^="led"] .lline,
[class*=" led"] .lline{
    stroke: rgb(216, 158, 0);
}

[class^="comms"] .label__body,
[class*=" comms"] .label__body{
    fill: rgb(182, 69, 176);
}
[class^="comms"] .lline,
[class*=" comms"] .lline{
    stroke: rgb(182, 69, 176);
}
    ]]>  
</style>
<rect
 class="diagram__bg" 
    x="0" 
    y="0" 
    width="1200" 
    height="675" 
    rx="" 
    shape-rendering="geometricPrecision"
/><g 
        class="panel--meta"
    transform="
        translate(2 2) 
        scale(1 1)
    "
>
        <rect
 class="bg" 
    x="0" 
    y="0" 
    width="1196" 
    height="71" 
    rx="" 
    shape-rendering="geometricPrecision"
/>
</g><g 
        class="panel--main"
    transform="
        translate(2 75) 
        scale(1 1)
    "
>
        <rect
 class="bg" 
    x="0" 
    y="0" 
    width="1196" 
    height="598" 
    rx="" 
    shape-rendering="geometricPrecision"
/><g 
    transform="
        translate(510 80) 
        scale(1 1)
    "
>
        <image 
 
    x="0" 
    y="0" 
    href="hardware.png" 
    xlink:href="hardware.png" 
    height="300" 
    width="220"
/>
<g 
    transform="
        translate(204 106) 
        scale(1 1)
    "
>
        <g 
        class="label__row"
    transform="
        translate(0 0) 
        scale(1 1)
    "
>
        <g 
        class="label pwr--3v3"
    transform="
        translate(0 0) 
        scale(1 1)
    "
>
        <path 
    class="lline" 
    d="M 0 0.0 L 7.5 0.0 C 30.0 0.0 30.0 -12.0 52.5 -12.0 L 60 -12.0" 
    transform="scale(1 1) translate(0 0) " 
    shape-rendering="geometricPrecision"
/><rect
 class="label__body" 
    x="60" 
    y="-25.0" 
    width="80" 
    height="26" 
    rx="" 
    shape-rendering="geometricPrecision"
/><text
    class="label__text"
    transform="
        translate(100.0 -12) 
        scale(1 1)
    "  
>
    Vcc
</text>
</g>
</g><g 
        class="label__row"
    transform="
        translate(0 0) 
        scale(1 1)
    "
>
        <g 
        class="label gnd"
    transform="
        translate(0 30) 
        scale(1 1)
    "
>
        <path 
    class="lline" 
    d="M 0 0.0 L 7.5 0.0 C 30.0 0.0 30.0 -4.0 52.5 -4.0 L 60 -4.0" 
    transform="scale(1 1) translate(0 0) " 
    shape-rendering="geometricPrecision"
/><rect
 class="label__body" 
    x="60" 
    y="-17.0" 
    width="80" 
    height="26" 
    rx="" 
    shape-rendering="geometricPrecision"
/><text
    class="label__text"
    transform="
        translate(100.0 -4) 
        scale(1 1)
    "  
>
    GND
</text>
</g>
</g><g 
        class="label__row"
    transform="
        translate(0 0) 
        scale(1 1)
    "
>
        <g 
        class="label gpio"
    transform="
        translate(0 60) 
        scale(1 1)
    "
>
        <path 
    class="lline" 
    d="M 0 0.0 L 7.5 0.0 C 30.0 0.0 30.0 4.0 52.5 4.0 L 60 4.0" 
    transform="scale(1 1) translate(0 0) " 
    shape-rendering="geometricPrecision"
/><rect
 class="label__body" 
    x="60" 
    y="-9.0" 
    width="80" 
    height="26" 
    rx="" 
    shape-rendering="geometricPrecision"
/><text
    class="label__text"
    transform="
        translate(100.0 4) 
        scale(1 1)
    "  
>
    3
</text>
</g><g 
        class="label analog"
    transform="
        translate(140 64) 
        scale(1 1)
    "
>
        <path 
    class="lline" 
    d="M 0 0.0 L 6 0.0" 
    transform="scale(1 1) translate(0 0) " 
    shape-rendering="geometricPrecision"
/><rect
 class="label__body" 
    x="6" 
    y="-13.0" 
    width="80" 
    height="26" 
    rx="" 
    shape-rendering="geometricPrecision"
/><text
    class="label__text"
    transform="
        translate(46.0 0) 
        scale(1 1)
    "  
>
    Lc2a
</text>
</g><g 
        class="label led"
    transform="
        translate(226 64) 
        scale(1 1)
    "
>
        <path 
    class="lline" 
    d="M 0 0.0 L 6 0.0" 
    transform="scale(1 1) translate(0 0) " 
    shape-rendering="geometricPrecision"
/><rect
 class="label__body" 
    x="6" 
    y="-13.0" 
    width="80" 
    height="26" 
    rx="" 
    shape-rendering="geometricPrecision"
/><text
    class="label__text"
    transform="
        translate(46.0 0) 
        scale(1 1)
    "  
>
    Lc2b
</text>
</g>
</g><g 
        class="label__row"
    transform="
        translate(0 0) 
        scale(1 1)
    "
>
        <g 
        class="label gpio"
    transform="
        translate(0 90) 
        scale(1 1)
    "
>
        <path 
    class="lline" 
    d="M 0 0.0 L 7.5 0.0 C 30.0 0.0 30.0 12.0 52.5 12.0 L 60 12.0" 
    transform="scale(1 1) translate(0 0) " 
    shape-rendering="geometricPrecision"
/><rect
 class="label__body" 
    x="60" 
    y="-1.0" 
    width="80" 
    height="26" 
    rx="" 
    shape-rendering="geometricPrecision"
/><text
    class="label__text"
    transform="
        translate(100.0 12) 
        scale(1 1)
    "  
>
    4
</text>
</g><g 
        class="label analog"
    transform="
        translate(140 102) 
        scale(1 1)
    "
>
        <path 
    class="lline" 
    d="M 0 0.0 L 6 0.0" 
    transform="scale(1 1) translate(0 0) " 
    shape-rendering="geometricPrecision"
/><rect
 class="label__body" 
    x="6" 
    y="-13.0" 
    width="80" 
    height="26" 
    rx="" 
    shape-rendering="geometricPrecision"
/><text
    class="label__text"
    transform="
        translate(46.0 0) 
        scale(1 1)
    "  
>
    Lc3a
</text>
</g>
</g>
</g><g 
    transform="
        translate(16 106) 
        scale(1 1)
    "
>
        <g 
        class="label__row"
    transform="
        translate(0 0) 
        scale(1 1)
    "
>
        <g 
        class="label gpio"
    transform="
        translate(0 0) 
        scale(-1 1)
    "
>
        <path 
    class="lline" 
    d="M 0 0.0 L 7.5 0.0 C 30.0 0.0 30.0 0.0 52.5 0.0 L 60 0.0" 
    transform="scale(1 1) translate(0 0) " 
    shape-rendering="geometricPrecision"
/><rect
 class="label__body" 
    x="60" 
    y="-13.0" 
    width="80" 
    height="26" 
    rx="" 
    shape-rendering="geometricPrecision"
/><text
    class="label__text"
    transform="
        translate(100.0 0) 
        scale(-1 1)
    "  
>
    0
</text>
</g><g 
        class="label gpio"
    transform="
        translate(-140 0) 
        scale(-1 1)
    "
>
        <path 
    class="lline" 
    d="M 0 0.0 L 6 0.0" 
    transform="scale(1 1) translate(0 0) " 
    shape-rendering="geometricPrecision"
/><rect
 class="label__body" 
    x="6" 
    y="-13.0" 
    width="80" 
    height="26" 
    rx="" 
    shape-rendering="geometricPrecision"
/><text
    class="label__text"
    transform="
        translate(46.0 0) 
        scale(-1 1)
    "  
>
    Lb0a
</text>
</g><g 
        class="label comms"
    transform="
        translate(-226 0) 
        scale(-1 1)
    "
>
        <path 
    class="lline" 
    d="M 0 0.0 L 6 0.0" 
    transform="scale(1 1) translate(0 0) " 
    shape-rendering="geometricPrecision"
/><rect
 class="label__body" 
    x="6" 
    y="-13.0" 
    width="80" 
    height="26" 
    rx="" 
    shape-rendering="geometricPrecision"
/><text
    class="label__text"
    transform="
        translate(46.0 0) 
        scale(-1 1)
    "  
>
    Lb03
</text>
</g>
</g><g 
        class="label__row"
    transform="
        translate(0 0) 
        scale(1 1)
    "
>
        <g 
        class="label gpio"
    transform="
        translate(0 30) 
        scale(-1 1)
    "
>
        <path 
    class="lline" 
    d="M 0 0.0 L 7.5 0.0 C 30.0 0.0 30.0 0.0 52.5 0.0 L 60 0.0" 
    transform="scale(1 1) translate(0 0) " 
    shape-rendering="geometricPrecision"
/><rect
 class="label__body" 
    x="60" 
    y="-13.0" 
    width="80" 
    height="26" 
    rx="" 
    shape-rendering="geometricPrecision"
/><text
    class="label__text"
    transform="
        translate(100.0 0) 
        scale(-1 1)
    "  
>
    1
</text>
</g><g 
        class="label comms"
    transform="
        translate(-140 30) 
        scale(-1 1)
    "
>
        <path 
    class="lline" 
    d="M 0 0.0 L 7.5 0.0 C 30.0 0.0 30.0 0.0 52.5 0.0 L 60 0.0" 
    transform="scale(1 1) translate(0 0) " 
    shape-rendering="geometricPrecision"
/><rect
 class="label__body" 
    x="60" 
    y="-13.0" 
    width="80" 
    height="26" 
    rx="" 
    shape-rendering="geometricPrecision"
/><text
    class="label__text"
    transform="
        translate(100.0 0) 
        scale(-1 1)
    "  
>
    Lc1a
</text>
</g>
</g><g 
        class="label__row"
    transform="
        translate(0 0) 
        scale(1 1)
    "
>
        <g 
        class="label gpio"
    transform="
        translate(0 60) 
        scale(-1 1)
    "
>
        <path 
    class="lline" 
    d="M 0 0.0 L 7.5 0.0 C 30.0 0.0 30.0 0.0 52.5 0.0 L 60 0.0" 
    transform="scale(1 1) translate(0 0) " 
    shape-rendering="geometricPrecision"
/><rect
 class="label__body" 
    x="60" 
    y="-13.0" 
    width="80" 
    height="26" 
    rx="" 
    shape-rendering="geometricPrecision"
/><text
    class="label__text"
    transform="
        translate(100.0 0) 
        scale(-1 1)
    "  
>
    2
</text>
</g><g 
        class="label analog"
    transform="
        translate(-140 60) 
        scale(-1 1)
    "
>
        <path 
    class="lline" 
    d="M 0 0.0 L 60 0.0" 
    transform="scale(1 1) translate(0 0) " 
    shape-rendering="geometricPrecision"
/><rect
 class="label__body" 
    x="60" 
    y="-13.0" 
    width="80" 
    height="26" 
    rx="" 
    shape-rendering="geometricPrecision"
/><text
    class="label__text"
    transform="
        translate(100.0 0) 
        scale(-1 1)
    "  
>
    Lc2a
</text>
</g><g 
        class="label led"
    transform="
        translate(-280 60) 
        scale(-1 1)
    "
>
        <path 
    class="lline" 
    d="M 0 0.0 L 6 0.0" 
    transform="scale(1 1) translate(0 0) " 
    shape-rendering="geometricPrecision"
/><rect
 class="label__body" 
    x="6" 
    y="-13.0" 
    width="80" 
    height="26" 
    rx="" 
    shape-rendering="geometricPrecision"
/><text
    class="label__text"
    transform="
        translate(46.0 0) 
        scale(-1 1)
    "  
>
    Lc2b
</text>
</g>
</g><g 
        class="label__row"
    transform="
        translate(0 0) 
        scale(1 1)
    "
>
        <g 
        class="label pwr"
    transform="
        translate(0 90) 
        scale(-1 1)
    "
>
        <path 
    class="lline" 
    d="M 0 0.0 L 7.5 0.0 C 30.0 0.0 30.0 0.0 52.5 0.0 L 60 0.0" 
    transform="scale(1 1) translate(0 0) " 
    shape-rendering="geometricPrecision"
/><rect
 class="label__body" 
    x="60" 
    y="-13.0" 
    width="80" 
    height="26" 
    rx="" 
    shape-rendering="geometricPrecision"
/><text
    class="label__text"
    transform="
        translate(100.0 0) 
        scale(-1 1)
    "  
>
    RESET
</text>
</g>
</g>
</g><g 
    transform="
        translate(65 284) 
        scale(1 1)
    "
>
        <g 
        class="label__row"
    transform="
        translate(0 0) 
        scale(1 1)
    "
>
        <g 
        class="label gpio"
    transform="
        translate(0 0) 
        scale(-1 1)
    "
>
        <path 
    class="lline" 
    d="M 0.0 0 L 0.0 40.0 A 20.0 20.0 0 0 0 20.0 60.0 L 109 60.0" 
    transform="scale(1 1) translate(0 0) " 
    shape-rendering="geometricPrecision"
/><rect
 class="label__body" 
    x="109" 
    y="47.0" 
    width="80" 
    height="26" 
    rx="" 
    shape-rendering="geometricPrecision"
/><text
    class="label__text"
    transform="
        translate(149.0 60) 
        scale(-1 1)
    "  
>
    3
</text>
</g><g 
        class="label analog"
    transform="
        translate(-189 60) 
        scale(-1 1)
    "
>
        <path 
    class="lline" 
    d="M 0 0.0 L 6 0.0" 
    transform="scale(1 1) translate(0 0) " 
    shape-rendering="geometricPrecision"
/><rect
 class="label__body" 
    x="6" 
    y="-13.0" 
    width="80" 
    height="26" 
    rx="" 
    shape-rendering="geometricPrecision"
/><text
    class="label__text"
    transform="
        translate(46.0 0) 
        scale(-1 1)
    "  
>
    Lc2a
</text>
</g><g 
        class="label led"
    transform="
        translate(-275 60) 
        scale(-1 1)
    "
>
        <path 
    class="lline" 
    d="M 0 0.0 L 6 0.0" 
    transform="scale(1 1) translate(0 0) " 
    shape-rendering="geometricPrecision"
/><rect
 class="label__body" 
    x="6" 
    y="-13.0" 
    width="80" 
    height="26" 
    rx="" 
    shape-rendering="geometricPrecision"
/><text
    class="label__text"
    transform="
        translate(46.0 0) 
        scale(-1 1)
    "  
>
    Lc2b
</text>
</g>
</g><g 
        class="label__row"
    transform="
        translate(0 0) 
        scale(1 1)
    "
>
        <g 
        class="label gpio"
    transform="
        translate(30 0) 
        scale(-1 1)
    "
>
        <path 
    class="lline" 
    d="M 0.0 0 L 0.0 60.0 A 30.0 30.0 0 0 0 30.0 90.0 L 139 90.0" 
    transform="scale(1 1) translate(0 0) " 
    shape-rendering="geometricPrecision"
/><rect
 class="label__body" 
    x="139" 
    y="77.0" 
    width="80" 
    height="26" 
    rx="" 
    shape-rendering="geometricPrecision"
/><text
    class="label__text"
    transform="
        translate(179.0 90) 
        scale(-1 1)
    "  
>
    4
</text>
</g><g 
        class="label pwm"
    transform="
        translate(-189 90) 
        scale(-1 1)
    "
>
        <path 
    class="lline" 
    d="M 0 0.0 L 6 0.0" 
    transform="scale(1 1) translate(0 0) " 
    shape-rendering="geometricPrecision"
/><rect
 class="label__body" 
    x="6" 
    y="-13.0" 
    width="80" 
    height="26" 
    rx="" 
    shape-rendering="geometricPrecision"
/><text
    class="label__text"
    transform="
        translate(46.0 0) 
        scale(-1 1)
    "  
>
    Lc2a
</text>
</g><g 
        class="label led"
    transform="
        translate(-275 90) 
        scale(-1 1)
    "
>
        <path 
    class="lline" 
    d="M 0 0.0 L 6 0.0" 
    transform="scale(1 1) translate(0 0) " 
    shape-rendering="geometricPrecision"
/><rect
 class="label__body" 
    x="6" 
    y="-13.0" 
    width="80" 
    height="26" 
    rx="" 
    shape-rendering="geometricPrecision"
/><text
    class="label__text"
    transform="
        translate(46.0 0) 
        scale(-1 1)
    "  
>
    Lc2b
</text>
</g>
</g>
</g><g 
    transform="
        translate(155 284) 
        scale(1 1)
    "
>
        <g 
        class="label__row"
    transform="
        translate(0 0) 
        scale(1 1)
    "
>
        <g 
        class="label gpio"
    transform="
        translate(0 0) 
        scale(1 1)
    "
>
        <path 
    class="lline" 
    d="M 0.0 0 L 0.0 40.0 A 20.0 20.0 0 0 0 20.0 60.0 L 109 60.0" 
    transform="scale(1 1) translate(0 0) " 
    shape-rendering="geometricPrecision"
/><rect
 class="label__body" 
    x="109" 
    y="47.0" 
    width="80" 
    height="26" 
    rx="" 
    shape-rendering="geometricPrecision"
/><text
    class="label__text"
    transform="
        translate(149.0 60) 
        scale(1 1)
    "  
>
    6
</text>
</g><g 
        class="label analog"
    transform="
        translate(189 60) 
        scale(1 1)
    "
>
        <path 
    class="lline" 
    d="M 0 0.0 L 6 0.0" 
    transform="scale(1 1) translate(0 0) " 
    shape-rendering="geometricPrecision"
/><rect
 class="label__body" 
    x="6" 
    y="-13.0" 
    width="80" 
    height="26" 
    rx="" 
    shape-rendering="geometricPrecision"
/><text
    class="label__text"
    transform="
        translate(46.0 0) 
        scale(1 1)
    "  
>
    Lc3a
</text>
</g>
</g><g 
        class="label__row"
    transform="
        translate(0 0) 
        scale(1 1)
    "
>
        <g 
        class="label gpio"
    transform="
        translate(-30 0) 
        scale(1 1)
    "
>
        <path 
    class="lline" 
    d="M 0.0 0 L 0.0 60.0 A 30.0 30.0 0 0 0 30.0 90.0 L 139 90.0" 
    transform="scale(1 1) translate(0 0) " 
    shape-rendering="geometricPrecision"
/><rect
 class="label__body" 
    x="139" 
    y="77.0" 
    width="80" 
    height="26" 
    rx="" 
    shape-rendering="geometricPrecision"
/><text
    class="label__text"
    transform="
        translate(179.0 90) 
        scale(1 1)
    "  
>
    5
</text>
</g><g 
        class="label pwm"
    transform="
        translate(189 90) 
        scale(1 1)
    "
>
        <path 
    class="lline" 
    d="M 0 0.0 L 6 0.0" 
    transform="scale(1 1) translate(0 0) " 
    shape-rendering="geometricPrecision"
/><rect
 class="label__body" 
    x="6" 
    y="-13.0" 
    width="80" 
    height="26" 
    rx="" 
    shape-rendering="geometricPrecision"
/><text
    class="label__text"
    transform="
        translate(46.0 0) 
        scale(1 1)
    "  
>
    Lc2a
</text>
</g><g 
        class="label led"
    transform="
        translate(275 90) 
        scale(1 1)
    "
>
        <path 
    class="lline" 
    d="M 0 0.0 L 6 0.0" 
    transform="scale(1 1) translate(0 0) " 
    shape-rendering="geometricPrecision"
/><rect
 class="label__body" 
    x="6" 
    y="-13.0" 
    width="80" 
    height="26" 
    rx="" 
    shape-rendering="geometricPrecision"
/><text
    class="label__text"
    transform="
        translate(46.0 0) 
        scale(1 1)
    "  
>
    Lc2b
</text>
</g>
</g>
</g>
</g>
</g>
    
</svg>