
<svg  
    xmlns="http://www.w3.org/2000/svg" 
    xmlns:xlink="http://www.w3.org/1999/xlink"
    x="0"
    y="0"
    width="1200" 
    height="675" 
    viewBox="0 0 1200 675"
    class="diagram"
>

    <style type="text/css" media="screen">  
    <![CDATA[  
    
path, rect {
    stroke: rgb(0, 0, 0);
    stroke-dasharray: 0;
    stroke-dashoffset: 0;
    stroke-linecap: round;
    stroke-linejoin: miter;
    stroke-miterlimit: inherit;
    stroke-opacity: 1;
    stroke-width: 0;
}
path{
    fill: none;
}
text {
    font-family: Verdana, Georgia, sans-serif;
    font-size: 14px;
    font-weight: 300;
    dominant-baseline: auto;
}



.label__body{
    fill: rgb(36, 36, 36);
}

.label .lline{
    stroke-width: 2;
}
.label__text{
    dominant-baseline: central;
    fill: #fff;
    font-size: 12px;
    font-weight: bold;
    stroke-width: 0;
    text-anchor: middle;
}



.legend .swatch__body{
    fill: rgba(0,0,0,0);
}
.legend-entry__text{
    dominant-baseline: central;
    fill: #000;
}
.legend__bg,
.legend-entry__bg{
    fill: #fff;
}
.legend-entry .swatch__body{
    fill: #ccc;
}



.annotation__bg{
    fill: rgb(230, 180, 10);
    stroke-width: 0;
}
.annotation__body text{
    dominant-baseline: central;
    font-size: 14px;
    fill: #000;
}
.annotation__target{
    fill: none;
    stroke: rgb(230, 180, 10);
    stroke-width: 4px;
}
.annotation .lline{
    stroke: rgb(230, 180, 10);
    stroke-width: 4px;
}



.diagram__bg{
    fill: rgb(51, 51, 51);
}
.panel .textblock__bg,
.panel__bg{
    fill: #fff;
}



.pwr .label__body,
.pwr .swatch__body{
    fill: rgb(173, 0, 0);
}
.pwr .lline{
    stroke: rgb(173, 0, 0);
}
.gpio .label__body,
.gpio .swatch__body{
    fill: rgb(130, 139, 48);
}
.gpio .lline{
    stroke: rgb(130, 139, 48);
}
.analog .label__body,
.analog .swatch__body{
    fill: rgb(18, 96, 133);
}
.analog .lline{
    stroke: rgb(18, 96, 133);
}
.led .label__body,
.led .swatch__body{
    fill: rgb(230, 180, 10);
}
.led .lline{
    stroke: rgb(230, 180, 10);
}
.comms .label__body,
.comms .swatch__body{
    fill: rgb(182, 69, 176);
}
.comms .lline{
    stroke: rgb(182, 69, 176);
}
.gnd .label__body,
.gnd .swatch__body{
    fill: #000;
}
.gnd .lline{
    stroke: #000;
}

.pwm .label__body,
.pwm .swatch__body{
    fill: rgb(28, 119, 123);
}
.pwm .lline{
    stroke: rgb(28, 119, 123);
}



.h1 {
    font-size: 30px;
    font-weight: bold;
    font-style: italic;
}
.italic{
    font-style: italic;
}
.strong{
    font-weight: bold;
}
.panel__name{
    fill: #ccc;
    font-weight: bold;
    font-style: italic;
}
    ]]>  
</style>
<rect
 class="diagram__bg" 
    x="0" 
    y="0" 
    width="1200" 
    height="675" 
    shape-rendering="geometricPrecision"
/><g 
        class="panel panel--main"
    transform="
        translate(2 2) 
        scale(1 1)
    "
>
        <rect
 class="panel__bg" 
    x="0" 
    y="0" 
    width="856" 
    height="671" 
    shape-rendering="geometricPrecision"
/><g 
    transform="
        translate(325 200) 
        scale(1 1)
    "
>
        <image 
 
    x="0" 
    y="0" 
    href="hardware.png" 
    xlink:href="hardware.png" 
    height="300" 
    width="220"
/>
<g 
    transform="
        translate(204 106) 
        scale(1 1)
    "
>
        <g 
        class="label__row"
    transform="
        translate(0 0) 
        scale(1 1)
    "
>
        <g 
        class="label pwr"
    transform="
        translate(0 0) 
        scale(1 1)
    "
>
        <path 
    class="lline" 
    d="M 0 0.0 L 7.5 0.0 C 30.0 0.0 30.0 0.0 52.5 0.0 L 60 0.0" 
    transform="scale(1 1) translate(0 0) " 
    shape-rendering="geometricPrecision"
/><rect
 class="label__body" 
    x="60" 
    y="-13.0" 
    width="80" 
    height="26" 
    shape-rendering="geometricPrecision"
/><text
    class="label__text"
    transform="
        translate(100.0 0) 
        scale(1 1)
    "  
>
    Vcc
</text>
</g>
</g><g 
        class="label__row"
    transform="
        translate(0 0) 
        scale(1 1)
    "
>
        <g 
        class="label gnd"
    transform="
        translate(0 30) 
        scale(1 1)
    "
>
        <path 
    class="lline" 
    d="M 0 0.0 L 7.5 0.0 C 30.0 0.0 30.0 0.0 52.5 0.0 L 60 0.0" 
    transform="scale(1 1) translate(0 0) " 
    shape-rendering="geometricPrecision"
/><rect
 class="label__body" 
    x="60" 
    y="-13.0" 
    width="80" 
    height="26" 
    shape-rendering="geometricPrecision"
/><text
    class="label__text"
    transform="
        translate(100.0 0) 
        scale(1 1)
    "  
>
    GND
</text>
</g>
</g><g 
        class="label__row"
    transform="
        translate(0 0) 
        scale(1 1)
    "
>
        <g 
        class="label gpio"
    transform="
        translate(0 60) 
        scale(1 1)
    "
>
        <path 
    class="lline" 
    d="M 0 0.0 L 7.5 0.0 C 30.0 0.0 30.0 0.0 52.5 0.0 L 60 0.0" 
    transform="scale(1 1) translate(0 0) " 
    shape-rendering="geometricPrecision"
/><rect
 class="label__body" 
    x="60" 
    y="-13.0" 
    width="80" 
    height="26" 
    shape-rendering="geometricPrecision"
/><text
    class="label__text"
    transform="
        translate(100.0 0) 
        scale(1 1)
    "  
>
    3
</text>
</g><g 
        class="label analog"
    transform="
        translate(140 60) 
        scale(1 1)
    "
>
        <path 
    class="lline" 
    d="M 0 0.0 L 6 0.0" 
    transform="scale(1 1) translate(0 0) " 
    shape-rendering="geometricPrecision"
/><rect
 class="label__body" 
    x="6" 
    y="-13.0" 
    width="80" 
    height="26" 
    shape-rendering="geometricPrecision"
/><text
    class="label__text"
    transform="
        translate(46.0 0) 
        scale(1 1)
    "  
>
    Lc2a
</text>
</g><g 
        class="label led"
    transform="
        translate(226 60) 
        scale(1 1)
    "
>
        <path 
    class="lline" 
    d="M 0 0.0 L 6 0.0" 
    transform="scale(1 1) translate(0 0) " 
    shape-rendering="geometricPrecision"
/><rect
 class="label__body" 
    x="6" 
    y="-13.0" 
    width="80" 
    height="26" 
    shape-rendering="geometricPrecision"
/><text
    class="label__text"
    transform="
        translate(46.0 0) 
        scale(1 1)
    "  
>
    Lc2b
</text>
</g>
</g><g 
        class="label__row"
    transform="
        translate(0 0) 
        scale(1 1)
    "
>
        <g 
        class="label gpio"
    transform="
        translate(0 90) 
        scale(1 1)
    "
>
        <path 
    class="lline" 
    d="M 0 0.0 L 7.5 0.0 C 30.0 0.0 30.0 0.0 52.5 0.0 L 60 0.0" 
    transform="scale(1 1) translate(0 0) " 
    shape-rendering="geometricPrecision"
/><rect
 class="label__body" 
    x="60" 
    y="-13.0" 
    width="80" 
    height="26" 
    shape-rendering="geometricPrecision"
/><text
    class="label__text"
    transform="
        translate(100.0 0) 
        scale(1 1)
    "  
>
    4
</text>
</g><g 
        class="label analog"
    transform="
        translate(140 90) 
        scale(1 1)
    "
>
        <path 
    class="lline" 
    d="M 0 0.0 L 6 0.0" 
    transform="scale(1 1) translate(0 0) " 
    shape-rendering="geometricPrecision"
/><rect
 class="label__body" 
    x="6" 
    y="-13.0" 
    width="80" 
    height="26" 
    shape-rendering="geometricPrecision"
/><text
    class="label__text"
    transform="
        translate(46.0 0) 
        scale(1 1)
    "  
>
    Lc3a
</text>
</g>
</g>
</g><g 
    transform="
        translate(16 106) 
        scale(1 1)
    "
>
        <g 
        class="label__row"
    transform="
        translate(0 0) 
        scale(1 1)
    "
>
        <g 
        class="label gpio"
    transform="
        translate(0 0) 
        scale(-1 1)
    "
>
        <path 
    class="lline" 
    d="M 0 0.0 L 7.5 0.0 C 30.0 0.0 30.0 0.0 52.5 0.0 L 60 0.0" 
    transform="scale(1 1) translate(0 0) " 
    shape-rendering="geometricPrecision"
/><rect
 class="label__body" 
    x="60" 
    y="-13.0" 
    width="80" 
    height="26" 
    shape-rendering="geometricPrecision"
/><text
    class="label__text"
    transform="
        translate(100.0 0) 
        scale(-1 1)
    "  
>
    0
</text>
</g><g 
        class="label gpio"
    transform="
        translate(-140 0) 
        scale(-1 1)
    "
>
        <path 
    class="lline" 
    d="M 0 0.0 L 6 0.0" 
    transform="scale(1 1) translate(0 0) " 
    shape-rendering="geometricPrecision"
/><rect
 class="label__body" 
    x="6" 
    y="-13.0" 
    width="80" 
    height="26" 
    shape-rendering="geometricPrecision"
/><text
    class="label__text"
    transform="
        translate(46.0 0) 
        scale(-1 1)
    "  
>
    Lb0a
</text>
</g><g 
        class="label comms"
    transform="
        translate(-226 0) 
        scale(-1 1)
    "
>
        <path 
    class="lline" 
    d="M 0 0.0 L 6 0.0" 
    transform="scale(1 1) translate(0 0) " 
    shape-rendering="geometricPrecision"
/><rect
 class="label__body" 
    x="6" 
    y="-13.0" 
    width="80" 
    height="26" 
    shape-rendering="geometricPrecision"
/><text
    class="label__text"
    transform="
        translate(46.0 0) 
        scale(-1 1)
    "  
>
    Lb03
</text>
</g>
</g><g 
        class="label__row"
    transform="
        translate(0 0) 
        scale(1 1)
    "
>
        <g 
        class="label gpio"
    transform="
        translate(0 30) 
        scale(-1 1)
    "
>
        <path 
    class="lline" 
    d="M 0 0.0 L 7.5 0.0 C 30.0 0.0 30.0 0.0 52.5 0.0 L 60 0.0" 
    transform="scale(1 1) translate(0 0) " 
    shape-rendering="geometricPrecision"
/><rect
 class="label__body" 
    x="60" 
    y="-13.0" 
    width="80" 
    height="26" 
    shape-rendering="geometricPrecision"
/><text
    class="label__text"
    transform="
        translate(100.0 0) 
        scale(-1 1)
    "  
>
    1
</text>
</g><g 
        class="label comms"
    transform="
        translate(-140 30) 
        scale(-1 1)
    "
>
        <path 
    class="lline" 
    d="M 0 0.0 L 6 0.0" 
    transform="scale(1 1) translate(0 0) " 
    shape-rendering="geometricPrecision"
/><rect
 class="label__body" 
    x="6" 
    y="-13.0" 
    width="80" 
    height="26" 
    shape-rendering="geometricPrecision"
/><text
    class="label__text"
    transform="
        translate(46.0 0) 
        scale(-1 1)
    "  
>
    Lc1a
</text>
</g>
</g><g 
        class="label__row"
    transform="
        translate(0 0) 
        scale(1 1)
    "
>
        <g 
        class="label gpio"
    transform="
        translate(0 60) 
        scale(-1 1)
    "
>
        <path 
    class="lline" 
    d="M 0 0.0 L 7.5 0.0 C 30.0 0.0 30.0 0.0 52.5 0.0 L 60 0.0" 
    transform="scale(1 1) translate(0 0) " 
    shape-rendering="geometricPrecision"
/><rect
 class="label__body" 
    x="60" 
    y="-13.0" 
    width="80" 
    height="26" 
    shape-rendering="geometricPrecision"
/><text
    class="label__text"
    transform="
        translate(100.0 0) 
        scale(-1 1)
    "  
>
    2
</text>
</g><g 
        class="label analog"
    transform="
        translate(-140 60) 
        scale(-1 1)
    "
>
        <path 
    class="lline" 
    d="M 0 0.0 L 6 0.0" 
    transform="scale(1 1) translate(0 0) " 
    shape-rendering="geometricPrecision"
/><rect
 class="label__body" 
    x="6" 
    y="-13.0" 
    width="80" 
    height="26" 
    shape-rendering="geometricPrecision"
/><text
    class="label__text"
    transform="
        translate(46.0 0) 
        scale(-1 1)
    "  
>
    Lc2a
</text>
</g><g 
        class="label led"
    transform="
        translate(-226 60) 
        scale(-1 1)
    "
>
        <path 
    class="lline" 
    d="M 0 0.0 L 6 0.0" 
    transform="scale(1 1) translate(0 0) " 
    shape-rendering="geometricPrecision"
/><rect
 class="label__body" 
    x="6" 
    y="-13.0" 
    width="80" 
    height="26" 
    shape-rendering="geometricPrecision"
/><text
    class="label__text"
    transform="
        translate(46.0 0) 
        scale(-1 1)
    "  
>
    Lc2b
</text>
</g>
</g><g 
        class="label__row"
    transform="
        translate(0 0) 
        scale(1 1)
    "
>
        <g 
        class="label pwr"
    transform="
        translate(0 90) 
        scale(-1 1)
    "
>
        <path 
    class="lline" 
    d="M 0 0.0 L 7.5 0.0 C 30.0 0.0 30.0 0.0 52.5 0.0 L 60 0.0" 
    transform="scale(1 1) translate(0 0) " 
    shape-rendering="geometricPrecision"
/><rect
 class="label__body" 
    x="60" 
    y="-13.0" 
    width="80" 
    height="26" 
    shape-rendering="geometricPrecision"
/><text
    class="label__text"
    transform="
        translate(100.0 0) 
        scale(-1 1)
    "  
>
    RESET
</text>
</g>
</g>
</g><g 
    transform="
        translate(65 284) 
        scale(1 1)
    "
>
        <g 
        class="label__row"
    transform="
        translate(0 0) 
        scale(1 1)
    "
>
        <g 
        class="label gpio"
    transform="
        translate(0 0) 
        scale(-1 1)
    "
>
        <path 
    class="lline" 
    d="M 0.0 0 L 0.0 40.0 A 20.0 20.0 0 0 0 20.0 60.0 L 109 60.0" 
    transform="scale(1 1) translate(0 0) " 
    shape-rendering="geometricPrecision"
/><rect
 class="label__body" 
    x="109" 
    y="47.0" 
    width="80" 
    height="26" 
    shape-rendering="geometricPrecision"
/><text
    class="label__text"
    transform="
        translate(149.0 60) 
        scale(-1 1)
    "  
>
    3
</text>
</g><g 
        class="label analog"
    transform="
        translate(-189 60) 
        scale(-1 1)
    "
>
        <path 
    class="lline" 
    d="M 0 0.0 L 6 0.0" 
    transform="scale(1 1) translate(0 0) " 
    shape-rendering="geometricPrecision"
/><rect
 class="label__body" 
    x="6" 
    y="-13.0" 
    width="80" 
    height="26" 
    shape-rendering="geometricPrecision"
/><text
    class="label__text"
    transform="
        translate(46.0 0) 
        scale(-1 1)
    "  
>
    Lc2a
</text>
</g><g 
        class="label led"
    transform="
        translate(-275 60) 
        scale(-1 1)
    "
>
        <path 
    class="lline" 
    d="M 0 0.0 L 6 0.0" 
    transform="scale(1 1) translate(0 0) " 
    shape-rendering="geometricPrecision"
/><rect
 class="label__body" 
    x="6" 
    y="-13.0" 
    width="80" 
    height="26" 
    shape-rendering="geometricPrecision"
/><text
    class="label__text"
    transform="
        translate(46.0 0) 
        scale(-1 1)
    "  
>
    Lc2b
</text>
</g>
</g><g 
        class="label__row"
    transform="
        translate(0 0) 
        scale(1 1)
    "
>
        <g 
        class="label gpio"
    transform="
        translate(30 0) 
        scale(-1 1)
    "
>
        <path 
    class="lline" 
    d="M 0.0 0 L 0.0 60.0 A 30.0 30.0 0 0 0 30.0 90.0 L 139 90.0" 
    transform="scale(1 1) translate(0 0) " 
    shape-rendering="geometricPrecision"
/><rect
 class="label__body" 
    x="139" 
    y="77.0" 
    width="80" 
    height="26" 
    shape-rendering="geometricPrecision"
/><text
    class="label__text"
    transform="
        translate(179.0 90) 
        scale(-1 1)
    "  
>
    4
</text>
</g><g 
        class="label pwm"
    transform="
        translate(-189 90) 
        scale(-1 1)
    "
>
        <path 
    class="lline" 
    d="M 0 0.0 L 6 0.0" 
    transform="scale(1 1) translate(0 0) " 
    shape-rendering="geometricPrecision"
/><rect
 class="label__body" 
    x="6" 
    y="-13.0" 
    width="80" 
    height="26" 
    shape-rendering="geometricPrecision"
/><text
    class="label__text"
    transform="
        translate(46.0 0) 
        scale(-1 1)
    "  
>
    Lc2a
</text>
</g><g 
        class="label led"
    transform="
        translate(-275 90) 
        scale(-1 1)
    "
>
        <path 
    class="lline" 
    d="M 0 0.0 L 6 0.0" 
    transform="scale(1 1) translate(0 0) " 
    shape-rendering="geometricPrecision"
/><rect
 class="label__body" 
    x="6" 
    y="-13.0" 
    width="80" 
    height="26" 
    shape-rendering="geometricPrecision"
/><text
    class="label__text"
    transform="
        translate(46.0 0) 
        scale(-1 1)
    "  
>
    Lc2b
</text>
</g>
</g>
</g><g 
    transform="
        translate(155 284) 
        scale(1 1)
    "
>
        <g 
        class="label__row"
    transform="
        translate(0 0) 
        scale(1 1)
    "
>
        <g 
        class="label gpio"
    transform="
        translate(0 0) 
        scale(1 1)
    "
>
        <path 
    class="lline" 
    d="M 0.0 0 L 0.0 40.0 A 20.0 20.0 0 0 0 20.0 60.0 L 109 60.0" 
    transform="scale(1 1) translate(0 0) " 
    shape-rendering="geometricPrecision"
/><rect
 class="label__body" 
    x="109" 
    y="47.0" 
    width="80" 
    height="26" 
    shape-rendering="geometricPrecision"
/><text
    class="label__text"
    transform="
        translate(149.0 60) 
        scale(1 1)
    "  
>
    6
</text>
</g><g 
        class="label analog"
    transform="
        translate(189 60) 
        scale(1 1)
    "
>
        <path 
    class="lline" 
    d="M 0 0.0 L 6 0.0" 
    transform="scale(1 1) translate(0 0) " 
    shape-rendering="geometricPrecision"
/><rect
 class="label__body" 
    x="6" 
    y="-13.0" 
    width="80" 
    height="26" 
    shape-rendering="geometricPrecision"
/><text
    class="label__text"
    transform="
        translate(46.0 0) 
        scale(1 1)
    "  
>
    Lc3a
</text>
</g>
</g><g 
        class="label__row"
    transform="
        translate(0 0) 
        scale(1 1)
    "
>
        <g 
        class="label gpio"
    transform="
        translate(-30 0) 
        scale(1 1)
    "
>
        <path 
    class="lline" 
    d="M 0.0 0 L 0.0 60.0 A 30.0 30.0 0 0 0 30.0 90.0 L 139 90.0" 
    transform="scale(1 1) translate(0 0) " 
    shape-rendering="geometricPrecision"
/><rect
 class="label__body" 
    x="139" 
    y="77.0" 
    width="80" 
    height="26" 
    shape-rendering="geometricPrecision"
/><text
    class="label__text"
    transform="
        translate(179.0 90) 
        scale(1 1)
    "  
>
    5
</text>
</g><g 
        class="label pwm"
    transform="
        translate(189 90) 
        scale(1 1)
    "
>
        <path 
    class="lline" 
    d="M 0 0.0 L 6 0.0" 
    transform="scale(1 1) translate(0 0) " 
    shape-rendering="geometricPrecision"
/><rect
 class="label__body" 
    x="6" 
    y="-13.0" 
    width="80" 
    height="26" 
    shape-rendering="geometricPrecision"
/><text
    class="label__text"
    transform="
        translate(46.0 0) 
        scale(1 1)
    "  
>
    Lc2a
</text>
</g><g 
        class="label led"
    transform="
        translate(275 90) 
        scale(1 1)
    "
>
        <path 
    class="lline" 
    d="M 0 0.0 L 6 0.0" 
    transform="scale(1 1) translate(0 0) " 
    shape-rendering="geometricPrecision"
/><rect
 class="label__body" 
    x="6" 
    y="-13.0" 
    width="80" 
    height="26" 
    shape-rendering="geometricPrecision"
/><text
    class="label__text"
    transform="
        translate(46.0 0) 
        scale(1 1)
    "  
>
    Lc2b
</text>
</g>
</g>
</g><g 
    transform="
        translate(47 80) 
        scale(1 1)
    "
>
        <g 
        class="label__row"
    transform="
        translate(0 0) 
        scale(1 1)
    "
>
        <g 
        class="label led"
    transform="
        translate(0 0) 
        scale(-1 -1)
    "
>
        <path 
    class="lline" 
    d="M 0.0 0 L 0.0 79.66666666666667 A 30.333333333333332 30.333333333333332 0 0 0 30.333333333333332 110.0 L 91 110.0" 
    transform="scale(1 1) translate(0 0) " 
    shape-rendering="geometricPrecision"
/><rect
 class="label__body" 
    x="91" 
    y="97.0" 
    width="80" 
    height="26" 
    shape-rendering="geometricPrecision"
/><text
    class="label__text"
    transform="
        translate(131.0 110) 
        scale(-1 -1)
    "  
>
    a
</text>
</g><g 
        class="label analog"
    transform="
        translate(-171 -110) 
        scale(-1 -1)
    "
>
        <path 
    class="lline" 
    d="M 0 0.0 L 6 0.0" 
    transform="scale(1 1) translate(0 0) " 
    shape-rendering="geometricPrecision"
/><rect
 class="label__body" 
    x="6" 
    y="-13.0" 
    width="80" 
    height="26" 
    shape-rendering="geometricPrecision"
/><text
    class="label__text"
    transform="
        translate(46.0 0) 
        scale(-1 -1)
    "  
>
    AUX_a
</text>
</g>
</g><g 
        class="label__row"
    transform="
        translate(0 0) 
        scale(1 1)
    "
>
        <g 
        class="label led"
    transform="
        translate(15 15) 
        scale(-1 -1)
    "
>
        <path 
    class="lline" 
    d="M 0.0 0 L 0.0 119.66666666666666 A 35.333333333333336 35.333333333333336 0 0 0 35.333333333333336 155.0 L 106 155.0" 
    transform="scale(1 1) translate(0 0) " 
    shape-rendering="geometricPrecision"
/><rect
 class="label__body" 
    x="106" 
    y="142.0" 
    width="80" 
    height="26" 
    shape-rendering="geometricPrecision"
/><text
    class="label__text"
    transform="
        translate(146.0 155) 
        scale(-1 -1)
    "  
>
    b
</text>
</g><g 
        class="label pwm"
    transform="
        translate(-171 -140) 
        scale(-1 -1)
    "
>
        <path 
    class="lline" 
    d="M 0 0.0 L 6 0.0" 
    transform="scale(1 1) translate(0 0) " 
    shape-rendering="geometricPrecision"
/><rect
 class="label__body" 
    x="6" 
    y="-13.0" 
    width="80" 
    height="26" 
    shape-rendering="geometricPrecision"
/><text
    class="label__text"
    transform="
        translate(46.0 0) 
        scale(-1 -1)
    "  
>
    AUX_b
</text>
</g><g 
        class="label pwm"
    transform="
        translate(-257 -140) 
        scale(-1 -1)
    "
>
        <path 
    class="lline" 
    d="M 0 0.0 L 6 0.0" 
    transform="scale(1 1) translate(0 0) " 
    shape-rendering="geometricPrecision"
/><rect
 class="label__body" 
    x="6" 
    y="-13.0" 
    width="80" 
    height="26" 
    shape-rendering="geometricPrecision"
/><text
    class="label__text"
    transform="
        translate(46.0 0) 
        scale(-1 -1)
    "  
>
    PWM
</text>
</g>
</g>
</g><g 
        class="annotation"
    transform="
        translate(110 0) 
        scale(1 -1)
    "
>
        <path 
    class="lline annotation__leaderline" 
    d="M 0.0 10 L 0.0 44.333333333333336 A 9.666666666666666 9.666666666666666 0 0 0 9.666666666666666 54.0 L 40 54.0" 
    transform="scale(1 1) translate(0 0) " 
    shape-rendering="geometricPrecision"
/><rect
 class="annotation__target annotation__target" 
    x="-10" 
    y="-10" 
    width="20" 
    height="20" 
    shape-rendering="geometricPrecision"
    rx="10" 
    ry="10" 
/><g 
        class="annotation__body"
    transform="
        translate(40 29) 
        scale(1 1)
    "
>
        <rect
 class="annotation__bg" 
    x="0" 
    y="0" 
    width="250" 
    height="50" 
    shape-rendering="geometricPrecision"
    rx="25" 
    ry="25" 
/><g 
        class="textblock textblock"
    transform="
        translate(28 33) 
        scale(1 1)
    "
>
        <text
    class="textblock"
    transform="
        translate(0 0) 
        scale(1 -1)
    "  
>
    USB-C connector
</text><text
    class="textblock"
    transform="
        translate(0 -18) 
        scale(1 -1)
    "  
>
    Host/device functionality
</text>
</g>
</g>
</g><g 
        class="annotation"
    transform="
        translate(86.5 85) 
        scale(1 -1)
    "
>
        <path 
    class="lline annotation__leaderline" 
    d="M 0.0 20 L 0.0 179.66666666666666 A 13.333333333333334 13.333333333333334 0 0 0 13.333333333333334 193.0 L 40 193.0" 
    transform="scale(1 1) translate(0 0) " 
    shape-rendering="geometricPrecision"
/><rect
 class="annotation__target annotation__target" 
    x="-20" 
    y="-20" 
    width="40" 
    height="40" 
    shape-rendering="geometricPrecision"
    rx="20" 
    ry="20" 
/><g 
        class="annotation__body"
    transform="
        translate(40 168) 
        scale(1 1)
    "
>
        <rect
 class="annotation__bg" 
    x="0" 
    y="0" 
    width="125" 
    height="50" 
    shape-rendering="geometricPrecision"
    rx="25" 
    ry="25" 
/><g 
        class="textblock textblock"
    transform="
        translate(28 33) 
        scale(1 1)
    "
>
        <text
    class="textblock"
    transform="
        translate(0 0) 
        scale(1 -1)
    "  
>
    Onboard
</text><text
    class="textblock"
    transform="
        translate(0 -18) 
        scale(1 -1)
    "  
>
    LED
</text>
</g>
</g>
</g>
</g>
</g><g 
        class="textblock textblock panel title_block"
    transform="
        translate(860 2) 
        scale(1 1)
    "
>
        <rect
 class="textblock__bg" 
    x="0" 
    y="0" 
    width="338" 
    height="60" 
    shape-rendering="geometricPrecision"
/><text
    class="textblock"
    transform="
        translate(10 40) 
        scale(1 1)
    "  
>
    <tspan class='h1'>pinout</tspan>
</text>
</g><g 
        class="legend"
    transform="
        translate(860 64) 
        scale(1 1)
    "
>
        <rect
 class="legend__bg" 
    x="0" 
    y="0" 
    width="338" 
    height="132" 
    shape-rendering="geometricPrecision"
/><g 
        class="legend-entry analog"
    transform="
        translate(10 10) 
        scale(1 1)
    "
>
        <rect
 class="legend-entry__bg" 
    x="0" 
    y="0" 
    width="159" 
    height="28" 
    shape-rendering="geometricPrecision"
/><g 
        class="swatch"
    transform="
        translate(4.0 14.0) 
        scale(1 1)
    "
>
        <rect
 class="swatch__body" 
    x="0" 
    y="-10.0" 
    width="20" 
    height="20" 
    shape-rendering="geometricPrecision"
/>
</g><text
    class="legend-entry__text"
    transform="
        translate(28.0 14.0) 
        scale(1 1)
    "  
>
    Analog
</text>
</g><g 
        class="legend-entry comms"
    transform="
        translate(10 38) 
        scale(1 1)
    "
>
        <rect
 class="legend-entry__bg" 
    x="0" 
    y="0" 
    width="159" 
    height="28" 
    shape-rendering="geometricPrecision"
/><g 
        class="swatch"
    transform="
        translate(4.0 14.0) 
        scale(1 1)
    "
>
        <rect
 class="swatch__body" 
    x="0" 
    y="-10.0" 
    width="20" 
    height="20" 
    shape-rendering="geometricPrecision"
/>
</g><text
    class="legend-entry__text"
    transform="
        translate(28.0 14.0) 
        scale(1 1)
    "  
>
    Communication
</text>
</g><g 
        class="legend-entry gnd"
    transform="
        translate(10 66) 
        scale(1 1)
    "
>
        <rect
 class="legend-entry__bg" 
    x="0" 
    y="0" 
    width="159" 
    height="28" 
    shape-rendering="geometricPrecision"
/><g 
        class="swatch"
    transform="
        translate(4.0 14.0) 
        scale(1 1)
    "
>
        <rect
 class="swatch__body" 
    x="0" 
    y="-10.0" 
    width="20" 
    height="20" 
    shape-rendering="geometricPrecision"
/>
</g><text
    class="legend-entry__text"
    transform="
        translate(28.0 14.0) 
        scale(1 1)
    "  
>
    Ground
</text>
</g><g 
        class="legend-entry gpio"
    transform="
        translate(10 94) 
        scale(1 1)
    "
>
        <rect
 class="legend-entry__bg" 
    x="0" 
    y="0" 
    width="159" 
    height="28" 
    shape-rendering="geometricPrecision"
/><g 
        class="swatch"
    transform="
        translate(4.0 14.0) 
        scale(1 1)
    "
>
        <rect
 class="swatch__body" 
    x="0" 
    y="-10.0" 
    width="20" 
    height="20" 
    shape-rendering="geometricPrecision"
/>
</g><text
    class="legend-entry__text"
    transform="
        translate(28.0 14.0) 
        scale(1 1)
    "  
>
    GPIO
</text>
</g><g 
        class="legend-entry led"
    transform="
        translate(169 10) 
        scale(1 1)
    "
>
        <rect
 class="legend-entry__bg" 
    x="0" 
    y="0" 
    width="159" 
    height="28" 
    shape-rendering="geometricPrecision"
/><g 
        class="swatch"
    transform="
        translate(4.0 14.0) 
        scale(1 1)
    "
>
        <rect
 class="swatch__body" 
    x="0" 
    y="-10.0" 
    width="20" 
    height="20" 
    shape-rendering="geometricPrecision"
/>
</g><text
    class="legend-entry__text"
    transform="
        translate(28.0 14.0) 
        scale(1 1)
    "  
>
    LED
</text>
</g><g 
        class="legend-entry pwr"
    transform="
        translate(169 38) 
        scale(1 1)
    "
>
        <rect
 class="legend-entry__bg" 
    x="0" 
    y="0" 
    width="159" 
    height="28" 
    shape-rendering="geometricPrecision"
/><g 
        class="swatch"
    transform="
        translate(4.0 14.0) 
        scale(1 1)
    "
>
        <rect
 class="swatch__body" 
    x="0" 
    y="-10.0" 
    width="20" 
    height="20" 
    shape-rendering="geometricPrecision"
/>
</g><text
    class="legend-entry__text"
    transform="
        translate(28.0 14.0) 
        scale(1 1)
    "  
>
    Power
</text>
</g><g 
        class="legend-entry pwm"
    transform="
        translate(169 66) 
        scale(1 1)
    "
>
        <rect
 class="legend-entry__bg" 
    x="0" 
    y="0" 
    width="159" 
    height="28" 
    shape-rendering="geometricPrecision"
/><g 
        class="swatch"
    transform="
        translate(4.0 14.0) 
        scale(1 1)
    "
>
        <rect
 class="swatch__body" 
    x="0" 
    y="-10.0" 
    width="20" 
    height="20" 
    shape-rendering="geometricPrecision"
/>
</g><text
    class="legend-entry__text"
    transform="
        translate(28.0 14.0) 
        scale(1 1)
    "  
>
    PWM
</text>
</g>
</g><g 
        class="textblock textblock panel text_block"
    transform="
        translate(860 198) 
        scale(1 1)
    "
>
        <rect
 class="textblock__bg" 
    x="0" 
    y="0" 
    width="338" 
    height="100" 
    shape-rendering="geometricPrecision"
/><text
    class="textblock"
    transform="
        translate(10 18) 
        scale(1 1)
    "  
>
    <tspan class='panel__name'>Description</tspan>
</text><text
    class="textblock"
    transform="
        translate(10 36) 
        scale(1 1)
    "  
>
    Demonstration diagram displaying pin-out
</text><text
    class="textblock"
    transform="
        translate(10 54) 
        scale(1 1)
    "  
>
    information of non-existent hardware.
</text><text
    class="textblock"
    transform="
        translate(10 72) 
        scale(1 1)
    "  
>
    Created with version 0.0.10
</text><text
    class="textblock"
    transform="
        translate(10 90) 
        scale(1 1)
    "  
>
    
</text>
</g><g 
        class="textblock textblock panel text_block"
    transform="
        translate(860 300) 
        scale(1 1)
    "
>
        <rect
 class="textblock__bg" 
    x="0" 
    y="0" 
    width="338" 
    height="373" 
    shape-rendering="geometricPrecision"
/><text
    class="textblock"
    transform="
        translate(10 18) 
        scale(1 1)
    "  
>
    <tspan class='panel__name'>Notes</tspan>
</text><text
    class="textblock"
    transform="
        translate(10 36) 
        scale(1 1)
    "  
>
    <tspan class='italic'>pinout</tspan> is a Python application to assist
</text><text
    class="textblock"
    transform="
        translate(10 54) 
        scale(1 1)
    "  
>
    with documentation of electronic hardware. 
</text><text
    class="textblock"
    transform="
        translate(10 72) 
        scale(1 1)
    "  
>
    Development is active with a goal to convert 
</text><text
    class="textblock"
    transform="
        translate(10 90) 
        scale(1 1)
    "  
>
    a promising idea into a useful tool.
</text><text
    class="textblock"
    transform="
        translate(10 108) 
        scale(1 1)
    "  
>
    
</text><text
    class="textblock"
    transform="
        translate(10 126) 
        scale(1 1)
    "  
>
    More info: <tspan class='strong'>www.readthedocs.pinout</tspan>
</text>
</g>
    
</svg>