<?xml version="1.0" encoding="utf-8"?>
<!-- Generator: Adobe Illustrator 14.0.0, SVG Export Plug-In . SVG Version: 6.00 Build 43363)  -->
<!DOCTYPE svg PUBLIC "-//W3C//DTD SVG 1.1//EN" "http://www.w3.org/Graphics/SVG/1.1/DTD/svg11.dtd">
<svg version="1.1" id="Layer_1" xmlns="http://www.w3.org/2000/svg" xmlns:xlink="http://www.w3.org/1999/xlink" x="0px" y="0px"
	 width="225.7px" height="454.993px" viewBox="-7.5 -7.793 225.7 454.993" enable-background="new -7.5 -7.793 225.7 454.993"
	 xml:space="preserve">
<path fill="#FFFFFF" stroke="#00A3F0" d="M147.422,14.932H63.375H1V438.7h208.7V14.932H147.422z M15.345,427.811
	c-3.309,0-5.996-2.689-5.996-5.998c0-3.312,2.688-6.002,5.996-6.002c3.31,0,6.004,2.69,6.004,6.002
	C21.349,425.122,18.655,427.811,15.345,427.811z M15.345,397.811c-3.309,0-5.996-2.689-5.996-6c0-3.31,2.688-6,5.996-6
	c3.31,0,6.004,2.69,6.004,6C21.349,395.122,18.655,397.811,15.345,397.811z M15.345,367.811c-3.309,0-5.996-2.689-5.996-5.998
	c0-3.312,2.688-6.002,5.996-6.002c3.31,0,6.004,2.69,6.004,6.002C21.349,365.122,18.655,367.811,15.345,367.811z M15.345,337.821
	c-3.309,0-5.996-2.689-5.996-6c0-3.309,2.688-6,5.996-6c3.31,0,6.004,2.691,6.004,6C21.349,335.131,18.655,337.821,15.345,337.821z
	 M15.345,307.811c-3.309,0-5.996-2.69-5.996-6s2.688-6,5.996-6c3.31,0,6.004,2.69,6.004,6S18.655,307.811,15.345,307.811z
	 M15.345,277.821c-3.309,0-5.996-2.69-5.996-6c0-3.309,2.688-6,5.996-6c3.31,0,6.004,2.691,6.004,6S18.655,277.821,15.345,277.821z
	 M15.345,247.811c-3.309,0-5.996-2.69-5.996-6c0-3.311,2.688-6,5.996-6c3.31,0,6.004,2.689,6.004,6
	C21.349,245.121,18.655,247.811,15.345,247.811z M15.345,217.811c-3.309,0-5.996-2.69-5.996-6s2.688-6,5.996-6
	c3.31,0,6.004,2.691,6.004,6C21.349,215.121,18.655,217.811,15.345,217.811z M15.345,187.811c-3.309,0-5.996-2.691-5.996-6
	c0-3.31,2.688-6,5.996-6c3.31,0,6.004,2.691,6.004,6S18.655,187.811,15.345,187.811z M15.345,157.811c-3.309,0-5.996-2.691-5.996-6
	c0-3.31,2.688-6,5.996-6c3.31,0,6.004,2.691,6.004,6S18.655,157.811,15.345,157.811z M15.345,127.811c-3.309,0-5.996-2.691-5.996-6
	c0-3.31,2.688-6,5.996-6c3.31,0,6.004,2.691,6.004,6S18.655,127.811,15.345,127.811z M15.345,97.811c-3.309,0-5.996-2.691-5.996-6
	c0-3.31,2.688-6,5.996-6c3.31,0,6.004,2.691,6.004,6C21.349,95.121,18.655,97.811,15.345,97.811z M15.345,67.813
	c-3.309,0-5.996-2.691-5.996-6c0-3.31,2.688-6,5.996-6c3.31,0,6.004,2.691,6.004,6S18.655,67.813,15.345,67.813z M15.345,37.815
	c-3.309,0-5.996-2.691-5.996-6c0-3.31,2.688-6,5.996-6c3.31,0,6.004,2.691,6.004,6C21.349,35.125,18.655,37.815,15.345,37.815z
	 M45.35,427.807c-3.31,0-6.001-2.689-6.001-5.996c0-3.312,2.691-6.004,6.001-6.004s5.999,2.692,5.999,6.004
	C51.349,425.12,48.66,427.807,45.35,427.807z M75.354,427.807c-3.31,0-6.001-2.689-6.001-5.996c0-3.312,2.691-6.004,6.001-6.004
	s5.999,2.692,5.999,6.004C81.353,425.12,78.664,427.807,75.354,427.807z M105.351,427.807c-3.311,0-6.002-2.689-6.002-5.996
	c0-3.312,2.691-6.004,6.002-6.004c3.31,0,5.999,2.692,5.999,6.004C111.35,425.12,108.661,427.807,105.351,427.807z M135.35,427.807
	c-3.311,0-6-2.689-6-5.996c0-3.312,2.689-6.004,6-6.004s6,2.692,6,6.004C141.35,425.12,138.661,427.807,135.35,427.807z
	 M165.352,427.807c-3.313,0-6.002-2.689-6.002-5.996c0-3.312,2.689-6.004,6.002-6.004c3.309,0,5.998,2.692,5.998,6.004
	C171.35,425.12,168.661,427.807,165.352,427.807z M165.35,67.813c-3.311,0-5.996-2.691-5.996-6c0-3.31,2.688-6,5.996-6
	s6.004,2.691,6.004,6S168.659,67.813,165.35,67.813z M195.35,427.811c-3.311,0-5.996-2.689-5.996-5.998
	c0-3.312,2.688-6.002,5.996-6.002s6.004,2.69,6.004,6.002C201.354,425.122,198.659,427.811,195.35,427.811z M195.35,397.811
	c-3.311,0-5.996-2.689-5.996-6c0-3.31,2.688-6,5.996-6s6.004,2.69,6.004,6C201.354,395.122,198.659,397.811,195.35,397.811z
	 M195.35,367.811c-3.311,0-5.996-2.689-5.996-5.998c0-3.312,2.688-6.002,5.996-6.002s6.004,2.69,6.004,6.002
	C201.354,365.122,198.659,367.811,195.35,367.811z M195.35,337.821c-3.311,0-5.996-2.689-5.996-6c0-3.309,2.688-6,5.996-6
	s6.004,2.691,6.004,6C201.354,335.131,198.659,337.821,195.35,337.821z M195.35,307.811c-3.311,0-5.996-2.69-5.996-6
	s2.688-6,5.996-6s6.004,2.69,6.004,6S198.659,307.811,195.35,307.811z M195.35,277.821c-3.311,0-5.996-2.69-5.996-6
	c0-3.309,2.688-6,5.996-6s6.004,2.691,6.004,6S198.659,277.821,195.35,277.821z M195.35,247.811c-3.311,0-5.996-2.69-5.996-6
	c0-3.311,2.688-6,5.996-6s6.004,2.689,6.004,6C201.354,245.121,198.659,247.811,195.35,247.811z M195.35,217.811
	c-3.311,0-5.996-2.69-5.996-6s2.688-6,5.996-6s6.004,2.691,6.004,6C201.354,215.121,198.659,217.811,195.35,217.811z
	 M195.35,187.811c-3.311,0-5.996-2.691-5.996-6c0-3.31,2.688-6,5.996-6s6.004,2.691,6.004,6S198.659,187.811,195.35,187.811z
	 M195.35,157.811c-3.311,0-5.996-2.691-5.996-6c0-3.31,2.688-6,5.996-6s6.004,2.691,6.004,6S198.659,157.811,195.35,157.811z
	 M195.35,127.811c-3.311,0-5.996-2.691-5.996-6c0-3.31,2.688-6,5.996-6s6.004,2.691,6.004,6S198.659,127.811,195.35,127.811z
	 M195.35,97.811c-3.311,0-5.996-2.691-5.996-6c0-3.31,2.688-6,5.996-6s6.004,2.691,6.004,6
	C201.354,95.121,198.659,97.811,195.35,97.811z M195.35,67.813c-3.311,0-5.996-2.691-5.996-6c0-3.31,2.688-6,5.996-6
	s6.004,2.691,6.004,6S198.659,67.813,195.35,67.813z M195.35,37.815c-3.311,0-5.996-2.691-5.996-6c0-3.31,2.688-6,5.996-6
	s6.004,2.691,6.004,6C201.354,35.125,198.659,37.815,195.35,37.815z"/>
<rect x="45.348" y="160.311" fill="#FFFFFF" stroke="#00A3F0" width="116.5" height="116.5"/>
<g>
	<path fill="#FFFFFF" stroke="#00A3F0" d="M105.349,403.701c9.466,0,17.142-1.718,17.142-3.832v-46.276
		c0-2.117-7.676-3.83-17.142-3.83c-9.47,0-17.146,1.713-17.146,3.83v46.276C88.204,401.983,95.879,403.701,105.349,403.701z"/>
	<path fill="#FFFFFF" stroke="#00A3F0" d="M90.465,376.721c0-8.222,6.664-14.879,14.886-14.879c8.224,0,14.884,6.657,14.884,14.879
		c0,8.229-6.66,14.891-14.884,14.891C97.129,391.612,90.465,384.95,90.465,376.721z"/>
</g>
<path fill="#FFFFFF" stroke="#00A3F0" d="M63.375,7.029v56.248h84.047V7.029h-1.158l3.953-3.676l-2.158-2.007l-6.111,5.683h-1.98
	V0.724H70.831v6.306h-1.789l-6.324-6.323L60.48,2.938l4.091,4.091L63.375,7.029L63.375,7.029z M83.12,22.527v12.062h-8.324V22.527
	c-0.693-1.286-1.121-2.66-1.121-3.62c0-0.593,0.463-0.857,1.121-1.015l1.645-0.178c0.76-0.01,1.588,0,2.52,0
	c0.931,0,1.758-0.01,2.518,0l1.645,0.178c0.662,0.157,1.123,0.421,1.123,1.015C84.243,19.869,83.812,21.242,83.12,22.527z
	 M136.002,22.527v12.062h-8.324V22.527c-0.693-1.286-1.123-2.66-1.123-3.62c0-0.593,0.461-0.857,1.123-1.015l1.645-0.178h5.035
	l1.645,0.178c0.658,0.157,1.125,0.421,1.125,1.015C137.127,19.869,136.696,21.242,136.002,22.527z"/>
<path fill="#FFFFFF" stroke="#00A3F0" d="M63.375,7.029v56.248h84.047V7.029h-1.158l3.953-3.676l-2.158-2.007l-6.111,5.683h-1.98
	V0.724H70.831v6.306h-1.789l-6.324-6.323L60.48,2.938l4.091,4.091L63.375,7.029L63.375,7.029z M83.12,22.527v12.062h-8.324V22.527
	c-0.693-1.286-1.121-2.66-1.121-3.62c0-0.593,0.463-0.857,1.121-1.015l1.645-0.178c0.76-0.01,1.588,0,2.52,0
	c0.931,0,1.758-0.01,2.518,0l1.645,0.178c0.662,0.157,1.123,0.421,1.123,1.015C84.243,19.869,83.812,21.242,83.12,22.527z
	 M136.002,22.527v12.062h-8.324V22.527c-0.693-1.286-1.123-2.66-1.123-3.62c0-0.593,0.461-0.857,1.123-1.015l1.645-0.178h5.035
	l1.645,0.178c0.658,0.157,1.125,0.421,1.125,1.015C137.127,19.869,136.696,21.242,136.002,22.527z"/>
<path opacity="0.18" fill="#00A3F0" d="M209.7,6.432h-51.56c0.378-0.972,0.577-2.014,0.577-3.078c0-2.361-0.982-4.617-2.712-6.225
	l-2.158-2.007c-2.562-2.382-6.226-2.892-9.261-1.535c-1.33-0.862-2.916-1.363-4.619-1.363H70.831c-1.462,0-2.838,0.369-4.041,1.02
	c-3.221-1.76-7.343-1.278-10.075,1.444l-2.237,2.231c-1.598,1.593-2.497,3.756-2.498,6.013c-0.001,1.218,0.26,2.41,0.751,3.5H1
	c-4.694,0-8.5,3.806-8.5,8.5V438.7c0,4.694,3.806,8.5,8.5,8.5h208.7c4.694,0,8.5-3.806,8.5-8.5V14.932
	C218.2,10.237,214.394,6.432,209.7,6.432z M209.7,438.7H1V14.932h62.375l0.001-7.902V7.028h1.195L60.48,2.938l2.237-2.231
	l6.324,6.323h1.789V0.724h69.137v6.306h1.98l6.111-5.683l2.158,2.007l-3.953,3.676h1.158v7.902H209.7V438.7z"/>
</svg>
